<?xml version="1.0" encoding="UTF-8"?>
<svg id="Layer_1" xmlns="http://www.w3.org/2000/svg" version="1.1" viewBox="0 0 100 100">
  <!-- Generator: Adobe Illustrator 29.8.2, SVG Export Plug-In . SVG Version: 2.1.1 Build 3)  -->
  <defs>
    <style>
      .st0 {
        fill-opacity: 0;
      }

      .st0, .st1 {
        fill: #fff;
      }

      .st1 {
        fill-opacity: .9;
      }
    </style>
  </defs>
  <g>
    <rect class="st0" x="28.5" y="28.6" width="43" height="43"/>
    <path class="st1" d="M50,71.5c11.9,0,21.5-9.6,21.5-21.5s-9.6-21.5-21.5-21.5-21.5,9.6-21.5,21.5,9.6,21.5,21.5,21.5ZM50,67.5c-9.6,0-17.4-7.8-17.4-17.4s7.8-17.4,17.4-17.4,17.4,7.8,17.4,17.4-7.8,17.4-17.4,17.4Z"/>
    <path class="st1" d="M46.4,61.9h8.5c1,0,1.7-.7,1.7-1.7s-.8-1.7-1.7-1.7h-2.3v-10c0-1.3-.6-2.1-1.8-2.1h-3.9c-1,0-1.7.7-1.7,1.6s.7,1.7,1.7,1.7h1.9v8.8h-2.3c-1,0-1.7.7-1.7,1.7s.8,1.7,1.7,1.7ZM49.7,43.2c1.7,0,3-1.3,3-3s-1.3-3-3-3-3,1.3-3,3,1.3,3,3,3Z"/>
  </g>
  <g>
    <circle cx="50" cy="50" r="50"/>
    <g>
      <rect class="st0" x="25.5" y="26" width="49" height="47.9"/>
      <path class="st1" d="M41.5,73.9c2.2,0,3.8-.5,5-1,1.3-.5,2.3-1.2,3.5-1.2s2.2.6,3.5,1.2c1.2.5,2.7,1,5,1,4.9,0,8.7-3.6,8.7-8.3s-2.5-6.7-4.8-8.5c-1.2-.9-2.2-1.7-2.8-2.7-.6-1-1.1-2.1-1.6-3.2-1.5-3.4-3-6.8-8-6.8s-6.5,3.4-8,6.8c-.5,1.1-.9,2.2-1.6,3.2-.6,1-1.7,1.9-2.8,2.8-2.3,1.8-4.8,3.9-4.8,8.5s3.8,8.3,8.7,8.3ZM41.5,70.2c-2.9,0-5-1.9-5-4.6,0-5.1,4-4.3,6.9-9.2,2-3.5,2.7-8.3,6.6-8.3s4.5,4.8,6.5,8.3c2.9,4.9,6.9,4.1,6.9,9.2s-2.1,4.6-5,4.6-5-2.2-8.5-2.2-5.5,2.2-8.5,2.2ZM25.5,47.7c0,5.2,2.4,8.6,6.2,8.6s6.2-3.5,6.2-8.6-2.5-8.6-6.2-8.6-6.2,3.5-6.2,8.6ZM29,47.7c0-3,1.1-5.1,2.6-5.1s2.6,2,2.6,5.1-1.1,5.1-2.6,5.1-2.6-2-2.6-5.1ZM36.5,34.6c0,5.2,2.4,8.6,6.2,8.6s6.2-3.5,6.2-8.6-2.5-8.6-6.2-8.6-6.2,3.4-6.2,8.6ZM40,34.6c0-3,1.1-5,2.6-5s2.6,2,2.6,5-1.1,5.1-2.6,5.1-2.6-2-2.6-5.1ZM51.2,34.6c0,5.2,2.5,8.6,6.2,8.6s6.2-3.4,6.2-8.6-2.4-8.6-6.2-8.6-6.2,3.4-6.2,8.6ZM54.7,34.6c0-3,1.1-5,2.7-5s2.6,2,2.6,5-1.1,5.1-2.6,5.1-2.7-2-2.7-5.1ZM62.1,47.7c0,5.2,2.5,8.6,6.2,8.6s6.2-3.5,6.2-8.6-2.4-8.6-6.2-8.6-6.2,3.5-6.2,8.6ZM65.7,47.7c0-3,1.1-5.1,2.7-5.1s2.6,2,2.6,5.1-1.1,5.1-2.6,5.1-2.7-2-2.7-5.1Z"/>
    </g>
  </g>
</svg>