<?xml version="1.0" encoding="UTF-8"?>
<svg id="Layer_1" xmlns="http://www.w3.org/2000/svg" version="1.1" viewBox="0 0 400 525">
  <!-- Generator: Adobe Illustrator 29.8.2, SVG Export Plug-In . SVG Version: 2.1.1 Build 3)  -->
  <defs>
    <style>
      .st0 {
        fill: #5e9085;
      }

      .st1 {
        fill: #fff;
      }
    </style>
  </defs>
  <g>
    <path class="st1" d="M1.6,63.66c.18,3.19.53,6.09.48,8.98-.27,13.68-.48,27.36-1.06,41.03-.59,13.68-1.3,27.35.7,40.95,1.52,10.33,1.13,20.58.03,30.89-.59,5.49-.96,11.01-1.04,16.53-.17,12.03,0,24.06-.13,36.09-.07,6.97-.7,13.94-.56,20.89.11,5.5,1.49,10.99,1.46,16.48-.1,19.1-.66,38.2-.87,57.3-.12,11.12,1.55,22.07,4.71,32.7,2.73,9.17,8.1,16.74,17.59,19.63,7.12,2.17,14.66,3.71,22.07,4.02,13.85.58,27.74,0,41.61.03,12.97.03,25.93.12,38.89.37,16.21.31,32.42.89,48.63,1.2,7.06.14,14.14.18,21.18-.24,10.13-.62,20.21-1.55,30.38-.2,17.97,2.4,36.02,1.88,54,.29,15.39-1.36,30.69-1.96,46.1-.3,7.89.85,15.9.65,23.85.72,4.15.03,8.31-.31,12.45-.62,6.73-.5,13.45-1.33,18.93-5.76,10.79-8.72,16.89-19.99,17.4-33.96.49-13.49.91-26.99.96-40.49.02-6.68-1.03-13.35-1.3-20.04-.26-6.41-.18-12.84-.15-19.26.05-10.7.13-21.39.27-32.09.12-9.15.58-18.3.45-27.45-.2-14.49-.78-28.98-1.18-43.47-.1-3.62-.23-7.24-.18-10.85.07-5.51.06-11.04.49-16.53.39-4.95,1.68-9.84,1.96-14.79.39-6.75.27-13.54.25-20.31-.07-22.62-2.75-45.03-6.05-67.34-2.37-16.02-15.79-32.33-33.25-35.49-10.2-1.85-20.3-3.15-30.75-2.35-16.61,1.28-33.26,2.32-49.9,2.58-11.02.17-22.06-1.42-33.1-1.8-9.32-.32-18.65.01-27.98-.06-6.88-.05-13.77-.57-20.65-.37-15.67.45-31.32,1.35-46.98,1.8-12.14.35-24.28.31-36.43.4-11.48.09-22.97.14-34.45.19-9.6.04-19.21-.22-28.79.18-9.19.38-18.56-.14-27.32,3.58C11.83,12.05,3.3,21,1.8,34.68c-1.06,9.65-.2,19.51-.2,28.98Z"/>
    <path class="st0" d="M1.6,63.66c0-9.47-.85-19.33.2-28.98C3.3,21,11.83,12.05,24.3,6.74c8.76-3.73,18.14-3.2,27.32-3.58,9.58-.39,19.19-.13,28.79-.18,11.48-.05,22.97-.1,34.45-.19,12.14-.09,24.29-.05,36.43-.4,15.67-.45,31.32-1.35,46.98-1.8,6.87-.2,13.76.32,20.65.37,9.33.07,18.66-.27,27.98.06,11.04.38,22.08,1.97,33.1,1.8,16.65-.26,33.3-1.3,49.9-2.58,10.45-.81,20.55.5,30.75,2.35,17.46,3.16,30.87,19.47,33.25,35.49,3.31,22.31,5.98,44.72,6.05,67.34.02,6.77.14,13.55-.25,20.31-.28,4.95-1.57,9.84-1.96,14.79-.44,5.49-.42,11.01-.49,16.53-.05,3.62.08,7.24.18,10.85.4,14.49.98,28.98,1.18,43.47.13,9.15-.33,18.3-.45,27.45-.14,10.7-.23,21.39-.27,32.09-.03,6.42-.11,12.85.15,19.26.27,6.69,1.32,13.36,1.3,20.04-.05,13.5-.47,27-.96,40.49-.51,13.97-6.61,25.23-17.4,33.96-5.48,4.43-12.2,5.26-18.93,5.76-4.14.31-8.3.65-12.45.62-7.96-.07-15.97.13-23.85-.72-15.41-1.66-30.71-1.06-46.1.3-17.98,1.59-36.03,2.11-54-.29-10.17-1.36-20.25-.42-30.38.2-7.04.43-14.12.38-21.18.24-16.21-.31-32.42-.89-48.63-1.2-12.96-.25-25.93-.34-38.89-.37-13.87-.03-27.76.55-41.61-.03-7.41-.31-14.95-1.85-22.07-4.02-9.49-2.89-14.87-10.46-17.59-19.63-3.16-10.63-4.83-21.58-4.71-32.7.21-19.1.77-38.2.87-57.3.03-5.49-1.35-10.98-1.46-16.48-.14-6.96.49-13.93.56-20.89.12-12.03-.04-24.06.13-36.09.08-5.51.45-11.04,1.04-16.53,1.1-10.31,1.49-20.56-.03-30.89-2.01-13.6-1.29-27.27-.7-40.95.59-13.67.79-27.35,1.06-41.03.06-2.89-.3-5.79-.48-8.98ZM74.29,114.09c-2.48-3.15-3.04-5.66-1.63-8.54.39-.79.37-2,.07-2.85-.73-2.02-.04-3.24,1.63-4.32,2.71-1.74,3-2.52,1.25-5.18-.84-1.27-2.35-2.12-3.62-3.08-1.1-.83-2.29-1.55-3.78-2.54,3.71-3.06,6.23-6.79,11.16-6.97,4.37-.15,8.73-.5,13.82-.8-1.66,1.8-2.86,3.11-4.07,4.41-1.27,1.37-2.34,2.77-.83,5,2.07-1.2,4.04-2.44,6.1-3.5,2.96-1.51,6.29-2.49,8.92-4.42,3.56-2.61,7.46-3.6,11.63-3.94,3.64-.3,6.29,1.87,7.02,5.38.26,1.24.51,2.49.59,3.75.23,3.61,1.33,4.77,4.78,5.87,1.37.44,2.85,1.5,3.61,2.7,2.07,3.26,4.53,4.06,7.54,1.67,4.53-3.59,9.16-3.44,13.9-.74,1.79,1.02,3.31,2.52,5.06,3.63,3.59,2.27,7.26,4.42,11.13,6.75.44-2.82.6-5.08,1.16-7.24.99-3.83,1.06-3.71-2.7-5.16-2.25-.87-5.24-1.53-6.32-3.27-1.56-2.5-3.55-3.69-5.99-4.53-5-1.7-10-2.26-14.88.5-1.38.78-2.81,1.45-4.22,2.17.03-.28.06-.57.09-.85-1.35-.88-2.6-2.08-4.08-2.55-1.48-.46-2.12-1.1-2.21-2.57-.06-.99-.23-1.98-.45-2.95-.76-3.38-.65-7.33-4.4-9.11-2.57-1.22-5.37-2.5-8.13-2.63-7.05-.34-12.74,3.57-18.25,7.29-1.87,1.26-3.35,1.81-5.39,1.28-3.75-.97-7.52-1.9-11.27-2.89-3.02-.8-5.79-.16-8.26,1.59-6.41,4.53-10.48,10.72-11.88,18.39-.6,3.29-.1,6.79-.1,10.34-.91,0-1.82.13-2.67-.02-8.06-1.41-15.57-.22-22.74,3.97-5.11,2.99-9.18,10.51-7.43,15.54.77,2.21,1.37,4.09.18,6.41-.49.95.1,2.65.58,3.86.59,1.48,1.57,2.81,2.38,4.21-4.94,2.76-6.33,5.56-4.93,10.77.57,2.14,1.63,4.22,2.83,6.09,1.76,2.74,3.91,5.22,5.77,7.9,1.68,2.42.6,4.95-2.26,5.63-2.01.48-3.42,1.65-2.87,3.83.62,2.44,1.39,4.92,2.59,7.11,3.84,7,9.84,11.96,16.25,16.46,2.48,1.74,5.04,3.36,8.04,5.35-1.78,1.04-3.18,1.98-4.68,2.7-2.6,1.25-3.15,3.21-1.03,5.23,1.1,1.05,2.73,1.68,4.23,2.14,1.89.58,3.91.74,5.85,1.16,7.6,1.65,15.23,3.21,22.79,5.05,3.38.83,5.54-.39,7.47-2.93,1.96-2.57,4.07-5.02,6.21-7.65.32.48.55.76.7,1.07,1.59,3.31,2.78,6.89,6.52,8.66.61.29.99,1.69.98,2.56-.07,6.61-.17,13.23-.47,19.83-.24,5.42-.35,5.44-5.66,6.99-2.17.63-4.37,1.23-6.6,1.59-1.76.28-3.7.58-5.37.14-3.74-1-7.31-2.64-11.05-3.65-2.31-.63-4.81-.88-7.2-.78-7.95.33-15.04,3.6-22.21,6.71-5.55,2.41-9.2,6.55-12.15,11.56-1.02,1.73-.57,2.96,1.3,3.6,2.22.76,4.44,1.75,6.73,2.05,2.28.3,4.67-.09,7-.31.5-.05,1.35-.69,1.33-1-.05-.62-.46-1.5-.96-1.72-1.31-.58-2.79-.74-4.11-1.3-.93-.39-2.35-1.13-2.38-1.78-.05-1.07.54-2.61,1.38-3.2,1.67-1.18,3.67-1.91,5.58-2.72,1.99-.85,4.27-1.22,6.02-2.41,6.05-4.1,12.42-4.52,19.17-2.37,3.04.97,3.72,4.05,1.14,5.97-1.3.97-3.13,1.22-4.74,1.77-3.35,1.15-7.25,1.13-9.59,4.4-.41.57-.37,1.46-.54,2.21.67.15,1.41.56,1.99.39,2.68-.79,5.57-1.31,7.92-2.71,8.44-5.02,17.68-7.11,27.2-8.8,7.54-1.33,15.12-3.07,22.29-5.68,7.17-2.61,14.2-5.36,21.82-6.25,1.73-.2,3.47-.36,4.73-.5.2,2.81-.25,5.46.65,7.52,1.93,4.39,9.1,6.71,13.49,4.37,2.91-1.54,5.81-1.78,8.88-1.78,2.61,0,5.1-.28,6.5-3.51,2.33,2.3,6.68.43,7.68,4.72,3.37.74,6.39,3.47,10.1,2.19,2.51-.86,2.96.36,2.83,2.31-.18,2.7-.52,5.38-.82,8.35-2.22.14-4.58.08-6.87.46-8.48,1.43-16.92,3.14-25.42,4.48-5.52.87-11.09,1.62-16.66,1.8-3.76.12-7.53-.96-11.32-1.28-7.27-.61-14.41-.42-20.57,4.7.38.23.65.46.97.57.68.23,1.38.44,2.08.59,11.41,2.46,22.97,2.1,34.37.6,11.84-1.56,23.52-4.26,35.29-6.33,2.7-.47,5.5-.37,9.11-.59-.84,2.89-1.34,5.13-2.17,7.24-.59,1.51-.39,2.4,1.22,2.41,1.97.01,3.95-.29,5.92-.44,3.11-.23,6.21-.43,9.32-.69.91-.08,1.81-.29,2.11-.34-.87-2.87-1.66-5.47-2.61-8.61,2.93.18,5.02.12,7.05.46,14.78,2.45,29.59,4.05,44.63,3.61,6.47-.19,13.02.69,19.46,1.59,6.71.93,13.36,2.4,20,3.78,1.42.3,2.72,1.22,4.07,1.85-.07.31-.14.62-.21.93-1.65.34-3.29.83-4.96,1.01-12.25,1.32-24.52,2.44-36.76,3.88-25.04,2.94-49.75,7.62-74.14,14.12-20.95,5.58-39.34,15.47-55,30.42-7.66,7.31-15.94,13.72-25.68,18.03-5.89,2.61-11.84,4.79-18.59,4.04-2.09-.23-4.53,1.12-6.53,2.24-1.84,1.02-1.58,3.05.41,3.93,1.71.76,3.56,1.37,5.41,1.65,7.56,1.17,14.99-.21,22.43-1.33,9.93-1.5,19.81-3.63,29.79-4.4,16.17-1.24,32.16,1.92,48.22,3.28,10.19.86,20.35,2.53,30.63,1.38,4.05-.45,8.11-1.33,12.15-1.25,16.21.29,32.42.9,48.64,1.34,3.06.08,6.14.02,9.2-.16,2.38-.13,3.56-1.54,3.41-3.98-.04-.62-.13-1.26-.03-1.87.93-5.65-.15-10.6-4.87-14.34-.62-.49-1.09-1.2-1.6-1.82-6.62-8.11-10.07-10.41-18.23-7.4-.76.28-1.79-.09-2.68-.25-4.32-.74-8.62-1.92-12.97-2.1-2.9-.12-5.39,1.69-6.83,4.64-.59,1.21-1.76,2.31-2.93,3.03-3.74,2.32-5.42,5.71-5.68,9.94-.08,1.24-.01,2.49-.01,4.05-3.62-.26-6.93-.52-10.26-.72-10.53-.64-19.39-4.6-26.44-12.65-4.92-5.62-5.04-11.54.13-16.87,4.1-4.23,8.85-7.57,14.35-9.59,9.24-3.39,18.42-7.2,27.95-9.55,13.87-3.42,27.92-6.48,42.08-8.25,16.7-2.1,33.59-2.91,50.47-1.88,8.3.51,16.57,1.49,24.87,2.18.89.07,2.15-.15,2.63-.73.45-.54.45-2.05,0-2.61-.88-1.09-2.09-2.26-3.37-2.59-5.95-1.55-12.05-2.55-17.95-4.26-5.64-1.63-11.07-3.96-16.64-5.86-13.83-4.72-28.21-6.67-42.67-7.74-10.47-.78-21.01-.57-31.52-.95-4.13-.15-8.26-.68-12.38-1.09-1.98-.2-3.94-.61-5.93-.78-7.72-.66-15.44-1.26-23.34-1.9v-10.26c.96-.29,1.82-.54,2.68-.8,2.53-.75,4.96-1.33,4.92-4.95-.02-2.06,1.65-2.74,3.76-2,1.42.5,2.98.58,4.41,1.05,1.5.5,3.24.9,4.32,1.93,2.53,2.4,5.39,2.96,8.52,2.08,4.44-1.25,8.82-2.73,13.21-4.16,3.11-1.01,4.35-5.3,2.35-7.87-.3-.38-.44-.88-.58-1.16,3.37-.79,6.58-1.55,9.8-2.27.23-.05.51.16.77.24,10.26,3.25,20.17,1.47,30.08-1.82,5.68-1.88,11.3-4.53,17.61-3.25.51.1,1.08-.12,1.62-.09,5.87.25,11.83-.02,17.59.92,8.74,1.43,17.34,3.76,26.01,5.61,2.1.45,4.3.76,6.43.65,1.99-.11,4.17-.83,4.3-3.33.12-2.46-.61-4.89-3.34-5.6-2.95-.78-6-1.29-9.04-1.62-4.14-.44-8.6.24-12.4-1.07-6.69-2.3-13.47-3.6-20.43-4.11-7.87-.58-15.79-1.1-23.05,3.08-.43.25-.97.28-1.85.53-.25-4.01-.5-7.78-.71-11.54-.26-4.49.42-8.74,2.69-12.76,1.91-3.38,3.46-6.95,5.14-10.45,1.32-2.74,2.55-5.46.46-8.44-.3-.42-.19-1.47.14-1.93,3.42-4.68,6.78-9.41,10.44-13.9,3.43-4.21,7.21-8.13,10.83-12.18,2.1-2.35,2-3.44-.88-4.99-5.17,5.04-10.44,10.17-16.14,15.73,1-3.7,1.65-6.91,2.74-9.96,3.19-8.94,6.59-17.8,9.8-26.73.44-1.24.23-2.71.32-4.07-.38-.1-.76-.19-1.13-.29-1.11,1.6-2.3,3.14-3.3,4.8-1.82,3.02-2.93,6.76-5.41,9.01-4.51,4.09-9.76,7.37-14.83,10.79-.68.46-2.16-.03-3.18-.35-2.1-.64-4.09-1.71-6.23-2.14-3.52-.72-7.18-.82-10.66-1.67-2.05-.5-3.21-.14-3.73,1.73-2.07,7.33-7.72,10.05-14.46,11.43-2.49.51-4.25.06-5.32-2.7-1.38-3.58-2.86-7.12-6.14-9.68-1.17-.92-1.78-3.1-1.87-4.74-.14-2.89-2.53-3.84-4.16-5.23-.59-.5-2.77.85-4.21,1.41-.32.12-.52.58-.84.67-.88.23-1.79.34-2.46.45.48-2.49,1.12-4.44,1.18-6.42.24-7.91-2.38-15.13-5.55-22.22-.5-1.12-.55-2.66-.26-3.87.59-2.45-.77-3.46-3.01-4.34-1.92-.75-2.16.95-2.59,2.25-.1.3-.43.51-.82.95-.88-1.32-1.42-2.83-2.49-3.61-2.64-1.91-1.92-4.07-.98-6.37.44-1.08.99-2.13,1.43-3.21,1.32-3.25,1.09-3.95-1.77-5.74-5.82-3.63-7.75-9.82-4.65-15.77.95-1.81.92-2.99-.3-4.57-1.31-1.7-2.67-1.88-4.49-1.1-.61.26-1.35.22-2.38.36-.09-1.47-.09-2.71-.26-3.93-.27-1.95-.79-3.87-3.22-4.01-2.35-.13-3.09,1.24-3.57,3.48-.76,3.47-2.66,6.42-6.22,7.8-4.53,1.76-5.14,2.49-4.36,7.21.53,3.17-.19,5.52-3.05,7.12-2.55,1.42-3.65,3.67-3.66,6.52,0,3.57,0,7.14,0,10.81-2.16.48-3.93.15-4.37-2.72-.07-.47-.93-1.02-1.51-1.14-.29-.06-.91.67-1.14,1.16-.91,1.95-1.81,3.91-2.53,5.93-.35.97-.72,2.34-.31,3.11,1.29,2.39.38,4.45-.62,6.44-1.84,3.66-3.67,7.23.14,11.45-3.94-.32-7.07-.68-10.21-.76-1.03-.02-2.74.44-3.01,1.13-.94,2.36-1.51,4.9-1.96,7.42-.48,2.68-.37,5.5-1.07,8.11-.46,1.73-.25,2.69,1.13,3.66,2.82,1.96,3.94,4.72,3.88,8.14-.05,2.48-.76,3.71-3.48,4.4-5.18,1.3-9.53,4.48-11.76,9.33-2.03,4.42-2.97,9.35-4.49,14.4,1.78.91,3.42,1.74,5.6,2.85-.95,1.37-1.95,2.73-2.85,4.16-.41.65-.82,1.44-.84,2.17-.03,1.68.18,3.37.3,5.06.12,1.59-.33,2.5-2.2,2.66-1.77.15-3.59.58-5.24,1.27-3.23,1.35-8.03-1.4-8.41-5-.48-4.55-.87-4.93-5.33-5.35-.72-.07-1.44-.16-2.16-.28-9.59-1.66-18.18.98-25.74,6.69-4.75,3.59-9.25,7.62-13.33,11.96-2.9,3.08-5.7,3.81-9.59,2.66-3.99-1.18-8.12-1.89-12.62-2.91,1.07-.84,1.69-1.34,2.33-1.82,3.85-2.91,3.74-4.48-.34-6.96-2.94-1.78-5.98-3.47-8.65-5.61-5.45-4.38-10.56-9.15-13.63-15.64-1.08-2.3-1-4.61,1.26-6.01,1.25-.77,3.03-.66,4.57-.99.9-.2,1.78-.48,2.67-.72-.44-.89-.72-1.9-1.35-2.63-.69-.8-1.84-1.22-2.54-2.02-4.03-4.63-8.31-9.08-11.85-14.07-2.81-3.96-1.41-6,3.29-6.25,1.05-.06,2.07-.68,3.1-1.04-.7-.87-1.34-1.79-2.1-2.6-1.52-1.63-3.25-3.1-4.59-4.86-.59-.78-.44-2.13-.63-3.22.25-.06.5-.12.75-.19,1.16.88,2.32,1.76,3.48,2.64.26-.11.51-.22.77-.33-.05-.97.03-1.97-.17-2.91-.85-3.95-.16-7.21,3.17-9.95,5.2-4.29,11.18-6.27,17.76-6.57,4.6-.21,9.22-.04,14.62-.04ZM320.55,95.47c.08,1.35.13,1.8.12,2.25-.19,9.42,4.92,15.17,14.34,15.86,2.87.21,5.78-.11,8.68-.12,4.18-.01,8.25,2.61,8.73,6.67.59,5.08.55,10.38-2.64,14.87-1.56,2.2-3.59,4.08-5.15,6.28-.59.83-.48,2.15-.68,3.25.92.09,2.04.56,2.72.2,5.21-2.75,10.9-3.11,16.58-3.52,1.27-.09,2.54-.01,3.82-.01.04.23.09.46.13.69-2.28,1.06-4.49,2.33-6.86,3.13-6.49,2.19-11.98,5.8-16.82,10.65-2.21,2.22-4.93,3.97-7.57,5.7-2.98,1.96-6.13,3.34-9.29.14-.13-.13-.51-.02-.99-.02-.11.55-.38,1.15-.32,1.7.51,4.13,5.65,8.01,9.79,7.17,2.55-.52,5-1.54,7.47-2.4,2.31-.8,4.25-1.88,4.4-4.83.05-.94.95-1.91,1.64-2.72,5.98-7.03,14.23-10.41,22.44-13.8,2.51-1.04,4.5-3.44,4.49-6.32-.01-3.02-2.37-3.73-4.6-4.06-4.47-.65-8.99-.99-13.85-1.5.45-.53,1-1.47,1.81-2.09,3.75-2.87,5.2-6.12,3.93-10.12-.56-1.76-1.89-3.26-2.78-4.93-4.27-7.93-11.24-11.46-19.89-12.29-1.05-.1-2.09-.23-3.68-.4.38-4.1.73-7.95,1.1-11.79.4-4.08,1.66-5.53,5.6-6.6,3.86-1.04,6.39-5.12,5.31-8.79-1.92-6.51-5.17-11.73-12.72-12.66-1.52-.19-3.03-.61-4.48-1.11-2.55-.89-5.11-1.82-7.57-2.94-1.81-.82-2.79-2.25-2.95-4.45-.35-4.78-2.2-9.08-5.91-12.14-3.15-2.6-6.48-5.54-11.19-3.7-2.02.79-4.02,1.66-5.96,2.65-3.04,1.55-5.17,3.94-6.3,7.27,1.38-.32,2.48-1.04,3.66-1.56,2.7-1.21,5.36-2.63,8.19-3.42,3.67-1.03,5.5.1,6.43,3.78.59,2.34.61,4.82.95,7.23.12.85.16,2.13.69,2.45,5.43,3.29,9.84,8.32,16.57,9.48,2.99.51,5.97,1.52,8.74,2.77,3.52,1.59,3.73,5.54.63,7.87-1.08.82-2.23,1.56-3.41,2.21-7.84,4.3-15.68,8.59-23.55,12.83-1.27.68-2.1.29-2.64-1.21-1.34-3.7-5.33-5.2-8.52-2.86-4,2.94-7.71,6.29-11.39,9.64-1.72,1.57-3.21,3.46-4.52,5.39-.43.64-.35,2.31.15,2.72.59.48,1.92.28,2.85.04.62-.16,1.1-.9,1.63-1.39,2.95-2.69,5.85-5.43,8.87-8.03.92-.79,2.17-1.19,3.27-1.77.24.2.47.41.71.61-.59,2.95-1.18,5.89-1.66,8.3,6.83-3.26,13.91-6.65,21.49-10.27ZM281.24,64.39c3.95-1.91,7.16-3.53,10.43-5,1.88-.85,3.97-1.26,5.79-2.21,1.65-.86,2.06-2.49,1.12-4.2-.97-1.77-2.37-1-3.48-.27-4.13,2.72-8.29,5.4-12.21,8.4-1.8,1.38-3.09,1.83-5.26.8-1.55-.74-3.68-.98-5.36-.59-3.76.88-7.32,2.66-11.1,3.39-4,.78-7.58,2.15-11,4.3-5.52,3.47-11.11,6.69-13.49,13.4-1.89,5.32-1.83,6.13,2.74,9.21,2.94,1.98,3.91,1.52,5.02-1.84.6-1.8,1.33-4.02,2.73-5,2.48-1.75,3.97-4.03,5.65-6.4,4.55-6.41,10.82-10.3,18.75-11.05,2.94-.28,3.94.88,3.94,3.81,0,1.81-.34,3.66-.05,5.41.16.95,1.21,1.91,2.11,2.48.31.2,1.55-.61,2.03-1.22.94-1.18,1.5-2.67,2.47-3.81,2.72-3.21,3.25-6.3-.82-9.62ZM123.1,176.23c-.21-.33-.67-1.04-1.15-1.75-.05-.07-.14-.12-.22-.15-5.02-1.77-10.73-3.52-15.27-1.2-6.34,3.23-11.72,8.35-17.43,12.77-.45.35-.24,1.55-.33,2.35.79.04,1.77.4,2.35.07,3.53-2.01,7-4.11,10.41-6.31,4.34-2.8,8.82-4.9,14.18-3.71,1.49.33,2.99.65,4.47,1.01,2.18.53,3.02-.47,2.98-3.08ZM68.76,120.36c-.2-.31-.4-.62-.61-.93-6.69,1.52-13.62,2.51-18.87,7.66-2.53,2.48-2.9,7.29-.96,10.09.55.8,1.7,1.75,2.48,1.67.74-.07,1.55-1.3,1.99-2.19.56-1.11.73-2.42,1.16-3.61,1.19-3.3,2.64-6.26,6.44-7.48,2.27-.73,4.35-2.13,6.44-3.35.75-.44,1.29-1.23,1.92-1.87ZM101.8,103.22c-3.18,3.58-6.45,7.16-9.57,10.86-.47.56-.67,2.13-.3,2.46.65.58,2.03,1.04,2.77.73,3.4-1.42,6.69-3.09,9.98-4.75.58-.29,1.24-.91,1.39-1.5.55-2.18-1.99-6.79-4.27-7.81Z"/>
    <path class="st1" d="M74.29,114.09c-5.4,0-10.02-.17-14.62.04-6.58.3-12.55,2.28-17.76,6.57-3.33,2.74-4.02,6.01-3.17,9.95.2.94.12,1.94.17,2.91-.26.11-.51.22-.77.33-1.16-.88-2.32-1.76-3.48-2.64-.25.06-.5.12-.75.19.19,1.09.04,2.43.63,3.22,1.34,1.77,3.07,3.23,4.59,4.86.76.81,1.4,1.73,2.1,2.6-1.03.36-2.05.98-3.1,1.04-4.7.25-6.1,2.29-3.29,6.25,3.53,4.98,7.82,9.44,11.85,14.07.7.8,1.85,1.21,2.54,2.02.63.73.91,1.74,1.35,2.63-.89.24-1.77.53-2.67.72-1.53.33-3.32.22-4.57.99-2.26,1.4-2.35,3.72-1.26,6.01,3.06,6.49,8.17,11.26,13.63,15.64,2.66,2.14,5.71,3.83,8.65,5.61,4.08,2.48,4.19,4.06.34,6.96-.64.48-1.26.99-2.33,1.82,4.5,1.01,8.63,1.73,12.62,2.91,3.9,1.15,6.7.42,9.59-2.66,4.08-4.33,8.58-8.37,13.33-11.96,7.56-5.71,16.15-8.35,25.74-6.69.71.12,1.44.22,2.16.28,4.46.42,4.85.8,5.33,5.35.38,3.6,5.18,6.35,8.41,5,1.64-.69,3.46-1.12,5.24-1.27,1.86-.16,2.31-1.06,2.2-2.66-.12-1.69-.33-3.37-.3-5.06.01-.73.43-1.52.84-2.17.9-1.43,1.9-2.79,2.85-4.16-2.18-1.11-3.82-1.94-5.6-2.85,1.53-5.06,2.46-9.98,4.49-14.4,2.23-4.85,6.58-8.03,11.76-9.33,2.72-.69,3.44-1.91,3.48-4.4.06-3.42-1.06-6.17-3.88-8.14-1.38-.96-1.59-1.93-1.13-3.66.69-2.61.59-5.42,1.07-8.11.45-2.52,1.03-5.06,1.96-7.42.27-.69,1.98-1.16,3.01-1.13,3.14.08,6.27.44,10.21.76-3.81-4.22-1.98-7.79-.14-11.45,1-1.99,1.91-4.05.62-6.44-.41-.77-.04-2.13.31-3.11.72-2.02,1.62-3.98,2.53-5.93.23-.49.85-1.22,1.14-1.16.58.13,1.44.67,1.51,1.14.44,2.87,2.21,3.19,4.37,2.72,0-3.66,0-7.23,0-10.81,0-2.85,1.11-5.1,3.66-6.52,2.86-1.59,3.58-3.95,3.05-7.12-.79-4.72-.18-5.46,4.36-7.21,3.56-1.38,5.46-4.33,6.22-7.8.49-2.23,1.23-3.61,3.57-3.48,2.43.14,2.95,2.06,3.22,4.01.17,1.22.17,2.46.26,3.93,1.03-.14,1.77-.1,2.38-.36,1.81-.78,3.18-.6,4.49,1.1,1.22,1.58,1.25,2.76.3,4.57-3.11,5.96-1.17,12.14,4.65,15.77,2.86,1.78,3.08,2.48,1.77,5.74-.44,1.09-.98,2.13-1.43,3.21-.94,2.3-1.66,4.47.98,6.37,1.08.78,1.62,2.29,2.49,3.61.39-.44.72-.66.82-.95.42-1.29.66-3,2.59-2.25,2.24.88,3.6,1.89,3.01,4.34-.29,1.21-.24,2.75.26,3.87,3.17,7.09,5.78,14.32,5.55,22.22-.06,1.98-.71,3.93-1.18,6.42.67-.12,1.58-.23,2.46-.45.32-.08.52-.54.84-.67,1.44-.56,3.62-1.9,4.21-1.41,1.63,1.39,4.02,2.34,4.16,5.23.08,1.64.69,3.82,1.87,4.74,3.28,2.56,4.76,6.11,6.14,9.68,1.06,2.76,2.83,3.21,5.32,2.7,6.74-1.38,12.4-4.09,14.46-11.43.53-1.87,1.68-2.23,3.73-1.73,3.48.85,7.14.95,10.66,1.67,2.13.43,4.13,1.5,6.23,2.14,1.03.31,2.5.81,3.18.35,5.07-3.43,10.32-6.71,14.83-10.79,2.48-2.25,3.59-6,5.41-9.01,1-1.66,2.2-3.21,3.3-4.8.38.1.76.19,1.13.29-.09,1.36.13,2.84-.32,4.07-3.2,8.93-6.61,17.79-9.8,26.73-1.09,3.05-1.73,6.26-2.74,9.96,5.7-5.56,10.97-10.69,16.14-15.73,2.88,1.55,2.98,2.64.88,4.99-3.62,4.05-7.4,7.98-10.83,12.18-3.66,4.49-7.02,9.22-10.44,13.9-.33.46-.44,1.51-.14,1.93,2.09,2.98.85,5.7-.46,8.44-1.68,3.5-3.23,7.08-5.14,10.45-2.27,4.02-2.95,8.27-2.69,12.76.21,3.77.46,7.53.71,11.54.88-.24,1.42-.28,1.85-.53,7.26-4.18,15.18-3.66,23.05-3.08,6.96.51,13.73,1.81,20.43,4.11,3.8,1.31,8.26.62,12.4,1.07,3.04.33,6.08.84,9.04,1.62,2.72.72,3.46,3.14,3.34,5.6-.12,2.5-2.3,3.23-4.3,3.33-2.13.11-4.33-.2-6.43-.65-8.68-1.85-17.27-4.17-26.01-5.61-5.76-.94-11.72-.67-17.59-.92-.54-.02-1.11.2-1.62.09-6.31-1.27-11.93,1.37-17.61,3.25-9.91,3.29-19.82,5.07-30.08,1.82-.26-.08-.54-.29-.77-.24-3.22.72-6.43,1.48-9.8,2.27.14.28.29.78.58,1.16,2,2.57.76,6.86-2.35,7.87-4.39,1.43-8.76,2.91-13.21,4.16-3.13.88-5.99.32-8.52-2.08-1.08-1.03-2.82-1.43-4.32-1.93-1.43-.47-3-.55-4.41-1.05-2.11-.75-3.78-.06-3.76,2,.04,3.62-2.39,4.2-4.92,4.95-.86.26-1.72.51-2.68.8v10.26c7.9.64,15.62,1.24,23.34,1.9,1.98.17,3.95.58,5.93.78,4.12.41,8.24.94,12.38,1.09,10.51.38,21.05.17,31.52.95,14.46,1.07,28.84,3.02,42.67,7.74,5.57,1.9,11,4.23,16.64,5.86,5.9,1.71,12,2.72,17.95,4.26,1.28.33,2.5,1.51,3.37,2.59.45.56.44,2.07,0,2.61-.48.58-1.75.81-2.63.73-8.29-.68-16.56-1.67-24.87-2.18-16.87-1.03-33.77-.21-50.47,1.88-14.16,1.78-28.21,4.84-42.08,8.25-9.52,2.35-18.7,6.15-27.95,9.55-5.5,2.02-10.25,5.36-14.35,9.59-5.17,5.34-5.05,11.26-.13,16.87,7.05,8.05,15.91,12.02,26.44,12.65,3.32.2,6.64.46,10.26.72,0-1.56-.06-2.81.01-4.05.26-4.24,1.94-7.63,5.68-9.94,1.17-.72,2.34-1.82,2.93-3.03,1.43-2.95,3.93-4.76,6.83-4.64,4.34.18,8.64,1.37,12.97,2.1.89.15,1.92.53,2.68.25,8.16-3.01,11.61-.71,18.23,7.4.51.63.98,1.33,1.6,1.82,4.72,3.74,5.8,8.69,4.87,14.34-.1.61,0,1.25.03,1.87.15,2.44-1.03,3.84-3.41,3.98-3.06.17-6.13.24-9.2.16-16.21-.44-32.42-1.04-48.64-1.34-4.04-.07-8.1.8-12.15,1.25-10.28,1.15-20.44-.51-30.63-1.38-16.06-1.36-32.05-4.52-48.22-3.28-9.99.77-19.86,2.9-29.79,4.4-7.44,1.12-14.87,2.5-22.43,1.33-1.85-.29-3.7-.89-5.41-1.65-1.98-.88-2.25-2.91-.41-3.93,2.01-1.12,4.45-2.47,6.53-2.24,6.75.76,12.7-1.43,18.59-4.04,9.74-4.31,18.02-10.72,25.68-18.03,15.66-14.95,34.04-24.84,55-30.42,24.39-6.5,49.1-11.17,74.14-14.12,12.24-1.44,24.51-2.56,36.76-3.88,1.67-.18,3.31-.66,4.96-1.01.07-.31.14-.62.21-.93-1.35-.63-2.65-1.55-4.07-1.85-6.64-1.38-13.29-2.85-20-3.78-6.44-.89-12.99-1.78-19.46-1.59-15.04.44-29.85-1.16-44.63-3.61-2.03-.34-4.12-.28-7.05-.46.95,3.14,1.74,5.74,2.61,8.61-.29.05-1.2.26-2.11.34-3.1.26-6.21.45-9.32.69-1.97.15-3.95.46-5.92.44-1.62-.01-1.82-.9-1.22-2.41.83-2.11,1.32-4.35,2.17-7.24-3.61.21-6.41.11-9.11.59-11.77,2.06-23.46,4.77-35.29,6.33-11.4,1.5-22.96,1.86-34.37-.6-.71-.15-1.4-.36-2.08-.59-.32-.11-.59-.34-.97-.57,6.15-5.12,13.29-5.31,20.57-4.7,3.79.32,7.57,1.4,11.32,1.28,5.57-.18,11.15-.93,16.66-1.8,8.5-1.34,16.94-3.05,25.42-4.48,2.28-.39,4.64-.32,6.87-.46.3-2.97.64-5.66.82-8.35.13-1.95-.33-3.16-2.83-2.31-3.72,1.27-6.73-1.45-10.1-2.19-.99-4.28-5.34-2.41-7.68-4.72-1.4,3.22-3.88,3.5-6.5,3.51-3.08,0-5.98.24-8.88,1.78-4.39,2.33-11.56.02-13.49-4.37-.91-2.06-.46-4.71-.65-7.52-1.26.13-3,.29-4.73.5-7.62.89-14.66,3.64-21.82,6.25-7.18,2.61-14.75,4.35-22.29,5.68-9.52,1.68-18.77,3.78-27.2,8.8-2.35,1.4-5.24,1.92-7.92,2.71-.57.17-1.32-.25-1.99-.39.17-.74.13-1.64.54-2.21,2.34-3.27,6.24-3.25,9.59-4.4,1.6-.55,3.44-.81,4.74-1.77,2.58-1.92,1.9-5-1.14-5.97-6.75-2.15-13.12-1.73-19.17,2.37-1.75,1.18-4.03,1.56-6.02,2.41-1.91.81-3.91,1.54-5.58,2.72-.84.6-1.43,2.13-1.38,3.2.03.64,1.45,1.38,2.38,1.78,1.32.56,2.81.72,4.11,1.3.5.22.92,1.11.96,1.72.02.31-.83.95-1.33,1-2.33.22-4.71.6-7,.31-2.3-.3-4.51-1.29-6.73-2.05-1.86-.64-2.32-1.87-1.3-3.6,2.95-5.01,6.6-9.15,12.15-11.56,7.17-3.11,14.26-6.37,22.21-6.71,2.39-.1,4.89.15,7.2.78,3.74,1.01,7.31,2.66,11.05,3.65,1.66.44,3.6.14,5.37-.14,2.23-.35,4.43-.96,6.6-1.59,5.31-1.54,5.42-1.57,5.66-6.99.29-6.61.39-13.22.47-19.83,0-.88-.37-2.28-.98-2.56-3.75-1.77-4.93-5.35-6.52-8.66-.15-.31-.38-.59-.7-1.07-2.15,2.63-4.26,5.08-6.21,7.65-1.93,2.54-4.09,3.75-7.47,2.93-7.56-1.85-15.18-3.41-22.79-5.05-1.94-.42-3.96-.58-5.85-1.16-1.5-.46-3.13-1.09-4.23-2.14-2.12-2.02-1.56-3.98,1.03-5.23,1.5-.72,2.9-1.66,4.68-2.7-3-1.99-5.57-3.61-8.04-5.35-6.41-4.5-12.42-9.46-16.25-16.46-1.2-2.19-1.97-4.67-2.59-7.11-.56-2.17.85-3.35,2.87-3.83,2.86-.68,3.94-3.21,2.26-5.63-1.86-2.68-4.01-5.16-5.77-7.9-1.2-1.87-2.26-3.96-2.83-6.09-1.4-5.2,0-8.01,4.93-10.77-.81-1.4-1.8-2.72-2.38-4.21-.48-1.21-1.07-2.91-.58-3.86,1.19-2.32.59-4.2-.18-6.41-1.75-5.03,2.32-12.55,7.43-15.54,7.17-4.19,14.67-5.37,22.74-3.97.86.15,1.76.02,2.67.02,0-3.55-.5-7.05.1-10.34,1.4-7.67,5.47-13.86,11.88-18.39,2.47-1.75,5.24-2.38,8.26-1.59,3.75.99,7.51,1.92,11.27,2.89,2.04.53,3.52-.02,5.39-1.28,5.51-3.72,11.2-7.64,18.25-7.29,2.75.13,5.56,1.42,8.13,2.63,3.75,1.78,3.64,5.72,4.4,9.11.22.97.39,1.96.45,2.95.09,1.47.73,2.1,2.21,2.57,1.48.46,2.73,1.67,4.08,2.55-.03.28-.06.57-.09.85,1.41-.72,2.84-1.39,4.22-2.17,4.88-2.75,9.88-2.2,14.88-.5,2.45.83,4.43,2.02,5.99,4.53,1.08,1.74,4.08,2.4,6.32,3.27,3.76,1.45,3.7,1.33,2.7,5.16-.56,2.16-.72,4.42-1.16,7.24-3.86-2.34-7.53-4.49-11.13-6.75-1.75-1.11-3.27-2.61-5.06-3.63-4.74-2.7-9.37-2.86-13.9.74-3.01,2.39-5.47,1.58-7.54-1.67-.76-1.2-2.24-2.26-3.61-2.7-3.45-1.1-4.55-2.26-4.78-5.87-.08-1.26-.34-2.51-.59-3.75-.73-3.51-3.38-5.68-7.02-5.38-4.16.34-8.07,1.33-11.63,3.94-2.64,1.93-5.96,2.91-8.92,4.42-2.06,1.05-4.03,2.3-6.1,3.5-1.5-2.24-.44-3.64.83-5,1.21-1.3,2.41-2.61,4.07-4.41-5.09.3-9.45.65-13.82.8-4.92.17-7.45,3.91-11.16,6.97,1.5,1,2.68,1.72,3.78,2.54,1.27.96,2.79,1.8,3.62,3.08,1.74,2.65,1.46,3.43-1.25,5.18-1.67,1.07-2.36,2.3-1.63,4.32.31.85.32,2.06-.07,2.85-1.42,2.88-.85,5.39,1.63,8.54ZM250.68,238.05c-1.49-1.36-1.02-3.2.83-4.04,2.38-1.08,3.74-2.77,5.08-4.86,1.97-3.08,1.9-4.97-.79-7.46-.67-.61-1.46-1.59-1.42-2.38.19-4.56-1.61-8.41-4.42-11.67-3.95-4.58-1.88-9.22-.18-13.55.87-2.21.73-3.54-.61-5.06-.77-.88-1.76-1.56-2.59-2.4-1.99-2.01-1.48-4.71,1.06-5.95.46-.22.93-.54,1.22-.95,3.17-4.33,3.13-9.27,2.02-14.09-1.08-4.69-2.89-9.22-4.39-13.82-.31-.95-.49-1.98-.98-2.81-3.13-5.29-3.5-7.29-9.44-3.31-.08.05-.15.09-.23.14-3.11,1.69-4.84.73-4.92-2.81-.07-3.17.2-6.36-.07-9.51-.49-5.75-1.12-11.5-1.99-17.21-.47-3.06-1.74-3.46-4.35-2.01-2.21,1.23-3.75.73-4.31-1.9-.69-3.18-1.39-6.17-4.59-7.82-.27-.14-.38-.6-.56-.91-1.75-3.03-.43-5.48,1.52-7.79,1.57-1.86,2.04-5.66.47-6.33-3.48-1.48-3.4-4.88-4.54-7.55-.53-1.24-.07-2.97.14-4.45.21-1.53.65-3.03,1.08-4.89-5.66,1.53-5.6-3.5-8.41-6.45.13,2.38.36,3.96.25,5.51-.09,1.25-.24,3.24-.97,3.57-3.71,1.7-5.14,4.58-5.14,8.37,0,2.4-1.31,3.27-3.39,3.8-.8.2-1.99,1.06-2.03,1.69-.27,3.9-1.34,7.91,1.09,11.6.58.89.95,1.97,1.22,3.01.63,2.42-.45,4.8-2.87,5.17-4.62.7-7.11,2.76-6.38,7.71.02.1-.24.25-.5.5-.47-.22-1.1-.37-1.55-.73-1.71-1.37-3.07-.45-3.8.94-.56,1.06-.75,2.66-.4,3.81.91,3.01,2.21,5.89,3.39,8.95-2.65,3.04-3.83,3.26-7.88,1.78-1.67-.61-3.49-1.06-5.24-1.05-.98,0-2.45.9-2.81,1.76-.78,1.87-.85,4.02-1.47,5.98-.61,1.94.28,2.51,1.91,2.99,3.29.99,5.54,2.92,5.58,6.71.04,3.8.19,7.59.29,11.62-.64.08-1.72.13-2.77.36-4.26.95-8.82,1.1-11.87,5.03-1.3,1.67-3.1,2.94-4.43,4.59-1.37,1.7-2.49,3.61-3.55,5.53-.14.26.71,1.5,1.23,1.6,2.82.54,4.69,1.61,6.06,4.57,1.06,2.28.79,3.15-.69,4.75-1.25,1.36-2.84,3.33-2.68,4.88.38,3.82-.24,7.31-1.46,10.82-.97,2.78-.05,4.13,2.81,4.81,2.88.69,5.76,1.53,8.49,2.67.78.33,1.64,2.05,1.43,2.88-.62,2.51-1.62,4.96-2.71,7.31-.49,1.05-1.38,2.21-2.38,2.66-2.46,1.11-5.17,1.67-7.62,2.79-1.04.48-2.2,1.77-2.31,2.8-.08.73,1.41,1.8,2.39,2.42.67.43,1.66.35,2.07.42.33,1.54.2,3.14.85,3.58,2.47,1.7,1.81,3.59,1.4,5.98-.29,1.71.44,3.98,1.52,5.41.98,1.3,8.41.28,9.31-1.24,1.17-1.96,2.65-1.55,4.34-1.63,1.46-.06,3.82-.3,4.15-1.11.74-1.86,1.85-1.6,3.14-1.49,2.77.24,5.1,1.18,6.76,3.64.51.75,1.77,1.03,2.72,1.43.89.38,1.95.46,2.72.98,1.83,1.26,3.47,3.03,5.89,1.16.13-.1.35-.1.52-.1,4.92,0,9.62-.46,12.22-5.57.16-.32.75-.45,1.16-.61,1.42-.57,2.86-1.1,4.29-1.67,2.85-1.15,5.57-3.62,8.81-.86.11.1.36.07.53.05,4.51-.57,7.94,2.69,12.09,3.38,1.24.21,2.71.58,3.75.13,2.73-1.19,5.28-2.79,7.94-4.24ZM268.41,228.22c5.75,2.18,11.35,2.69,17,.94.68-3.3,1.4-6.47,1.97-9.67.81-4.52,1.65-9.04,2.24-13.58.47-3.66-.14-6.93-4.54-7.95-.47-.11-.92-.59-1.26-1-2.72-3.35-5.17-6.95-8.16-10.04-4.69-4.85-9.11-9.77-10.58-16.45-2.38.12-4.33.23-6.53.34-.2,2.33-.04,4.73-.69,6.9-.67,2.22-2.36,4.12-3.13,6.33-.34.98.31,2.42.77,3.54.83,2.04,2.33,3.92,2.66,6.01.3,1.9-.4,4.04-.98,5.98-.99,3.34-.71,4.59,1.99,6.55.14.1.31.21.4.36,2.16,3.84,6.68,6.38,6.38,11.61-.03.45.71.99,1.16,1.41,3.57,3.35,3.74,4.33,1.31,8.73ZM144.99,202.5c-1.04.58-2.53,1.14-3.66,2.11-2.5,2.14-4.89,1.8-7.47.26-2.62-1.57-5.29-3.05-7.32-4.22-2.17,5.86-4.37,11.83-6.59,17.78-.22.59-.74,1.15-.74,1.73-.05,6.47-.03,12.95-.03,19.7,9.34-3.82,19.42-4.29,29.56-5.02-1.27-1.14-2.59-1.87-3.89-2.63-4.06-2.35-4.04-6.93-.13-8.59,3.2-1.36,6.56-2.37,9.84-3.53.93-.33,2.35-.37,2.7-1.01.76-1.38,1.06-3.05,1.36-4.64.07-.35-.56-1.14-.99-1.24-2.7-.63-5.4-1.35-8.15-1.61-2.84-.27-4.33-1.57-4.49-4.35-.09-1.57-.02-3.16-.02-4.74ZM251.39,344.24c-3.54-2-4.45-1.58-4.7,2.29-.12,1.86.02,3.83.55,5.6.3,1,1.57,2.3,2.52,2.42,4.46.52,9.05,1.38,13.41.78,5.51-.76,10.89-1.49,16.44-.76,2.15.28,4.33.31,6.5.31,4.16-.01,4.17-.08,4.11-4.14,0-.27.2-.57.13-.79-.86-2.47-1.7-4.95-2.67-7.37-.16-.39-.89-.55-1.37-.8-1.94-1.01-3.97-1.87-5.8-3.05-3.17-2.04-6.03-1.74-8.55,1.03-.63.7-1.59,1.1-2.48,1.68q-1.3-3.05-6.14-4.95-3.81-1.5-6.43,1.76c-.2.25-.51.58-.77.58-3.5,0-4.18,2.57-4.77,5.44ZM287.41,159.09c0,6.75-.04,12.71,0,18.66.06,7.34,4.22,12.09,10.08,15.88,1.36-2.63,2.77-5.06,3.83-7.63.28-.68-.23-2.14-.86-2.64-1.88-1.49-2.01-3.1-.92-4.99.72-1.25,1.58-2.43,2.32-3.67,3.37-5.69,5.47-11.72,4.93-18.97-2.79,1.6-5.36,2.88-7.71,4.48-2.03,1.39-3.98,1.43-6.15.62-1.5-.56-3.04-.97-5.52-1.74ZM117.35,195.98c-4.28-.37-7.72.1-10.89,2.2-1.29.86-1.45,1.54-1.04,3.06,1.29,4.81,3.83,8.7,8.21,11.99,1.22-5.67,2.45-11.36,3.72-17.26ZM281.77,158.91c-3.26,4.13-6.15,7.8-9.42,11.96,2.7,3.17,5.93,6.97,9.17,10.76l.9-.34c0-3.69.08-7.38-.02-11.07-.1-3.63-.39-7.25-.62-11.3Z"/>
    <path class="st1" d="M320.55,95.47c-7.58,3.62-14.66,7.01-21.49,10.27.48-2.4,1.07-5.35,1.66-8.3-.24-.2-.47-.41-.71-.61-1.1.58-2.35.98-3.27,1.77-3.02,2.6-5.92,5.34-8.87,8.03-.54.49-1.01,1.23-1.63,1.39-.92.24-2.26.44-2.85-.04-.5-.41-.58-2.08-.15-2.72,1.31-1.93,2.79-3.82,4.52-5.39,3.68-3.35,7.39-6.7,11.39-9.64,3.19-2.34,7.18-.85,8.52,2.86.54,1.5,1.37,1.89,2.64,1.21,7.87-4.24,15.72-8.53,23.55-12.83,1.19-.65,2.33-1.39,3.41-2.21,3.09-2.34,2.88-6.29-.63-7.87-2.77-1.25-5.75-2.25-8.74-2.77-6.73-1.16-11.13-6.19-16.57-9.48-.53-.32-.57-1.6-.69-2.45-.34-2.41-.35-4.89-.95-7.23-.93-3.68-2.76-4.81-6.43-3.78-2.83.79-5.49,2.21-8.19,3.42-1.18.53-2.28,1.24-3.66,1.56,1.13-3.33,3.26-5.73,6.3-7.27,1.93-.98,3.94-1.85,5.96-2.65,4.71-1.84,8.04,1.09,11.19,3.7,3.71,3.07,5.56,7.37,5.91,12.14.16,2.2,1.14,3.63,2.95,4.45,2.46,1.12,5.01,2.05,7.57,2.94,1.45.5,2.96.92,4.48,1.11,7.55.93,10.8,6.15,12.72,12.66,1.08,3.66-1.45,7.75-5.31,8.79-3.94,1.06-5.2,2.52-5.6,6.6-.38,3.84-.72,7.69-1.1,11.79,1.59.18,2.64.3,3.68.4,8.65.83,15.62,4.36,19.89,12.29.9,1.66,2.22,3.17,2.78,4.93,1.27,3.99-.18,7.24-3.93,10.12-.8.62-1.36,1.56-1.81,2.09,4.86.51,9.38.84,13.85,1.5,2.23.33,4.59,1.04,4.6,4.06.01,2.88-1.98,5.28-4.49,6.32-8.21,3.39-16.46,6.78-22.44,13.8-.69.81-1.59,1.79-1.64,2.72-.15,2.95-2.09,4.02-4.4,4.83-2.47.86-4.92,1.88-7.47,2.4-4.14.85-9.28-3.04-9.79-7.17-.07-.55.21-1.15.32-1.7.48,0,.86-.11.99.02,3.15,3.2,6.3,1.82,9.29-.14,2.64-1.74,5.36-3.49,7.57-5.7,4.84-4.85,10.33-8.45,16.82-10.65,2.37-.8,4.58-2.07,6.86-3.13-.04-.23-.09-.46-.13-.69-1.27,0-2.55-.08-3.82.01-5.68.41-11.37.77-16.58,3.52-.68.36-1.8-.11-2.72-.2.21-1.1.09-2.42.68-3.25,1.57-2.2,3.59-4.08,5.15-6.28,3.19-4.5,3.23-9.79,2.64-14.87-.47-4.05-4.54-6.68-8.73-6.67-2.89.01-5.8.33-8.68.12-9.42-.69-14.53-6.43-14.34-15.86,0-.45-.05-.89-.12-2.25Z"/>
    <path class="st1" d="M281.24,64.39c4.07,3.32,3.55,6.41.82,9.62-.97,1.14-1.53,2.63-2.47,3.81-.48.61-1.72,1.42-2.03,1.22-.89-.57-1.95-1.53-2.11-2.48-.29-1.75.05-3.6.05-5.41,0-2.93-1-4.09-3.94-3.81-7.93.75-14.2,4.65-18.75,11.05-1.69,2.37-3.17,4.66-5.65,6.4-1.4.99-2.14,3.2-2.73,5-1.11,3.36-2.08,3.82-5.02,1.84-4.57-3.07-4.62-3.89-2.74-9.21,2.38-6.72,7.97-9.94,13.49-13.4,3.42-2.15,7.01-3.53,11-4.3,3.78-.73,7.34-2.51,11.1-3.39,1.67-.39,3.8-.14,5.36.59,2.17,1.03,3.47.57,5.26-.8,3.92-3,8.09-5.68,12.21-8.4,1.11-.73,2.51-1.5,3.48.27.94,1.71.53,3.33-1.12,4.2-1.82.95-3.91,1.36-5.79,2.21-3.27,1.47-6.48,3.09-10.43,5Z"/>
    <path class="st1" d="M123.1,176.23c.05,2.61-.8,3.61-2.98,3.08-1.48-.36-2.98-.68-4.47-1.01-5.36-1.19-9.84.91-14.18,3.71-3.41,2.2-6.89,4.3-10.41,6.31-.58.33-1.56-.03-2.35-.07.09-.8-.12-2,.33-2.35,5.71-4.42,11.09-9.55,17.43-12.77,4.54-2.31,10.26-.56,15.27,1.2.08.03.18.08.22.15.47.71.94,1.43,1.15,1.75Z"/>
    <path class="st1" d="M68.76,120.36c-.63.63-1.17,1.43-1.92,1.87-2.09,1.22-4.17,2.62-6.44,3.35-3.81,1.22-5.26,4.17-6.44,7.48-.43,1.19-.6,2.49-1.16,3.61-.45.89-1.25,2.12-1.99,2.19-.78.08-1.92-.87-2.48-1.67-1.94-2.79-1.57-7.61.96-10.09,5.25-5.15,12.18-6.14,18.87-7.66.2.31.4.62.61.93Z"/>
    <path class="st1" d="M101.8,103.22c2.28,1.01,4.83,5.63,4.27,7.81-.15.59-.81,1.2-1.39,1.5-3.29,1.66-6.59,3.33-9.98,4.75-.73.31-2.11-.15-2.77-.73-.37-.33-.17-1.9.3-2.46,3.12-3.7,6.39-7.28,9.57-10.86Z"/>
    <path class="st0" d="M250.68,238.05c-2.65,1.45-5.21,3.05-7.94,4.24-1.04.45-2.51.07-3.75-.13-4.15-.69-7.58-3.96-12.09-3.38-.18.02-.42.04-.53-.05-3.24-2.75-5.95-.28-8.81.86-1.42.57-2.86,1.1-4.29,1.67-.41.16-1,.29-1.16.61-2.6,5.12-7.3,5.58-12.22,5.57-.18,0-.4,0-.52.1-2.43,1.87-4.06.09-5.89-1.16-.77-.53-1.83-.61-2.72-.98-.95-.4-2.21-.68-2.72-1.43-1.66-2.46-4-3.4-6.76-3.64-1.29-.11-2.39-.37-3.14,1.49-.32.81-2.69,1.05-4.15,1.11-1.69.07-3.17-.33-4.34,1.63-.91,1.52-8.34,2.54-9.31,1.24-1.07-1.43-1.81-3.7-1.52-5.41.41-2.39,1.07-4.28-1.4-5.98-.66-.45-.52-2.05-.85-3.58-.4-.07-1.4.01-2.07-.42-.98-.62-2.46-1.69-2.39-2.42.11-1.03,1.27-2.32,2.31-2.8,2.45-1.13,5.16-1.69,7.62-2.79,1-.45,1.9-1.61,2.38-2.66,1.09-2.36,2.1-4.8,2.71-7.31.2-.83-.65-2.55-1.43-2.88-2.73-1.14-5.6-1.99-8.49-2.67-2.86-.68-3.77-2.04-2.81-4.81,1.22-3.5,1.85-7,1.46-10.82-.16-1.54,1.43-3.52,2.68-4.88,1.48-1.6,1.75-2.47.69-4.75-1.37-2.96-3.24-4.03-6.06-4.57-.52-.1-1.37-1.35-1.23-1.6,1.05-1.92,2.18-3.83,3.55-5.53,1.33-1.65,3.13-2.92,4.43-4.59,3.06-3.93,7.62-4.08,11.87-5.03,1.04-.23,2.13-.28,2.77-.36-.11-4.03-.25-7.83-.29-11.62-.04-3.79-2.29-5.72-5.58-6.71-1.62-.49-2.52-1.05-1.91-2.99.62-1.95.69-4.11,1.47-5.98.36-.86,1.84-1.76,2.81-1.76,1.75-.01,3.58.44,5.24,1.05,4.06,1.47,5.24,1.26,7.88-1.78-1.19-3.05-2.48-5.94-3.39-8.95-.35-1.15-.16-2.75.4-3.81.74-1.39,2.09-2.32,3.8-.94.45.36,1.08.52,1.55.73.27-.26.52-.4.5-.5-.73-4.95,1.76-7.01,6.38-7.71,2.42-.37,3.51-2.75,2.87-5.17-.27-1.04-.63-2.12-1.22-3.01-2.43-3.69-1.36-7.7-1.09-11.6.04-.63,1.23-1.48,2.03-1.69,2.08-.53,3.39-1.4,3.39-3.8,0-3.79,1.42-6.67,5.14-8.37.73-.33.88-2.32.97-3.57.11-1.55-.12-3.13-.25-5.51,2.81,2.94,2.75,7.97,8.41,6.45-.42,1.87-.87,3.36-1.08,4.89-.2,1.48-.67,3.21-.14,4.45,1.14,2.67,1.06,6.07,4.54,7.55,1.57.67,1.1,4.46-.47,6.33-1.95,2.31-3.26,4.76-1.52,7.79.18.31.29.77.56.91,3.2,1.65,3.9,4.64,4.59,7.82.57,2.63,2.1,3.13,4.31,1.9,2.61-1.45,3.88-1.05,4.35,2.01.88,5.7,1.5,11.45,1.99,17.21.27,3.15,0,6.34.07,9.51.08,3.54,1.82,4.5,4.92,2.81.08-.04.16-.09.23-.14,5.93-3.97,6.3-1.98,9.44,3.31.5.84.67,1.87.98,2.81,1.49,4.6,3.3,9.13,4.39,13.82,1.11,4.82,1.16,9.76-2.02,14.09-.29.4-.76.72-1.22.95-2.53,1.24-3.04,3.94-1.06,5.95.83.84,1.82,1.52,2.59,2.4,1.34,1.52,1.47,2.84.61,5.06-1.7,4.33-3.76,8.97.18,13.55,2.81,3.27,4.6,7.12,4.42,11.67-.03.78.76,1.76,1.42,2.38,2.7,2.49,2.77,4.38.79,7.46-1.34,2.1-2.69,3.79-5.08,4.86-1.86.84-2.32,2.68-.83,4.04Z"/>
    <path class="st0" d="M268.41,228.22c2.43-4.39,2.27-5.38-1.31-8.73-.45-.42-1.19-.96-1.16-1.41.31-5.23-4.22-7.77-6.38-11.61-.08-.15-.25-.26-.4-.36-2.7-1.96-2.98-3.21-1.99-6.55.58-1.94,1.28-4.08.98-5.98-.33-2.09-1.83-3.97-2.66-6.01-.46-1.12-1.11-2.56-.77-3.54.78-2.2,2.47-4.11,3.13-6.33.65-2.16.49-4.57.69-6.9,2.2-.12,4.16-.22,6.53-.34,1.47,6.68,5.89,11.6,10.58,16.45,2.99,3.09,5.44,6.69,8.16,10.04.33.41.78.89,1.26,1,4.41,1.02,5.02,4.29,4.54,7.95-.59,4.55-1.42,9.07-2.24,13.58-.58,3.2-1.3,6.37-1.97,9.67-5.65,1.76-11.25,1.25-17-.94Z"/>
    <path class="st0" d="M144.99,202.5c0,1.58-.07,3.16.02,4.74.16,2.79,1.65,4.08,4.49,4.35,2.74.26,5.45.98,8.15,1.61.42.1,1.05.89.99,1.24-.3,1.59-.6,3.25-1.36,4.64-.35.64-1.77.68-2.7,1.01-3.29,1.16-6.64,2.17-9.84,3.53-3.91,1.67-3.93,6.25.13,8.59,1.3.75,2.62,1.49,3.89,2.63-10.14.73-20.23,1.2-29.56,5.02,0-6.75-.02-13.23.03-19.7,0-.58.52-1.14.74-1.73,2.22-5.96,4.42-11.92,6.59-17.78,2.03,1.17,4.7,2.65,7.32,4.22,2.57,1.54,4.97,1.88,7.47-.26,1.13-.97,2.63-1.53,3.66-2.11Z"/>
    <path class="st0" d="M251.39,344.24c.59-2.86,1.27-5.43,4.77-5.44.26,0,.57-.33.77-.58q2.62-3.26,6.43-1.76,4.83,1.91,6.14,4.95c.88-.59,1.84-.99,2.48-1.68,2.52-2.77,5.38-3.08,8.55-1.03,1.83,1.18,3.86,2.04,5.8,3.05.48.25,1.21.41,1.37.8.97,2.43,1.82,4.9,2.67,7.37.08.22-.13.53-.13.79.06,4.06.04,4.12-4.11,4.14-2.17,0-4.36-.03-6.5-.31-5.54-.73-10.93,0-16.44.76-4.36.6-8.96-.26-13.41-.78-.95-.11-2.22-1.41-2.52-2.42-.53-1.77-.68-3.74-.55-5.6.25-3.87,1.17-4.29,4.7-2.29Z"/>
    <path class="st0" d="M287.41,159.09c2.48.77,4.03,1.19,5.52,1.74,2.18.81,4.12.77,6.15-.62,2.35-1.61,4.92-2.88,7.71-4.48.54,7.25-1.55,13.28-4.93,18.97-.74,1.24-1.6,2.42-2.32,3.67-1.09,1.89-.95,3.5.92,4.99.63.5,1.14,1.97.86,2.64-1.06,2.57-2.47,5-3.83,7.63-5.86-3.8-10.02-8.54-10.08-15.88-.04-5.95,0-11.91,0-18.66Z"/>
    <path class="st0" d="M117.35,195.98c-1.27,5.9-2.5,11.58-3.72,17.26-4.38-3.29-6.92-7.19-8.21-11.99-.41-1.52-.25-2.2,1.04-3.06,3.18-2.1,6.61-2.57,10.89-2.2Z"/>
    <path class="st0" d="M281.77,158.91c.23,4.05.52,7.67.62,11.3.1,3.69.02,7.38.02,11.07l-.9.34c-3.23-3.79-6.46-7.59-9.17-10.76,3.27-4.16,6.16-7.82,9.42-11.96Z"/>
  </g>
  <g>
    <path d="M5.54,434.66c0-6.08,4.43-14.66,14.78-14.66,8.44,0,14.74,5.33,14.74,14.06s-5.93,15.34-14.96,15.34c-10.28,0-14.55-7.99-14.55-14.74ZM31.46,435.11c0-9-5.48-13.84-11.4-13.84-6.26,0-10.95,4.13-10.95,12.34,0,8.74,5.25,14.36,12,14.36,3.38,0,10.35-1.95,10.35-12.86Z"/>
    <path d="M44.66,424.09c-.83-2.1-1.39-2.51-2.7-2.89-.56-.15-1.2-.15-1.43-.15s-.3-.11-.3-.26c0-.22.37-.26.98-.26,1.8,0,3.83.11,4.28.11.37,0,1.99-.11,3.41-.11.68,0,1.01.08,1.01.26s-.11.26-.38.26c-.41,0-1.09.04-1.43.19-.41.19-.49.49-.49.75,0,.34.34,1.35.75,2.4l7.65,19.91c2.18-5.03,7.2-18.11,8.03-20.81.19-.56.34-1.09.34-1.43,0-.3-.11-.68-.49-.86-.45-.15-1.01-.15-1.43-.15-.23,0-.41-.04-.41-.23,0-.23.23-.3.83-.3,1.5,0,3.23.11,3.68.11.22,0,1.84-.11,2.93-.11.41,0,.64.08.64.26s-.15.26-.45.26c-.26,0-1.09,0-1.8.45-.49.34-1.05.98-2.06,3.53-.41,1.05-2.29,5.55-4.2,10.16-2.29,5.48-3.98,9.53-4.84,11.36-1.05,2.25-1.2,2.85-1.58,2.85-.45,0-.64-.53-1.35-2.33l-9.19-22.99Z"/>
    <path d="M79.43,431.4c0-5.85,0-6.9-.08-8.1-.07-1.28-.37-1.88-1.61-2.14-.26-.07-.75-.07-1.09-.11-.26-.04-.49-.08-.49-.23,0-.23.19-.3.6-.3.86,0,1.88,0,4.24.11.26,0,7.73,0,8.59-.04.83-.04,1.5-.11,1.73-.23.22-.11.3-.15.41-.15s.15.15.15.34c0,.26-.23.71-.3,1.76-.04.56-.07,1.28-.15,2.25-.04.38-.15.64-.3.64-.22,0-.3-.19-.3-.49,0-.49-.07-.94-.19-1.24-.26-.86-1.05-1.24-2.7-1.39-.64-.07-4.73-.11-5.14-.11-.15,0-.23.11-.23.38v10.35c0,.26.04.38.23.38.49,0,5.1,0,5.96-.08,1.01-.07,1.5-.19,1.88-.64.19-.23.3-.38.45-.38.11,0,.19.07.19.3s-.19.86-.3,2.1c-.11,1.16-.11,2.03-.15,2.55-.04.37-.11.56-.26.56-.22,0-.26-.3-.26-.6,0-.34-.04-.71-.15-1.05-.15-.56-.6-1.09-1.95-1.24-1.01-.11-4.73-.19-5.36-.19-.19,0-.26.11-.26.26v3.3c0,1.28-.04,5.63,0,6.41.07,1.54.3,2.36,1.24,2.74.64.26,1.65.34,3.11.34,1.13,0,2.36-.04,3.38-.34,1.2-.37,1.61-1.16,1.91-2.78.07-.41.15-.56.34-.56.22,0,.22.3.22.56,0,.3-.3,2.85-.49,3.64-.26.98-.56.98-2.03.98-2.78,0-4.01-.07-5.48-.11-1.5-.04-3.22-.11-4.69-.11-.9,0-1.8.15-2.78.11-.41,0-.6-.07-.6-.3,0-.11.19-.19.41-.23.38-.04.6-.04.86-.11.79-.19,1.27-.71,1.35-3.53.04-1.46.08-3.38.08-6.71v-6.6Z"/>
    <path d="M105.23,431.4c0-5.85,0-6.9-.07-8.1-.07-1.28-.38-1.88-1.61-2.14-.3-.07-.94-.11-1.28-.11-.15,0-.3-.08-.3-.23,0-.23.19-.3.6-.3,1.69,0,4.05.11,4.24.11.41,0,3.26-.11,4.43-.11,2.36,0,4.88.23,6.86,1.65.94.68,2.59,2.51,2.59,5.1,0,2.78-1.16,5.55-4.54,8.66,3.08,3.94,5.63,7.28,7.8,9.6,2.03,2.14,3.64,2.55,4.58,2.7.71.11,1.24.11,1.46.11.19,0,.34.11.34.23,0,.23-.23.3-.9.3h-2.66c-2.1,0-3.04-.19-4.01-.71-1.61-.86-2.93-2.7-5.06-5.51-1.58-2.06-3.34-4.58-4.09-5.55-.15-.15-.26-.23-.49-.23l-4.61-.07c-.19,0-.26.11-.26.3v.9c0,3.6,0,6.56.19,8.14.11,1.09.34,1.91,1.46,2.06.53.07,1.35.15,1.69.15.22,0,.3.11.3.23,0,.19-.19.3-.6.3-2.06,0-4.43-.11-4.61-.11-.04,0-2.4.11-3.53.11-.41,0-.6-.07-.6-.3,0-.11.07-.23.3-.23.34,0,.79-.07,1.12-.15.75-.15.94-.98,1.09-2.06.19-1.58.19-4.54.19-8.14v-6.6ZM108.23,434.66c0,.19.08.34.26.45.56.34,2.29.6,3.94.6.9,0,1.95-.11,2.81-.71,1.31-.9,2.29-2.93,2.29-5.78,0-4.69-2.48-7.5-6.49-7.5-1.13,0-2.14.11-2.51.23-.19.08-.3.23-.3.45v12.26Z"/>
    <path d="M140.42,438.08c0,5.51.15,7.91.83,8.59.6.6,1.58.86,4.5.86,1.99,0,3.64-.04,4.54-1.13.49-.6.86-1.54.98-2.25.04-.3.11-.49.34-.49.19,0,.23.15.23.56s-.26,2.66-.56,3.75c-.26.86-.37,1.01-2.36,1.01-3.23,0-6.41-.23-10.05-.23-1.16,0-2.29.11-3.68.11-.41,0-.6-.07-.6-.3,0-.11.07-.23.3-.23.34,0,.79-.07,1.12-.15.75-.15.94-.98,1.09-2.06.19-1.58.19-4.54.19-8.14v-6.6c0-5.85,0-6.9-.08-8.1-.07-1.28-.37-1.88-1.61-2.14-.3-.07-.94-.11-1.28-.11-.15,0-.3-.08-.3-.23,0-.23.19-.3.6-.3,1.69,0,4.05.11,4.24.11s2.93-.11,4.05-.11c.41,0,.6.08.6.3,0,.15-.15.23-.3.23-.26,0-.79.04-1.24.11-1.09.19-1.39.82-1.46,2.14-.07,1.2-.07,2.25-.07,8.1v6.68Z"/>
    <path d="M166.67,437.81c-.19,0-.3.11-.38.3l-2.25,6.64c-.34.94-.53,1.84-.53,2.51,0,.75.71,1.09,1.35,1.09h.34c.37,0,.49.08.49.23,0,.23-.34.3-.67.3-.9,0-2.4-.11-2.81-.11s-2.48.11-4.24.11c-.49,0-.71-.07-.71-.3,0-.15.19-.23.53-.23.26,0,.6-.04.9-.07,1.73-.23,2.48-1.65,3.15-3.53l8.51-23.29c.45-1.24.6-1.46.83-1.46s.37.19.82,1.35c.56,1.43,6.45,16.91,8.74,22.61,1.35,3.34,2.44,3.94,3.23,4.16.56.19,1.16.23,1.46.23.23,0,.41.04.41.23,0,.23-.34.3-.75.3-.56,0-3.3,0-5.89-.07-.71-.04-1.12-.04-1.12-.26,0-.15.11-.23.26-.26.23-.07.45-.41.23-1.01l-3.49-9.23c-.07-.15-.15-.23-.34-.23h-8.06ZM174.25,436.46c.19,0,.19-.11.15-.26l-3.56-10.13c-.19-.56-.37-.56-.56,0l-3.3,10.13c-.07.19,0,.26.11.26h7.16Z"/>
    <path d="M193.34,437.81c0-13.54.07-8.66.04-15.94,0-1.46.11-1.88.41-1.88s.94.83,1.31,1.2c.56.64,6.15,6.68,11.93,12.86,3.71,3.98,7.8,8.55,9,9.79l-.41-19.05c-.04-2.44-.3-3.26-1.46-3.56-.68-.15-1.28-.19-1.61-.19-.41,0-.53-.11-.53-.26,0-.22.3-.26.75-.26,1.69,0,3.49.11,3.9.11s1.65-.11,3.19-.11c.41,0,.67.04.67.26,0,.15-.15.23-.41.26-.3.04-.53.07-.98.15-1.05.23-1.31.79-1.31,3.38l-.07,21.9c0,2.48-.07,2.66-.34,2.66-.3,0-.75-.41-2.74-2.4-.41-.38-5.81-5.89-9.79-10.16-4.35-4.69-8.59-9.41-9.79-10.76l.49,17.96c.07,3.08.45,4.05,1.46,4.35.71.19,1.54.23,1.88.23.19,0,.3.08.3.23,0,.23-.23.3-.68.3-2.14,0-3.64-.11-3.98-.11s-1.91.11-3.6.11c-.38,0-.6-.04-.6-.3,0-.15.11-.23.3-.23.3,0,.98-.04,1.54-.23.94-.26,1.12-1.35,1.12-4.76v-5.55Z"/>
    <path d="M233.85,431.4c0-5.85,0-6.9-.07-8.1-.07-1.28-.26-1.88-1.5-2.14-.3-.07-.94-.11-1.28-.11-.26,0-.41-.08-.41-.23,0-.23.19-.3.6-.3,1.69,0,4.05.11,4.24.11.45,0,2.81-.11,5.06-.11,3.71,0,10.58-.34,15.04,4.28,1.88,1.95,3.64,5.06,3.64,9.53,0,4.73-1.95,8.36-4.05,10.58-1.61,1.69-4.99,4.31-11.36,4.31-1.61,0-3.6-.11-5.21-.23-1.65-.11-2.93-.23-3.11-.23-.07,0-.71,0-1.5.04-.75,0-1.61.07-2.17.07-.41,0-.6-.07-.6-.3,0-.11.07-.23.38-.23.41-.04.71-.07,1.05-.15.75-.15.94-.98,1.09-2.06.19-1.58.19-4.54.19-8.14v-6.6ZM237,435.45c0,3.98.04,7.43.08,8.14.04.94.11,2.44.41,2.85.49.71,1.95,1.5,6.38,1.5,3.49,0,6.71-1.28,8.93-3.49,1.95-1.91,3-5.51,3-8.96,0-4.76-2.06-7.84-3.6-9.45-3.53-3.71-7.8-4.24-12.26-4.24-.75,0-2.14.11-2.44.26-.34.15-.45.34-.45.75-.04,1.28-.04,5.1-.04,7.99v4.65Z"/>
    <path d="M287.93,431.4c0-5.85,0-6.9-.07-8.1-.07-1.28-.38-1.88-1.61-2.14-.3-.07-.94-.11-1.28-.11-.15,0-.3-.08-.3-.23,0-.23.19-.3.6-.3,1.69,0,3.94.11,4.24.11.83,0,3-.11,4.73-.11,4.69,0,6.38,1.58,6.98,2.14.82.79,1.87,2.48,1.87,4.91,0,4.88-3.9,8.48-9.23,8.48-.19,0-.6,0-.79-.04-.19,0-.41-.07-.41-.26,0-.3.22-.34,1.01-.34,3.64,0,6.49-2.48,6.49-6.41,0-.94-.11-3.45-2.1-5.48-1.99-2.03-4.28-1.88-5.14-1.88-.64,0-1.28.07-1.61.23-.23.07-.3.34-.3.71v15.41c0,3.6,0,6.56.19,8.14.11,1.09.34,1.91,1.46,2.06.53.07,1.35.15,1.69.15.22,0,.3.11.3.23,0,.19-.19.3-.6.3-2.06,0-4.43-.11-4.61-.11-.11,0-2.48.11-3.6.11-.41,0-.6-.07-.6-.3,0-.11.07-.23.3-.23.34,0,.79-.07,1.12-.15.75-.15.94-.98,1.09-2.06.19-1.58.19-4.54.19-8.14v-6.6Z"/>
    <path d="M315.16,437.81c-.19,0-.3.11-.37.3l-2.25,6.64c-.34.94-.53,1.84-.53,2.51,0,.75.71,1.09,1.35,1.09h.34c.38,0,.49.08.49.23,0,.23-.34.3-.67.3-.9,0-2.4-.11-2.81-.11s-2.48.11-4.24.11c-.49,0-.71-.07-.71-.3,0-.15.19-.23.53-.23.26,0,.6-.04.9-.07,1.73-.23,2.48-1.65,3.15-3.53l8.51-23.29c.45-1.24.6-1.46.83-1.46s.38.19.83,1.35c.56,1.43,6.45,16.91,8.74,22.61,1.35,3.34,2.44,3.94,3.23,4.16.56.19,1.16.23,1.46.23.22,0,.41.04.41.23,0,.23-.34.3-.75.3-.56,0-3.3,0-5.89-.07-.71-.04-1.13-.04-1.13-.26,0-.15.11-.23.26-.26.23-.07.45-.41.23-1.01l-3.49-9.23c-.07-.15-.15-.23-.34-.23h-8.06ZM322.74,436.46c.19,0,.19-.11.15-.26l-3.56-10.13c-.19-.56-.38-.56-.56,0l-3.3,10.13c-.07.19,0,.26.11.26h7.16Z"/>
    <path d="M343.44,431.4c0-5.85,0-6.9-.07-8.1-.07-1.28-.38-1.88-1.61-2.14-.3-.07-.94-.11-1.28-.11-.15,0-.3-.08-.3-.23,0-.23.19-.3.6-.3,1.69,0,4.05.11,4.24.11.41,0,3.26-.11,4.43-.11,2.36,0,4.88.23,6.86,1.65.94.68,2.59,2.51,2.59,5.1,0,2.78-1.16,5.55-4.54,8.66,3.08,3.94,5.63,7.28,7.8,9.6,2.03,2.14,3.64,2.55,4.58,2.7.71.11,1.24.11,1.46.11.19,0,.34.11.34.23,0,.23-.23.3-.9.3h-2.66c-2.1,0-3.04-.19-4.01-.71-1.61-.86-2.93-2.7-5.06-5.51-1.58-2.06-3.34-4.58-4.09-5.55-.15-.15-.26-.23-.49-.23l-4.61-.07c-.19,0-.26.11-.26.3v.9c0,3.6,0,6.56.19,8.14.11,1.09.34,1.91,1.46,2.06.53.07,1.35.15,1.69.15.22,0,.3.11.3.23,0,.19-.19.3-.6.3-2.06,0-4.43-.11-4.61-.11-.04,0-2.4.11-3.53.11-.41,0-.6-.07-.6-.3,0-.11.07-.23.3-.23.34,0,.79-.07,1.12-.15.75-.15.94-.98,1.09-2.06.19-1.58.19-4.54.19-8.14v-6.6ZM346.44,434.66c0,.19.07.34.26.45.56.34,2.29.6,3.94.6.9,0,1.95-.11,2.81-.71,1.31-.9,2.29-2.93,2.29-5.78,0-4.69-2.48-7.5-6.49-7.5-1.13,0-2.14.11-2.51.23-.19.08-.3.23-.3.45v12.26Z"/>
    <path d="M378.47,433.8c1.16-1.13,6.26-6.49,8.55-8.85,2.25-2.33,2.4-2.7,2.4-3.15,0-.3-.19-.6-.49-.71-.26-.11-.34-.19-.34-.34s.23-.23.56-.23c1.09,0,.98.11,2.25.11,1.16,0,3.38-.11,3.98-.11.53,0,.64.11.64.26s-.07.23-.41.26c-.71.07-1.39.22-1.91.45-.94.38-1.65.83-3.9,3-3.3,3.19-7.58,7.43-8.55,8.51,2.36,2.59,9.19,9.53,10.95,11.18,3.08,2.89,4.39,3.71,6.19,4.05.34.07.71.11,1.09.11.3,0,.53.08.53.26s-.15.26-.56.26h-2.77c-3.26,0-4.13-.41-5.89-1.8-2.25-1.76-9-9-12.3-12.94v3.86c0,3.6,0,6.56.19,8.14.11,1.09.34,1.91,1.46,2.06.53.07,1.27.15,1.5.15.34,0,.45.15.45.26,0,.19-.15.26-.56.26-2.06,0-4.43-.11-4.61-.11s-2.4.11-3.53.11c-.41,0-.6-.04-.6-.26,0-.11.07-.26.41-.26.22,0,.64-.04.98-.11.75-.15.98-1.01,1.12-2.1.19-1.58.19-4.54.19-8.14v-6.6c0-5.85,0-6.9-.07-8.1-.07-1.28-.45-1.91-1.28-2.1-.41-.11-1.09-.15-1.35-.15-.3,0-.41-.08-.41-.23,0-.23.19-.3.6-.3,1.24,0,3.75.11,3.94.11s2.55-.11,3.68-.11c.41,0,.6.08.6.26,0,.15-.07.23-.41.26-.41.04-.45.04-.82.07-1.01.11-1.31.86-1.39,2.18-.07,1.2-.07,2.25-.07,8.1v2.4Z"/>
    <path d="M12.84,480.43c-.26,0-.41.15-.51.41l-3.07,9.05c-.46,1.28-.72,2.51-.72,3.43,0,1.02.97,1.48,1.84,1.48h.46c.51,0,.66.1.66.31,0,.31-.46.41-.92.41-1.23,0-3.27-.15-3.84-.15s-3.38.15-5.78.15c-.66,0-.97-.1-.97-.41,0-.2.26-.31.72-.31.36,0,.82-.05,1.23-.1,2.35-.31,3.38-2.25,4.3-4.81l11.61-31.76c.61-1.69.82-1.99,1.12-1.99s.51.26,1.13,1.84c.77,1.94,8.8,23.07,11.92,30.84,1.84,4.55,3.32,5.37,4.4,5.68.77.26,1.59.31,1.99.31.31,0,.56.05.56.31,0,.31-.46.41-1.02.41-.77,0-4.5,0-8.03-.1-.97-.05-1.53-.05-1.53-.36,0-.2.15-.31.36-.36.31-.1.61-.56.31-1.38l-4.76-12.58c-.1-.2-.2-.31-.46-.31h-11ZM23.17,478.59c.26,0,.26-.15.2-.36l-4.86-13.81c-.26-.77-.51-.77-.77,0l-4.5,13.81c-.1.26,0,.36.15.36h9.77Z"/>
    <path d="M51.4,471.69c0-7.98,0-9.41-.1-11.05-.1-1.74-.51-2.56-2.2-2.92-.41-.1-1.28-.15-1.74-.15-.2,0-.41-.1-.41-.31,0-.31.26-.41.82-.41,2.3,0,5.52.15,5.78.15.56,0,4.45-.15,6.03-.15,3.22,0,6.65.31,9.36,2.25,1.28.92,3.53,3.43,3.53,6.96,0,3.78-1.58,7.57-6.19,11.81,4.19,5.37,7.67,9.92,10.64,13.09,2.76,2.92,4.96,3.48,6.24,3.68.97.15,1.69.15,1.99.15.26,0,.46.15.46.31,0,.31-.31.41-1.23.41h-3.63c-2.86,0-4.14-.26-5.47-.97-2.2-1.18-3.99-3.68-6.9-7.52-2.15-2.81-4.55-6.24-5.57-7.57-.2-.2-.36-.31-.66-.31l-6.29-.1c-.26,0-.36.15-.36.41v1.23c0,4.91,0,8.95.26,11.1.15,1.48.46,2.61,1.99,2.81.72.1,1.84.2,2.3.2.31,0,.41.15.41.31,0,.26-.26.41-.82.41-2.81,0-6.03-.15-6.29-.15-.05,0-3.27.15-4.81.15-.56,0-.82-.1-.82-.41,0-.15.1-.31.41-.31.46,0,1.07-.1,1.53-.2,1.02-.2,1.28-1.33,1.48-2.81.26-2.15.26-6.19.26-11.1v-9ZM55.49,476.14c0,.26.1.46.36.61.77.46,3.12.82,5.37.82,1.23,0,2.66-.15,3.84-.97,1.79-1.23,3.12-3.99,3.12-7.88,0-6.39-3.38-10.23-8.85-10.23-1.53,0-2.92.15-3.43.31-.26.1-.41.31-.41.61v16.72Z"/>
    <path d="M95.08,471.69c0-7.98,0-9.41-.1-11.05-.1-1.74-.51-2.56-2.2-2.92-.41-.1-1.28-.15-1.48-.15-.46,0-.66-.1-.66-.31,0-.31.26-.41.82-.41,2.3,0,5.52.15,5.78.15,1.23,0,3.22-.15,5.57-.15,8.39,0,10.23,5.11,10.23,7.67,0,4.19-2.4,6.7-4.81,9.21,3.78,1.18,8.85,4.81,8.85,10.79,0,5.47-4.3,11.15-13.04,11.15-.56,0-2.2-.1-3.68-.15-1.48-.1-2.92-.15-3.12-.15-1.64,0-3.22.15-5.01.15-.56,0-.82-.1-.82-.36,0-.15.1-.36.77-.36.41,0,.77-.05,1.23-.15,1.02-.2,1.23-1.38,1.43-2.86.26-2.15.26-6.19.26-11.1v-9ZM99.17,472.81c0,.36.1.46.36.56.31.05,1.23.2,3.12.2,2.86,0,3.58-.1,4.65-1.33,1.07-1.23,1.84-3.07,1.84-5.17,0-4.24-1.89-8.8-6.9-8.8-.56,0-1.64.05-2.45.26-.46.1-.61.26-.61.56v13.71ZM99.17,478.23c0,3.94,0,10.28.05,11.05.15,2.51.15,3.22,1.74,3.99,1.38.66,3.58.77,4.5.77,2.76,0,7.21-1.48,7.21-7.26,0-3.07-1.02-7.52-4.96-10.23-1.74-1.18-3.02-1.33-4.24-1.48-.66-.1-3.22-.1-3.99-.1-.2,0-.31.1-.31.36v2.92Z"/>
    <path d="M129.4,476.14c0-8.29,6.04-20,20.15-20,11.51,0,20.1,7.26,20.1,19.18s-8.08,20.92-20.41,20.92c-14.01,0-19.84-10.89-19.84-20.1ZM164.74,476.75c0-12.27-7.47-18.87-15.55-18.87-8.54,0-14.93,5.63-14.93,16.83,0,11.92,7.16,19.59,16.37,19.59,4.6,0,14.12-2.66,14.12-17.54Z"/>
    <path d="M186.37,471.69c0-7.98,0-9.41-.1-11.05-.1-1.74-.51-2.56-2.2-2.92-.41-.1-1.28-.15-1.74-.15-.2,0-.41-.1-.41-.31,0-.31.26-.41.82-.41,2.3,0,5.52.15,5.78.15.56,0,4.45-.15,6.04-.15,3.22,0,6.65.31,9.36,2.25,1.28.92,3.53,3.43,3.53,6.96,0,3.78-1.59,7.57-6.19,11.81,4.19,5.37,7.67,9.92,10.64,13.09,2.76,2.92,4.96,3.48,6.24,3.68.97.15,1.69.15,1.99.15.26,0,.46.15.46.31,0,.31-.31.41-1.23.41h-3.63c-2.86,0-4.14-.26-5.47-.97-2.2-1.18-3.99-3.68-6.9-7.52-2.15-2.81-4.55-6.24-5.57-7.57-.2-.2-.36-.31-.66-.31l-6.29-.1c-.26,0-.36.15-.36.41v1.23c0,4.91,0,8.95.26,11.1.15,1.48.46,2.61,1.99,2.81.72.1,1.84.2,2.3.2.31,0,.41.15.41.31,0,.26-.26.41-.82.41-2.81,0-6.04-.15-6.29-.15-.05,0-3.27.15-4.81.15-.56,0-.82-.1-.82-.41,0-.15.1-.31.41-.31.46,0,1.07-.1,1.53-.2,1.02-.2,1.28-1.33,1.48-2.81.26-2.15.26-6.19.26-11.1v-9ZM190.47,476.14c0,.26.1.46.36.61.77.46,3.12.82,5.37.82,1.23,0,2.66-.15,3.84-.97,1.79-1.23,3.12-3.99,3.12-7.88,0-6.39-3.38-10.23-8.85-10.23-1.53,0-2.92.15-3.43.31-.26.1-.41.31-.41.61v16.72Z"/>
    <path d="M230.05,471.69c0-7.98,0-9.41-.1-11.05-.1-1.74-.51-2.56-2.2-2.92-.36-.1-1.02-.1-1.48-.15-.36-.05-.66-.1-.66-.31,0-.31.26-.41.82-.41,1.18,0,2.56,0,5.78.15.36,0,10.54,0,11.71-.05,1.13-.05,2.05-.15,2.35-.31.31-.15.41-.2.56-.2s.2.2.2.46c0,.36-.31.97-.41,2.4-.05.77-.1,1.74-.2,3.07-.05.51-.2.87-.41.87-.31,0-.41-.26-.41-.66,0-.66-.1-1.28-.26-1.69-.36-1.18-1.43-1.69-3.68-1.89-.87-.1-6.44-.15-7.01-.15-.2,0-.31.15-.31.51v14.12c0,.36.05.51.31.51.66,0,6.96,0,8.13-.1,1.38-.1,2.05-.26,2.56-.87.26-.31.41-.51.61-.51.15,0,.26.1.26.41s-.26,1.18-.41,2.86c-.15,1.59-.15,2.76-.2,3.48-.05.51-.15.77-.36.77-.31,0-.36-.41-.36-.82,0-.46-.05-.97-.2-1.43-.2-.77-.82-1.48-2.66-1.69-1.38-.15-6.44-.26-7.31-.26-.26,0-.36.15-.36.36v4.5c0,1.74-.05,7.67,0,8.75.1,2.1.41,3.22,1.69,3.73.87.36,2.25.46,4.24.46,1.53,0,3.22-.05,4.6-.46,1.64-.51,2.2-1.59,2.61-3.78.1-.56.2-.77.46-.77.31,0,.31.41.31.77,0,.41-.41,3.89-.66,4.96-.36,1.33-.77,1.33-2.76,1.33-3.78,0-5.47-.1-7.47-.15-2.05-.05-4.4-.15-6.39-.15-1.23,0-2.46.2-3.78.15-.56,0-.82-.1-.82-.41,0-.15.26-.26.56-.31.51-.05.82-.05,1.18-.15,1.07-.26,1.74-.97,1.84-4.81.05-1.99.1-4.6.1-9.15v-9Z"/>
    <path d="M277.26,480.69c0,4.91,0,8.95.26,11.1.15,1.48.46,2.61,1.99,2.81.72.1,1.84.2,2.3.2.31,0,.41.15.41.31,0,.26-.26.41-.82.41-2.81,0-6.04-.15-6.29-.15s-3.48.15-5.01.15c-.56,0-.82-.1-.82-.41,0-.15.1-.31.41-.31.46,0,1.07-.1,1.53-.2,1.02-.2,1.28-1.33,1.48-2.81.26-2.15.26-6.19.26-11.1v-21.63c-2.51.05-5.06.05-7.57.1-3.17.05-4.4.41-5.22,1.64-.56.87-.72,1.23-.87,1.59-.15.41-.31.51-.51.51-.15,0-.26-.15-.26-.46,0-.51,1.02-4.91,1.12-5.32.1-.31.31-.97.51-.97.36,0,.87.51,2.25.61,1.48.15,3.43.26,4.04.26h19.18c1.64,0,2.81-.1,3.63-.26.77-.1,1.23-.26,1.43-.26.26,0,.26.31.26.61,0,1.53-.15,5.06-.15,5.63,0,.46-.15.66-.36.66-.26,0-.36-.15-.41-.87,0-.2-.05-.36-.05-.56-.15-1.53-1.38-2.71-6.29-2.81-2.15-.05-4.3-.05-6.44-.1v21.63Z"/>
    <path d="M309.53,478.85c0,7.36,1.64,10.54,3.84,12.63,2.51,2.35,4.81,2.81,7.72,2.81,3.12,0,6.19-1.48,8.03-3.68,2.35-2.92,2.97-7.26,2.97-12.53v-6.39c0-7.98,0-9.41-.1-11.05-.1-1.74-.51-2.56-2.2-2.92-.41-.1-1.28-.15-1.74-.15-.2,0-.41-.1-.41-.31,0-.31.26-.41.82-.41,2.3,0,5.11.15,5.42.15.36,0,2.76-.15,4.3-.15.56,0,.82.1.82.41,0,.2-.2.31-.41.31-.36,0-.66.05-1.28.15-1.38.31-1.79,1.13-1.89,2.92-.1,1.64-.1,3.07-.1,11.05v5.47c0,5.52-.61,11.66-4.71,15.29-3.68,3.27-7.52,3.78-10.54,3.78-1.74,0-6.9-.2-10.54-3.63-2.51-2.4-4.45-5.98-4.45-13.45v-7.47c0-7.98,0-9.41-.1-11.05-.1-1.74-.51-2.56-2.2-2.92-.41-.1-1.28-.15-1.74-.15-.2,0-.41-.1-.41-.31,0-.31.26-.41.82-.41,2.3,0,5.42.15,5.88.15s3.53-.15,5.06-.15c.56,0,.82.1.82.41,0,.2-.2.31-.41.31-.36,0-.66.05-1.28.15-1.38.2-1.79,1.13-1.89,2.92-.1,1.64-.1,3.07-.1,11.05v7.16Z"/>
    <path d="M393,488.92c.2,1.84.56,4.71,2.76,5.42,1.48.46,2.66.46,3.17.46.26,0,.56.05.56.31,0,.31-.15.41-.77.41-1.13,0-6.96-.15-8.85-.31-1.18-.1-1.43-.26-1.43-.51,0-.2.1-.26.36-.36.36-.15.31-.92.2-1.84l-2.46-26.7-12.68,26.9c-1.07,2.25-1.23,2.71-1.69,2.71-.36,0-.61-.51-1.58-2.35-1.33-2.51-5.73-11.35-5.98-11.87-.46-.92-6.34-13.55-6.9-14.93l-2.1,24.09c-.05.82-.1,1.53-.1,2.4,0,1.28.61,1.69,1.38,1.84.87.2,1.53.2,1.84.2s.51.1.51.26c0,.36-.26.46-.77.46-1.89,0-4.5-.15-4.91-.15-.46,0-2.92.15-4.3.15-.51,0-.87-.05-.87-.41,0-.2.26-.31.51-.31.41,0,.77,0,1.53-.15,1.69-.31,1.79-2.15,2.05-4.24l3.68-33.24c.05-.56.26-1.02.56-1.02s.51.2.77.77l15.65,32.17,15.04-32.12c.2-.46.41-.82.77-.82s.51.41.61,1.38l3.43,31.4Z"/>
    <path d="M1.36,518.33c0-3.12,1.95-5.21,4.03-6.44-.99-1.39-1.26-2.48-1.26-3.69,0-2.11,2.16-4.91,5.74-4.91,1.15,0,2.32.21,2.99.53.56.27.59.43.59.8,0,.99-.05,2.19-.16,2.88-.08.48-.16.64-.29.64s-.16-.11-.16-.51c0-.8-.19-1.6-.83-2.27-.64-.69-1.52-1.18-2.67-1.18-1.6,0-3.39.99-3.39,3.5,0,2.08,1.44,3.82,4.22,6.84.91.99,4.19,4.06,5.05,4.78.75-1.01,1.36-2.8,1.36-4.43,0-.4-.11-.91-.51-1.31-.29-.29-.75-.35-1.09-.4-.29-.05-.53-.08-.53-.21s.21-.19.43-.19c.64,0,1.71.03,3.2.19.4.05.48.27.48.53,0,2.16-1.47,4.86-2.64,6.3,1.76,1.5,2.94,2.22,3.69,2.64.85.51,2.16,1.04,3.13,1.04.24,0,.43.03.43.19,0,.13-.13.19-.37.19-1.55,0-2.62.08-3.47,0-1.36-.11-2.46-.48-4.83-2.38-.61.61-2.67,2.75-6.62,2.75-4.67,0-6.49-3.58-6.49-5.9ZM13.81,520.95c-1.5-1.26-4.11-3.85-4.81-4.59-.69-.75-2.46-2.67-3.2-3.77-1.39.91-2.24,2.35-2.24,4.49,0,3.34,2.27,5.69,5.26,5.69,2.48,0,4.09-.88,4.99-1.82Z"/>
    <path d="M40.73,511.41c0-4.17,0-4.91-.05-5.77-.05-.91-.27-1.34-1.15-1.52-.21-.05-.67-.08-.77-.08-.24,0-.35-.05-.35-.16,0-.16.13-.21.43-.21,1.2,0,2.88.08,3.02.08.64,0,1.68-.08,2.91-.08,4.38,0,5.34,2.67,5.34,4.01,0,2.19-1.26,3.5-2.51,4.81,1.98.61,4.62,2.51,4.62,5.64,0,2.86-2.24,5.82-6.81,5.82-.29,0-1.15-.05-1.92-.08-.77-.05-1.52-.08-1.63-.08-.85,0-1.68.08-2.62.08-.29,0-.43-.05-.43-.19,0-.08.05-.19.4-.19.21,0,.4-.03.64-.08.53-.11.64-.72.75-1.5.13-1.12.13-3.23.13-5.8v-4.7ZM42.87,512c0,.19.05.24.19.29.16.03.64.11,1.63.11,1.5,0,1.87-.05,2.43-.69.56-.64.96-1.6.96-2.7,0-2.22-.99-4.59-3.61-4.59-.29,0-.85.03-1.28.13-.24.05-.32.13-.32.29v7.16ZM42.87,514.83c0,2.06,0,5.37.03,5.77.08,1.31.08,1.68.91,2.08.72.35,1.87.4,2.35.4,1.44,0,3.77-.77,3.77-3.79,0-1.6-.53-3.93-2.59-5.34-.91-.61-1.58-.69-2.22-.77-.35-.05-1.68-.05-2.08-.05-.11,0-.16.05-.16.19v1.52Z"/>
    <path d="M58.65,513.74c0-4.33,3.15-10.44,10.52-10.44,6.01,0,10.5,3.79,10.5,10.02s-4.22,10.92-10.66,10.92c-7.32,0-10.36-5.69-10.36-10.5ZM77.11,514.06c0-6.41-3.9-9.86-8.12-9.86-4.46,0-7.8,2.94-7.8,8.79,0,6.22,3.74,10.23,8.55,10.23,2.4,0,7.37-1.39,7.37-9.16Z"/>
    <path d="M94.07,516.11c0,2.56,0,4.67.13,5.8.08.77.24,1.36,1.04,1.47.37.05.96.11,1.2.11.16,0,.21.08.21.16,0,.13-.13.21-.43.21-1.47,0-3.15-.08-3.28-.08s-1.82.08-2.62.08c-.29,0-.43-.05-.43-.21,0-.08.05-.16.21-.16.24,0,.56-.05.8-.11.53-.11.67-.69.77-1.47.13-1.12.13-3.23.13-5.8v-11.3c-1.31.03-2.64.03-3.95.05-1.66.03-2.3.21-2.72.85-.29.45-.37.64-.45.83-.08.21-.16.27-.27.27-.08,0-.13-.08-.13-.24,0-.27.53-2.56.59-2.78.05-.16.16-.51.27-.51.19,0,.45.27,1.18.32.77.08,1.79.13,2.11.13h10.02c.85,0,1.47-.05,1.9-.13.4-.05.64-.13.75-.13.13,0,.13.16.13.32,0,.8-.08,2.64-.08,2.94,0,.24-.08.35-.19.35-.13,0-.19-.08-.21-.45,0-.11-.03-.19-.03-.29-.08-.8-.72-1.42-3.28-1.47-1.12-.03-2.24-.03-3.37-.05v11.3Z"/>
    <path d="M109.53,515.98c-.13,0-.21.08-.27.21l-1.6,4.73c-.24.67-.37,1.31-.37,1.79,0,.53.51.77.96.77h.24c.27,0,.35.05.35.16,0,.16-.24.21-.48.21-.64,0-1.71-.08-2-.08s-1.76.08-3.02.08c-.35,0-.51-.05-.51-.21,0-.11.13-.16.37-.16.19,0,.43-.03.64-.05,1.23-.16,1.76-1.18,2.24-2.51l6.06-16.59c.32-.88.43-1.04.59-1.04s.27.13.59.96c.4,1.02,4.59,12.05,6.22,16.1.96,2.38,1.74,2.8,2.3,2.96.4.13.83.16,1.04.16.16,0,.29.03.29.16,0,.16-.24.21-.53.21-.4,0-2.35,0-4.19-.05-.51-.03-.8-.03-.8-.19,0-.11.08-.16.19-.19.16-.05.32-.29.16-.72l-2.48-6.57c-.05-.11-.11-.16-.24-.16h-5.74ZM114.93,515.02c.13,0,.13-.08.11-.19l-2.54-7.21c-.13-.4-.27-.4-.4,0l-2.35,7.21c-.05.13,0,.19.08.19h5.1Z"/>
    <path d="M128.52,515.98c0-9.64.05-6.17.03-11.35,0-1.04.08-1.34.29-1.34s.67.59.94.85c.4.45,4.38,4.75,8.49,9.16,2.64,2.83,5.56,6.09,6.41,6.97l-.29-13.57c-.03-1.74-.21-2.32-1.04-2.54-.48-.11-.91-.13-1.15-.13-.29,0-.37-.08-.37-.19,0-.16.21-.19.53-.19,1.2,0,2.48.08,2.78.08s1.17-.08,2.27-.08c.29,0,.48.03.48.19,0,.11-.11.16-.29.19-.21.03-.37.05-.69.11-.75.16-.94.56-.94,2.4l-.05,15.6c0,1.76-.05,1.9-.24,1.9-.21,0-.53-.29-1.95-1.71-.29-.27-4.14-4.19-6.97-7.24-3.1-3.34-6.12-6.7-6.97-7.67l.35,12.79c.05,2.19.32,2.88,1.04,3.1.51.13,1.09.16,1.34.16.13,0,.21.05.21.16,0,.16-.16.21-.48.21-1.52,0-2.59-.08-2.83-.08s-1.36.08-2.56.08c-.27,0-.43-.03-.43-.21,0-.11.08-.16.21-.16.21,0,.69-.03,1.09-.16.67-.19.8-.96.8-3.39v-3.95Z"/>
    <path d="M157.37,511.41c0-4.17,0-4.91-.05-5.77-.05-.91-.32-1.36-.91-1.5-.29-.08-.64-.11-.83-.11-.11,0-.21-.05-.21-.16,0-.16.13-.21.43-.21.88,0,2.56.08,2.7.08s1.82-.08,2.62-.08c.29,0,.43.05.43.21,0,.11-.11.16-.21.16-.19,0-.35.03-.67.08-.72.13-.94.59-.99,1.52-.05.85-.05,1.6-.05,5.77v4.7c0,2.56,0,4.67.13,5.8.08.77.24,1.36,1.04,1.47.37.05.94.11,1.1.11.24,0,.32.08.32.16,0,.13-.11.21-.4.21-1.47,0-3.18-.08-3.31-.08s-1.82.08-2.62.08c-.29,0-.43-.05-.43-.21,0-.08.05-.16.29-.16.16,0,.45-.03.69-.08.53-.11.69-.72.8-1.5.13-1.12.13-3.23.13-5.8v-4.7Z"/>
    <path d="M171.58,521.35c-2.59-2.32-3.23-5.37-3.23-7.91,0-1.79.61-4.91,2.99-7.29,1.6-1.6,4.03-2.86,8.15-2.86,1.07,0,2.56.08,3.87.32,1.02.19,1.84.27,2.83.4.19.03.24.13.24.29,0,.21-.08.53-.13,1.5-.05.88-.05,2.35-.08,2.75-.03.4-.08.56-.24.56-.19,0-.21-.19-.21-.56,0-1.04-.43-2.14-1.12-2.72-.93-.8-2.99-1.52-5.34-1.52-3.55,0-5.21,1.04-6.14,1.95-1.95,1.87-2.4,4.25-2.4,6.97,0,5.1,3.93,9.78,9.64,9.78,2,0,3.58-.24,4.65-1.34.56-.59.91-1.76.99-2.24.05-.29.11-.4.27-.4.13,0,.19.19.19.4,0,.19-.32,2.51-.59,3.42-.16.51-.21.56-.69.77-1.07.43-3.1.61-4.81.61-4.01,0-6.7-.99-8.81-2.88Z"/>
    <path d="M197.35,515.98c-.13,0-.21.08-.27.21l-1.6,4.73c-.24.67-.37,1.31-.37,1.79,0,.53.51.77.96.77h.24c.27,0,.35.05.35.16,0,.16-.24.21-.48.21-.64,0-1.71-.08-2-.08s-1.76.08-3.02.08c-.35,0-.51-.05-.51-.21,0-.11.13-.16.37-.16.19,0,.43-.03.64-.05,1.23-.16,1.76-1.18,2.24-2.51l6.06-16.59c.32-.88.43-1.04.59-1.04s.27.13.59.96c.4,1.02,4.59,12.05,6.22,16.1.96,2.38,1.74,2.8,2.3,2.96.4.13.83.16,1.04.16.16,0,.29.03.29.16,0,.16-.24.21-.53.21-.4,0-2.35,0-4.19-.05-.51-.03-.8-.03-.8-.19,0-.11.08-.16.19-.19.16-.05.32-.29.16-.72l-2.48-6.57c-.05-.11-.11-.16-.24-.16h-5.74ZM202.75,515.02c.13,0,.13-.08.11-.19l-2.54-7.21c-.13-.4-.27-.4-.4,0l-2.35,7.21c-.05.13,0,.19.08.19h5.1Z"/>
    <path d="M219.74,516.17c0,3.93.11,5.64.59,6.12.43.43,1.12.61,3.21.61,1.42,0,2.59-.03,3.23-.8.35-.43.61-1.09.69-1.6.03-.21.08-.35.24-.35.13,0,.16.11.16.4s-.19,1.9-.4,2.67c-.19.61-.27.72-1.68.72-2.3,0-4.57-.16-7.16-.16-.83,0-1.63.08-2.62.08-.29,0-.43-.05-.43-.21,0-.08.05-.16.21-.16.24,0,.56-.05.8-.11.53-.11.67-.69.77-1.47.13-1.12.13-3.23.13-5.8v-4.7c0-4.17,0-4.91-.05-5.77-.05-.91-.27-1.34-1.15-1.52-.21-.05-.67-.08-.91-.08-.11,0-.21-.05-.21-.16,0-.16.13-.21.43-.21,1.2,0,2.88.08,3.02.08s2.08-.08,2.88-.08c.29,0,.43.05.43.21,0,.11-.11.16-.21.16-.19,0-.56.03-.88.08-.77.13-.99.59-1.04,1.52-.05.85-.05,1.6-.05,5.77v4.75Z"/>
    <path d="M262.26,521.59c0,1.2-.03,1.26-.35,1.44-1.71.91-4.11,1.2-5.66,1.2-2.03,0-5.82-.27-8.79-2.86-1.63-1.42-3.18-4.27-3.18-7.61,0-4.27,2.08-7.29,4.46-8.79,2.4-1.5,5.05-1.68,7.1-1.68,1.68,0,3.58.35,4.09.45.56.13,1.5.24,2.16.27.27.03.32.13.32.24,0,.37-.19,1.12-.19,3.79,0,.43-.05.56-.24.56-.13,0-.16-.16-.19-.4-.03-.37-.16-1.12-.56-1.76-.67-1.02-2.83-2.16-6.28-2.16-1.68,0-3.69.16-5.72,1.76-1.55,1.23-2.64,3.66-2.64,6.78,0,3.77,1.9,6.49,2.83,7.4,2.11,2.06,4.54,2.86,7,2.86.96,0,2.35-.16,3.04-.56.35-.19.53-.48.53-.93v-4.54c0-2.16-.13-2.46-1.2-2.75-.21-.05-.67-.08-.91-.08-.11,0-.21-.05-.21-.16,0-.16.13-.21.43-.21,1.2,0,2.88.08,3.02.08s1.82-.08,2.62-.08c.29,0,.43.05.43.21,0,.11-.11.16-.21.16-.19,0-.35.03-.67.08-.72.13-.93.59-.99,1.52-.05.85-.05,1.66-.05,2.78v2.99Z"/>
    <path d="M274.25,515.98c-.13,0-.21.08-.27.21l-1.6,4.73c-.24.67-.37,1.31-.37,1.79,0,.53.51.77.96.77h.24c.27,0,.35.05.35.16,0,.16-.24.21-.48.21-.64,0-1.71-.08-2-.08s-1.76.08-3.02.08c-.35,0-.51-.05-.51-.21,0-.11.13-.16.37-.16.19,0,.43-.03.64-.05,1.23-.16,1.76-1.18,2.24-2.51l6.06-16.59c.32-.88.43-1.04.59-1.04s.27.13.59.96c.4,1.02,4.59,12.05,6.22,16.1.96,2.38,1.74,2.8,2.3,2.96.4.13.83.16,1.04.16.16,0,.29.03.29.16,0,.16-.24.21-.53.21-.4,0-2.35,0-4.19-.05-.51-.03-.8-.03-.8-.19,0-.11.08-.16.19-.19.16-.05.32-.29.16-.72l-2.48-6.57c-.05-.11-.11-.16-.24-.16h-5.74ZM279.64,515.02c.13,0,.13-.08.11-.19l-2.54-7.21c-.13-.4-.27-.4-.4,0l-2.35,7.21c-.05.13,0,.19.08.19h5.1Z"/>
    <path d="M294.39,511.41c0-4.17,0-4.91-.05-5.77-.05-.91-.27-1.34-1.15-1.52-.21-.05-.67-.08-.91-.08-.11,0-.21-.05-.21-.16,0-.16.13-.21.43-.21,1.2,0,2.88.08,3.02.08.29,0,2.32-.08,3.15-.08,1.68,0,3.47.16,4.89,1.18.67.48,1.84,1.79,1.84,3.63,0,1.98-.83,3.95-3.23,6.17,2.19,2.8,4.01,5.18,5.56,6.84,1.44,1.52,2.59,1.82,3.26,1.92.51.08.88.08,1.04.08.13,0,.24.08.24.16,0,.16-.16.21-.64.21h-1.9c-1.5,0-2.16-.13-2.86-.51-1.15-.61-2.08-1.92-3.61-3.93-1.12-1.47-2.38-3.26-2.91-3.95-.11-.11-.19-.16-.35-.16l-3.29-.05c-.13,0-.19.08-.19.21v.64c0,2.56,0,4.67.13,5.8.08.77.24,1.36,1.04,1.47.37.05.96.11,1.2.11.16,0,.21.08.21.16,0,.13-.13.21-.43.21-1.47,0-3.15-.08-3.28-.08-.03,0-1.71.08-2.51.08-.29,0-.43-.05-.43-.21,0-.08.05-.16.21-.16.24,0,.56-.05.8-.11.53-.11.67-.69.77-1.47.13-1.12.13-3.23.13-5.8v-4.7ZM296.52,513.74c0,.13.05.24.19.32.4.24,1.63.43,2.8.43.64,0,1.39-.08,2-.51.93-.64,1.63-2.08,1.63-4.11,0-3.34-1.76-5.34-4.62-5.34-.8,0-1.52.08-1.79.16-.13.05-.21.16-.21.32v8.73Z"/>
    <path d="M317.2,511.41c0-4.17,0-4.91-.05-5.77-.05-.91-.19-1.34-1.07-1.52-.21-.05-.67-.08-.91-.08-.19,0-.29-.05-.29-.16,0-.16.13-.21.43-.21,1.2,0,2.88.08,3.02.08.32,0,2-.08,3.61-.08,2.64,0,7.53-.24,10.71,3.04,1.34,1.39,2.59,3.61,2.59,6.78,0,3.37-1.39,5.96-2.88,7.53-1.15,1.2-3.55,3.07-8.09,3.07-1.15,0-2.56-.08-3.71-.16-1.18-.08-2.08-.16-2.22-.16-.05,0-.51,0-1.07.03-.53,0-1.15.05-1.55.05-.29,0-.43-.05-.43-.21,0-.08.05-.16.27-.16.29-.03.51-.05.75-.11.53-.11.67-.69.77-1.47.13-1.12.13-3.23.13-5.8v-4.7ZM319.44,514.3c0,2.83.03,5.29.05,5.8.03.67.08,1.74.29,2.03.35.51,1.39,1.07,4.54,1.07,2.48,0,4.78-.91,6.36-2.48,1.39-1.36,2.14-3.93,2.14-6.38,0-3.39-1.47-5.58-2.56-6.73-2.51-2.64-5.56-3.02-8.73-3.02-.53,0-1.52.08-1.74.19-.24.11-.32.24-.32.53-.03.91-.03,3.63-.03,5.69v3.31Z"/>
    <path d="M343.96,511.41c0-4.17,0-4.91-.05-5.77-.05-.91-.27-1.34-1.15-1.52-.19-.05-.53-.05-.77-.08-.19-.03-.35-.05-.35-.16,0-.16.13-.21.43-.21.61,0,1.34,0,3.02.08.19,0,5.5,0,6.12-.03.59-.03,1.07-.08,1.23-.16.16-.08.21-.11.29-.11s.11.11.11.24c0,.19-.16.51-.21,1.26-.03.4-.05.91-.11,1.6-.03.27-.11.45-.21.45-.16,0-.21-.13-.21-.35,0-.35-.05-.67-.13-.88-.19-.61-.75-.88-1.92-.99-.45-.05-3.37-.08-3.66-.08-.11,0-.16.08-.16.27v7.37c0,.19.03.27.16.27.35,0,3.63,0,4.25-.05.72-.05,1.07-.13,1.34-.45.13-.16.21-.27.32-.27.08,0,.13.05.13.21s-.13.61-.21,1.5c-.08.83-.08,1.44-.11,1.82-.03.27-.08.4-.19.4-.16,0-.19-.21-.19-.43,0-.24-.03-.51-.11-.75-.11-.4-.43-.77-1.39-.88-.72-.08-3.37-.13-3.82-.13-.13,0-.19.08-.19.19v2.35c0,.91-.03,4.01,0,4.57.05,1.09.21,1.68.88,1.95.45.19,1.17.24,2.22.24.8,0,1.68-.03,2.4-.24.85-.27,1.15-.83,1.36-1.98.05-.29.11-.4.24-.4.16,0,.16.21.16.4,0,.21-.21,2.03-.35,2.59-.19.69-.4.69-1.44.69-1.98,0-2.86-.05-3.9-.08-1.07-.03-2.3-.08-3.34-.08-.64,0-1.28.11-1.98.08-.29,0-.43-.05-.43-.21,0-.08.13-.13.29-.16.27-.03.43-.03.61-.08.56-.13.91-.51.96-2.51.03-1.04.05-2.4.05-4.78v-4.7Z"/>
    <path d="M362.04,515.98c0-9.64.05-6.17.03-11.35,0-1.04.08-1.34.29-1.34s.67.59.93.85c.4.45,4.38,4.75,8.49,9.16,2.64,2.83,5.56,6.09,6.41,6.97l-.29-13.57c-.03-1.74-.21-2.32-1.04-2.54-.48-.11-.91-.13-1.15-.13-.29,0-.37-.08-.37-.19,0-.16.21-.19.53-.19,1.2,0,2.48.08,2.78.08s1.17-.08,2.27-.08c.29,0,.48.03.48.19,0,.11-.11.16-.29.19-.21.03-.37.05-.69.11-.75.16-.93.56-.93,2.4l-.05,15.6c0,1.76-.05,1.9-.24,1.9-.21,0-.53-.29-1.95-1.71-.29-.27-4.14-4.19-6.97-7.24-3.1-3.34-6.12-6.7-6.97-7.67l.35,12.79c.05,2.19.32,2.88,1.04,3.1.51.13,1.1.16,1.34.16.13,0,.21.05.21.16,0,.16-.16.21-.48.21-1.52,0-2.59-.08-2.83-.08s-1.36.08-2.56.08c-.27,0-.43-.03-.43-.21,0-.11.08-.16.21-.16.21,0,.69-.03,1.09-.16.67-.19.8-.96.8-3.39v-3.95Z"/>
    <path d="M388.72,523.51c-.37-.19-.4-.29-.4-1.01,0-1.34.11-2.4.13-2.83.03-.29.08-.43.21-.43.16,0,.19.08.19.29,0,.24,0,.61.08.99.4,1.98,2.16,2.72,3.95,2.72,2.56,0,3.82-1.84,3.82-3.55,0-1.84-.77-2.91-3.07-4.81l-1.2-.99c-2.83-2.32-3.47-3.98-3.47-5.8,0-2.86,2.14-4.81,5.53-4.81,1.04,0,1.82.11,2.48.27.51.11.72.13.93.13s.27.05.27.19-.11,1.01-.11,2.83c0,.43-.05.61-.19.61-.16,0-.19-.13-.21-.35-.03-.32-.19-1.04-.35-1.34-.16-.29-.88-1.42-3.34-1.42-1.84,0-3.29,1.15-3.29,3.1,0,1.52.69,2.48,3.26,4.49l.75.59c3.15,2.48,3.9,4.14,3.9,6.28,0,1.1-.43,3.12-2.27,4.43-1.15.8-2.59,1.12-4.03,1.12-1.26,0-2.48-.19-3.58-.72Z"/>
  </g>
</svg>