<?xml version="1.0" encoding="UTF-8"?>
<svg id="Layer_1" xmlns="http://www.w3.org/2000/svg" version="1.1" viewBox="0 0 100 100">
  <!-- Generator: Adobe Illustrator 29.8.2, SVG Export Plug-In . SVG Version: 2.1.1 Build 3)  -->
  <defs>
    <style>
      .st0 {
        fill: #cb30e0;
      }

      .st1 {
        fill-opacity: 0;
      }

      .st1, .st2 {
        fill: #fff;
      }

      .st2 {
        fill-opacity: .9;
      }
    </style>
  </defs>
  <circle class="st0" cx="50" cy="50" r="50"/>
  <g>
    <rect class="st1" x="24.6" y="30" width="50.9" height="40"/>
    <path class="st2" d="M26.4,30c-1.1,0-1.9.8-1.9,1.9v36.2c0,1.1.7,1.9,1.9,1.9h47.1c1.1,0,1.9-.8,1.9-1.9V31.9c0-1.1-.7-1.9-1.9-1.9H26.4ZM29.2,34h41.6c.5,0,.7.2.7.7v30.7c0,.5-.2.7-.7.7H29.2c-.5,0-.7-.2-.7-.7v-30.7c0-.5.2-.7.7-.7Z"/>
    <path class="st2" d="M32.1,36.2c-.9,0-1.4.5-1.4,1.3v24.9c0,.8.5,1.3,1.4,1.3h35.8c.9,0,1.4-.5,1.4-1.3v-24.9c0-.8-.5-1.3-1.4-1.3h-35.8ZM33.7,38.6h32.7c.4,0,.5.2.5.5v21.7c0,.4-.2.5-.5.5h-32.7c-.4,0-.5-.2-.5-.5v-21.7c0-.3.2-.5.5-.5ZM67.4,58.6l-9.6-9.1c-.7-.7-1.6-1-2.4-1s-1.7.2-2.5.9l-7.4,6.6-3-2.7c-.7-.6-1.5-.9-2.2-.9s-1.4.3-2.1.9l-6.3,5.6v1.5c0,1.5.9,2.1,2.1,2.1h31.2c1.3,0,2.1-.6,2.1-2.1v-2Z"/>
    <path class="st2" d="M42.8,49.9c2.1,0,3.9-1.8,3.9-3.9s-1.7-3.9-3.9-3.9-3.9,1.8-3.9,3.9,1.8,3.9,3.9,3.9Z"/>
  </g>
</svg>