<?xml version="1.0" encoding="UTF-8"?>
<svg id="Layer_1" xmlns="http://www.w3.org/2000/svg" version="1.1" viewBox="0 0 400 525">
  <!-- Generator: Adobe Illustrator 29.8.2, SVG Export Plug-In . SVG Version: 2.1.1 Build 3)  -->
  <defs>
    <style>
      .st0 {
        fill: #565d88;
      }

      .st1 {
        fill: #fff;
      }
    </style>
  </defs>
  <g>
    <path class="st0" d="M344.89,0c5.02.91,10.02,1.93,15.05,2.71,18.04,2.79,31.43,19.49,33.88,35.71,3.51,23.25,6.23,46.63,6.17,70.22-.02,6.5.14,13.02-.26,19.51-.3,5.02-1.69,9.98-1.96,15-.37,6.76-.11,13.56-.15,20.34-.02,3.39-.27,6.79-.18,10.18.36,13.78.98,27.55,1.16,41.33.13,10.01-.32,20.03-.44,30.04-.13,10.29-.42,20.59-.21,30.88.26,12.46,1.33,24.92,1.39,37.38.07,14.42-.45,28.85-.95,43.26-.49,14.03-6.53,25.42-17.25,34.38-4.74,3.96-10.55,5.11-16.41,5.71-6.38.66-12.82,1.24-19.22,1.11-9.73-.2-19.49-.58-29.14-1.73-11.56-1.37-22.93.03-34.36.91-19.73,1.52-39.42,1.86-59.17-.24-8.42-.9-17.04.07-25.57.13-11.47.07-22.95.2-34.42.08-12.12-.13-24.24-.56-36.37-.79-11.31-.21-22.61-.42-33.92-.44-13.33-.02-26.67.18-40,.24-8.57.04-17.03-.82-25.4-2.83-10.47-2.51-17.7-8.91-20.91-18.87-2.57-7.97-4.2-16.39-5.05-24.73-.86-8.45-.32-17.04-.24-25.57.11-11.85.57-23.7.45-35.54-.07-7.23-1.31-14.45-1.39-21.68-.11-9.26.54-18.53.64-27.8.12-10.64-.13-21.29.03-31.93.09-6.51.34-13.04,1.04-19.51,1.14-10.57,1.26-21.07-.26-31.6-1.83-12.62-1.25-25.29-.68-37.96.98-21.84,1.74-43.68.19-65.55-.45-6.36-.42-12.99.9-19.18C4.51,20.71,12.32,12.03,24.12,7.02c8.63-3.66,17.84-3.26,26.88-3.63,9.62-.39,19.28-.14,28.91-.18,11.46-.05,22.93-.1,34.39-.19,11.85-.09,23.71-.06,35.56-.41,15.61-.46,31.21-1.46,46.82-1.8,9.73-.21,19.47.47,29.21.57,7.25.07,14.52-.46,21.77-.17,11.29.44,22.57,2.04,33.84,1.88,15.96-.23,31.91-1.6,47.86-2.52.58-.03,1.15-.38,1.72-.58,4.6,0,9.2,0,13.8,0ZM48.1,207.64c1.82,2.28,3.27,4.14,4.77,5.97,2.1,2.57,3.52,5.27,2.88,8.83-.28,1.55.1,3.31.51,4.89,1.08,4.18,3.22,5.37,7.34,3.99,14.53-4.85,24.77-14.38,30.62-28.54,1.29-3.11,2.21-6.37,3.37-9.74,1.84.24,3.63.46,5.59.71-.73,2.27-1.51,4.25-1.97,6.3-.23,1.05-.26,2.45.25,3.33,4.25,7.3,8.28,14.77,13.07,21.71,7.41,10.73,17.48,17.96,30.47,20.7,2.94.62,5.61.07,7.68-1.98,3.11-3.1,6.27-6.25,8.8-9.81,1.44-2.04,2.04-4.9,2.35-7.47.34-2.91-1.01-3.87-3.98-3.7-1.47.08-2.94.19-4.41.16-2.17-.04-2.79-1.53-1.48-2.85,1.59-1.6,3.69-2.89,5.81-3.74,2.27-.91,4.84-1.06,7.21-1.76.71-.21,1.64-1.18,1.65-1.81,0-.66-.91-1.42-1.58-1.94-.47-.37-1.19-.49-1.82-.58-9.02-1.26-17.94-1.52-26.5,2.44-1.83.84-3.72,1.65-5.67,2.1-1.11.26-2.39-.24-3.59-.4.2-1.1.08-2.41.65-3.27,1.87-2.84,4-5.49,5.99-8.25,2.03-2.81,4.72-4.89,8.07-5.35,5.24-.73,10.56-.96,15.85-1.28,2.53-.15,5.08-.03,7.66-.03.08-1.21.15-2.26.23-3.38.63-.09,1.08-.17,1.52-.23,14.21-1.84,28.5-3.2,42.61-5.66,14-2.44,27.77-6.21,41.72-9.01,19.38-3.89,38.85-4.61,58.29-.29,5.55,1.23,10.87,3.12,15.9,6.17-.95,1.71-1.76,3.25-2.64,4.74-10.08,16.98-23.68,30.83-38.54,43.6-2.21,1.9-4.07,2.1-6.89,1.47-7.4-1.66-14.98-3.98-22.4-3.73-9.52.32-19.13.64-28.7,2.61-9.36,1.93-17.2,6.23-24.76,11.3-5.23,3.5-9.83,7.98-14.49,12.27-8.6,7.91-14.18,17.91-19.11,28.35-4.43,9.37-5.32,19.03-2.59,28.94,1.79,6.49,3.51,13.17,9.99,17.15.7-.35,1.52-.74,2.33-1.17,33.84-17.93,67.7-35.8,101.49-53.82,12.29-6.56,25.07-12.27,35.94-21.32,10.01-8.34,19.83-16.71,25.22-29.05,3.28-7.51,6.05-15.17,4.18-23.43-.92-4.06-1.17-8.08-1.46-12.16-.66-9.12-1.49-18.23-2.3-27.34-.73-8.12-1.47-16.25-2.34-24.36-.16-1.47.29-2,1.48-2.73,2.8-1.72,5.6-3.53,8.05-5.7,2.92-2.57,4.66-5.87,4.33-9.99-1.03-12.82-2.05-25.64-3.04-38.47-.33-4.3-.59-8.61-.88-12.8,3.44,2.06,6.49,4.1,9.74,5.77,5.51,2.84,8.75,7.08,9.19,13.36.2,2.87.52,5.74.79,8.6,1.02-.77,1.5-1.62,1.88-2.51,2.7-6.33,2.4-12.71.18-19.09-1.33-3.82-3.78-6.76-7.44-8.47-5.65-2.64-10.14-6.63-13.89-11.48-1.44-1.86-2.91-2.57-5.38-1.74,1.5,19.59,3.01,39.19,4.54,59.18-5.88-3.19-11.3-1.96-16.61.19-1.73.7-2.55.41-3.5-1.12-4.91-7.91-12.19-12.57-21.04-14.94-3.27-.88-6.59-1.59-10.05-2.41-.45-8.49-.9-17.01-1.36-25.73-18.35-5.95-36.72-11.91-55.35-17.95,0,1.03-.03,1.57,0,2.1,1.04,16.05,2.05,32.09,3.2,48.13.13,1.86-.27,2.77-2.07,3.06-1.62.26-3.28.41-4.85.86-3.95,1.12-7.81,2.57-11.8,3.54-24.36,5.99-49.15,8.9-74.14,10.36-3.35.2-7.01.43-10.07-.66-8.8-3.12-17.43-6.77-26.01-10.48-4.06-1.76-7.86-4.13-11.89-6.29-.89,4.46-1.73,8.66-2.6,13.04-3.04-.62-5.8-1.26-8.6-1.72-1.73-.28-2.37-1.23-2.74-2.85-1.58-6.8-3.28-13.57-4.98-20.33-.99-3.95-2.07-7.87-3.05-11.59-6.88,5.07-13.45,10.09-20.19,14.85-10.98,7.77-23.28,11.56-36.73,11.51-2.07,0-2.9.83-2.89,2.69.02,3.76-.09,7.53.23,11.27.41,4.69,2.76,8.28,7.03,10.52,4.06,2.12,5.2,5.62,4.76,9.95-.97,9.6-1.94,19.19-2.71,28.81-.22,2.71-.05,5.53.47,8.19.77,3.94,2.91,5.37,6.87,5.25,8-.25,8.03-.21,8.26,7.61.1,3.32,1.05,3.99,4.03,2.75,7.75-3.22,14.51-7.88,20.15-14.11.54-.59.74-1.48,1.17-2.38,3.21,3.59,3.05,6.77,2.42,9.98-1.19,6.1-5.36,10.13-9.89,13.83-5.14,4.2-10.77,7.62-17.83,9.85ZM242.97,324.09c.26.52.45.83.59,1.17.76,1.81.98,4.12,3.73,4.07,2.54-.04,3.57-1.67,4.35-3.86.68-1.92,2.63-2.22,4.15-1.48,1.07.52,2.49,2.28,2.27,3.07-.52,1.89-1.65,3.81-3.04,5.19-1.32,1.3-3.3,1.93-4.98,2.86-1.27.7-1.83,1.53-1.27,3.13,1.14,3.27-.27,5.59-3.71,5.48-2.96-.1-5.87-1.15-8.82-1.73-3.83-.75-7.68-1.45-11.52-2.16-2.14-.39-4.29-.76-6.44-1.11-.58-.09-1.3-.3-1.75-.06-5.63,3.03-11.23,6.12-17.29,9.46,4.3,1.42,8.05,2.8,11.89,3.89,15.83,4.52,31.85,5.79,48.21,3.17,9.23-1.48,18.49-2.17,27.13-6.49,10.94-5.47,22.97-8.63,32.52-16.97,5.52-4.82,11.99-8.19,15.95-15.05,3.42-5.91,7.45-11.31,8.11-18.35.58-6.21.02-12.31-5.5-16.1-5.51-3.78-11.51-3.93-17.61-.44-9.71,5.57-19.61,10.83-29.43,16.22-15.77,8.66-31.54,17.32-47.54,26.1ZM212.11,331.72c.58-.26.92-.39,1.24-.56,18.06-9.44,36.21-18.7,54.14-28.38,33.63-18.15,66.25-38.04,98.56-58.43.84-.53,1.73-1.18,2.25-1.99.42-.65.69-1.86.35-2.42-.34-.58-1.56-1.04-2.28-.91-1.32.23-2.62.83-3.83,1.46-14.41,7.49-28.71,15.23-43.23,22.5-37.11,18.58-73.72,38.09-109.72,58.73-.76.44-1.49.92-2.32,1.44,1.66,2.93,3.2,5.63,4.85,8.55ZM136.3,366.82c.32.05.51.14.64.09.43-.16.86-.34,1.24-.58,5.89-3.81,12.23-5.28,19.18-3.84,1.08.22,2.18.3,3.27.47,4.12.63,7.85-.19,11.04-2.99,3.06-2.68,3.96-7.32,2.23-10.98-2.8-5.92-6.45-7.16-13.16-6.03-6.56,1.1-11.37,5.53-15.74,10.11-3.75,3.92-7.35,8.16-8.7,13.75ZM202.67,336.69c-1.7-2.98-3.22-5.65-4.8-8.41-8.32,4.68-16.45,9.24-24.75,13.91,1.59,2.48,3.06,4.75,4.62,7.17,8.31-4.22,16.45-8.36,24.93-12.67ZM205.76,335.15c1.25-.72,2.18-1.25,3.27-1.88-1.65-2.91-3.21-5.65-4.86-8.54-1.22.72-2.13,1.25-3.24,1.91,1.65,2.9,3.16,5.58,4.83,8.51Z"/>
    <path class="st1" d="M48.1,207.64c7.06-2.24,12.69-5.65,17.83-9.85,4.53-3.7,8.7-7.73,9.89-13.83.63-3.22.78-6.39-2.42-9.98-.43.89-.64,1.78-1.17,2.38-5.64,6.23-12.4,10.89-20.15,14.11-2.99,1.24-3.94.57-4.03-2.75-.23-7.83-.26-7.86-8.26-7.61-3.96.12-6.1-1.31-6.87-5.25-.52-2.67-.69-5.49-.47-8.19.77-9.61,1.74-19.21,2.71-28.81.44-4.34-.7-7.83-4.76-9.95-4.27-2.23-6.63-5.82-7.03-10.52-.32-3.73-.22-7.51-.23-11.27,0-1.86.82-2.69,2.89-2.69,13.44.05,25.75-3.75,36.73-11.51,6.74-4.77,13.31-9.78,20.19-14.85.98,3.72,2.06,7.64,3.05,11.59,1.7,6.77,3.39,13.54,4.98,20.33.38,1.62,1.02,2.57,2.74,2.85,2.79.46,5.56,1.1,8.6,1.72.87-4.38,1.71-8.58,2.6-13.04,4.03,2.16,7.83,4.53,11.89,6.29,8.58,3.71,17.2,7.36,26.01,10.48,3.06,1.08,6.72.85,10.07.66,24.99-1.45,49.79-4.37,74.14-10.36,3.98-.98,7.85-2.43,11.8-3.54,1.57-.44,3.23-.6,4.85-.86,1.8-.29,2.2-1.2,2.07-3.06-1.15-16.04-2.16-32.09-3.2-48.13-.03-.53,0-1.07,0-2.1,18.63,6.04,37,12,55.35,17.95.46,8.72.91,17.24,1.36,25.73,3.46.82,6.78,1.53,10.05,2.41,8.85,2.37,16.13,7.03,21.04,14.94.95,1.53,1.77,1.82,3.5,1.12,5.31-2.14,10.73-3.38,16.61-.19-1.53-19.99-3.04-39.6-4.54-59.18,2.47-.83,3.94-.12,5.38,1.74,3.75,4.85,8.24,8.85,13.89,11.48,3.66,1.71,6.11,4.65,7.44,8.47,2.22,6.38,2.52,12.75-.18,19.09-.38.89-.86,1.74-1.88,2.51-.27-2.87-.59-5.73-.79-8.6-.44-6.28-3.68-10.52-9.19-13.36-3.24-1.67-6.3-3.72-9.74-5.77.29,4.2.54,8.5.88,12.8,1,12.82,2.01,25.65,3.04,38.47.33,4.12-1.41,7.42-4.33,9.99-2.46,2.16-5.25,3.98-8.05,5.7-1.19.73-1.63,1.26-1.48,2.73.87,8.11,1.61,16.23,2.34,24.36.81,9.11,1.64,18.22,2.3,27.34.29,4.09.55,8.1,1.46,12.16,1.86,8.27-.9,15.92-4.18,23.43-5.39,12.34-15.2,20.71-25.22,29.05-10.87,9.05-23.65,14.76-35.94,21.32-33.78,18.02-67.65,35.89-101.49,53.82-.81.43-1.63.82-2.33,1.17-6.48-3.98-8.2-10.65-9.99-17.15-2.73-9.91-1.84-19.57,2.59-28.94,4.93-10.44,10.51-20.43,19.11-28.35,4.66-4.29,9.27-8.77,14.49-12.27,7.56-5.07,15.4-9.37,24.76-11.3,9.57-1.97,19.17-2.29,28.7-2.61,7.43-.25,15,2.07,22.4,3.73,2.81.63,4.68.43,6.89-1.47,14.86-12.77,28.46-26.62,38.54-43.6.88-1.49,1.69-3.03,2.64-4.74-5.03-3.05-10.35-4.94-15.9-6.17-19.44-4.31-38.92-3.6-58.29.29-13.95,2.8-27.72,6.57-41.72,9.01-14.1,2.46-28.4,3.82-42.61,5.66-.45.06-.89.13-1.52.23-.07,1.12-.14,2.17-.23,3.38-2.58,0-5.13-.13-7.66.03-5.29.32-10.61.55-15.85,1.28-3.35.46-6.04,2.55-8.07,5.35-1.99,2.75-4.12,5.41-5.99,8.25-.57.86-.45,2.17-.65,3.27,1.2.16,2.48.66,3.59.4,1.95-.45,3.84-1.26,5.67-2.1,8.55-3.95,17.48-3.7,26.5-2.44.63.09,1.35.21,1.82.58.67.52,1.58,1.28,1.58,1.94,0,.62-.94,1.6-1.65,1.81-2.37.71-4.94.85-7.21,1.76-2.11.85-4.21,2.14-5.81,3.74-1.31,1.32-.69,2.8,1.48,2.85,1.47.03,2.94-.08,4.41-.16,2.97-.17,4.32.79,3.98,3.7-.3,2.57-.9,5.43-2.35,7.47-2.52,3.56-5.69,6.71-8.8,9.81-2.06,2.06-4.74,2.6-7.68,1.98-12.99-2.74-23.06-9.97-30.47-20.7-4.79-6.94-8.83-14.41-13.07-21.71-.51-.88-.49-2.27-.25-3.33.45-2.05,1.23-4.02,1.97-6.3-1.96-.25-3.74-.48-5.59-.71-1.16,3.37-2.08,6.63-3.37,9.74-5.85,14.15-16.09,23.68-30.62,28.54-4.12,1.38-6.26.19-7.34-3.99-.41-1.58-.79-3.33-.51-4.89.63-3.56-.78-6.26-2.88-8.83-1.49-1.83-2.95-3.69-4.77-5.97ZM178.96,188.18c19.52-2.11,38.51-4.94,57.11-9.76,17.69-4.58,35.5-7.84,53.87-7.07,12.37.51,24.54,2.01,35.92,7.34,1.22.57,2.44,1.13,3.85,1.79.94-2.25,1.59-4.39,2.67-6.27,1.37-2.39.47-3.78-1.42-5.28-7.19-5.72-15.23-9.53-24.28-11.12-21.29-3.75-42.31-2.06-63.02,3.66-14.45,3.99-29.04,7.24-43.91,9.15-6.36.82-12.73,1.6-19.07,2.4-.45,5.04,2.38,10.3-1.71,15.17ZM269.52,137.04c-7.16,1.54-14.08,2.62-20.75,4.54-17.78,5.12-35.79,9-54.14,11.38-6.08.79-12.17,1.56-18.47,2.36,1.27,4.73,2.51,9.3,3.71,13.78.38.09.56.19.73.17,18.85-1.9,37.61-4.38,55.86-9.64,16.89-4.87,34.01-7.85,51.62-7.3,12.27.38,24.45,1.52,35.49,7.6,3.82,2.1,7.38,4.68,11,7,2.38-4.34,1.86-8.16-1.61-12.06-8.3-9.35-18.22-15.61-30.76-17.25-.85-.11-2.15.4-2.69,1.07-4.85,5.99-11.18,9.15-18.74,9.82-8.15.72-11.69-2.75-11.28-11.46ZM174.24,151.29c1.4.22,1.67.33,1.92.29,15.87-2.44,31.79-4.62,47.6-7.41,15.62-2.75,30.47-9.07,46.42-10.45.71-.06,1.51-.62,2.01-1.17,6.75-7.46,14.76-10.9,25.11-7.99-.16-2.24-.32-4.47-.47-6.58-.39-.18-.55-.3-.72-.32-14.54-1.47-28.71.11-42.7,4.45-8.8,2.73-17.19,6.65-26.55,7.86-13.37,1.72-26.62,4.34-39.92,6.6-.87.15-2.37.29-2.48.71-1.05,4.3-5.08,5.89-7.6,8.82-1.13,1.32-1.64,3.17-2.63,5.19ZM246.29,58.81c1.06,14.52,2.07,28.44,3.12,42.91,15.05-6.24,30.09-9.91,46.26-8.24-.32-5.86-.7-11.23-.87-16.61-.05-1.75-.6-2.52-2.3-3.05-9.53-3-19.01-6.15-28.51-9.24-5.73-1.87-11.46-3.73-17.7-5.76ZM295.8,96.6c-3.83,0-7.4-.05-10.96,0-11.87.18-22.81,4.29-33.8,8.14-.59.21-1.14,1.44-1.15,2.21-.05,4.4,1.35,8.95-1.79,13.1,15.81-5.94,31.98-7.51,48.62-6.12-.31-5.83-.6-11.21-.93-17.33ZM179.74,119.7c1.57,4.27,3.23,8.77,5.05,13.72,11.91-1.86,23.9-3.73,36.31-5.67-4.16-5.61-2.27-10.34.47-14.79-14.01,2.25-27.93,4.49-41.83,6.73ZM203.33,307.16c2.4-1.19,4.63-2.03,6.55-3.32,1.89-1.27,1.69-2.99-.35-4.1-1.18-.64-2.57-.91-3.89-1.25-3.68-.96-4.25-2.49-2.29-5.7.64-1.05,1-2.3,1.32-3.5.52-1.97.69-4.06,1.39-5.95,1.33-3.6-.29-7.57-3.86-7.4-3.55.17-7.5,1.1-10.4,3.02-2.1,1.39-3.6,4.86-3.86,7.55-.31,3.17-.49,6.25-1.39,9.35-.72,2.48.75,4.66,2.81,4.23,4.03-.83,6.28,1.48,8.8,3.86,1.38,1.31,3.28,2.07,5.18,3.21ZM236.82,258.21c2.54-2.88,5.03-5.46,7.19-8.29.7-.92,1.08-2.82.59-3.71-.5-.91-2.33-1.69-3.44-1.53-1.92.27-3.72,1.35-5.6,2-2.55.88-5.11,1.75-7.7,2.47-1.57.43-3.33.3-4.81.9-2.35.94-2.53,2.91-.69,4.68.3.29.53.67,1.06,1.37-1.35.44-2.42.85-3.52,1.13-4.07,1.07-7.91,2.64-10.46,6.13-.66.9-.9,2.85-.35,3.68.46.69,2.33.56,3.58.57.58,0,1.14-.54,1.74-.78,1.78-.72,3.2-.9,4.3,1.33.45.91,2.26,1.76,3.29,1.61.99-.15,2.28-1.51,2.56-2.57.63-2.38,2.01-2.59,3.93-2.07.7.19,1.35.59,2.05.78,2.51.69,4.82.28,6.49-1.79,1.52-1.89,1.1-3.94-.2-5.89ZM337.15,154.46c1.48-4.97-.05-9-1.88-13.06-1-2.24-2.04-3.24-4.84-3.1-7.96.41-11.93-4.37-10.49-12.16.27-1.46-.14-2.14-1.42-2.77-5.57-2.73-11.48-4.2-17.96-5.14.28,5.3.55,10.39.83,15.68,14.91,1.55,26.3,8.98,35.75,20.54ZM328.06,114.11c-5.97-10.89-16.46-14.71-28.59-16.67.27,5.5.51,10.69.84,15.88.03.46.65,1.21,1.09,1.27,7.17,1.14,14.1,3.04,20.18,6.28,2.27-2.37,4.29-4.47,6.48-6.76ZM273.19,270.53c6.68-.41,11.62-1.64,15.49-5.45,4.29-4.22,3.05-9.63-2.59-11.74-6.33-2.37-17.43.57-21.78,5.77-2.83,3.39-2.34,7.2,1.62,9.15,2.64,1.3,5.67,1.79,7.26,2.27ZM288.02,235.79c1.4.68,2.35,1.37,3.4,1.57.93.18,2.26.17,2.91-.36,13.35-10.99,25.38-23.19,34.13-38.27,2.05-3.54,3.79-7.26,5.71-10.96-1.17-.82-1.97-1.39-3.03-2.14-10.73,19.87-26.01,35.62-43.11,50.16ZM300.47,242.84c8.15-6.7,15.71-13.9,22.35-22.05,6.55-8.05,11.76-16.86,15.09-26.73.71-2.11.69-2.12-1.22-3.49-8.81,19.78-23.24,35.06-39.7,49.01,1.26,1.18,2.31,2.17,3.48,3.27ZM344.37,206.72c-.34-.07-.67-.13-1.01-.2-.41,1.1-.81,2.19-1.22,3.29-3.49,9.3-8.31,17.81-15.5,24.75-5.41,5.22-11.06,10.2-16.73,15.14-3.47,3.03-3.57,2.91-2.06,7.83,4.12-3.26,8.16-6.39,12.14-9.6,9.82-7.94,17.62-17.41,21.64-29.56,1.25-3.77,1.84-7.76,2.73-11.65ZM305.47,248.48c17.67-10.22,38.8-41.03,35.58-52.4-7.47,20.69-21.9,35.65-38.1,49.4.93,1.1,1.73,2.06,2.52,3ZM153.27,153.83c.02.16.04.32.06.47,1.01,0,2.01,0,3.02,0,2.58.02,3.16-.7,2.53-3.13-1.1-4.22-4.38-7.47-8.44-7.51-6.68-.06-12.34,2.43-16.28,8.06-1.3,1.87-.74,3.5,1.53,3.86,2.2.34,4.53.17,6.77-.09,3.62-.42,7.21-1.1,10.81-1.66ZM123.04,143.97l.61.71c1.66-.76,3.39-1.39,4.96-2.3,7.12-4.13,14.48-7.49,22.92-7.79,1.34-.05,2.71-.51,3.97-1.02,2.65-1.06,3.16-3.37.86-5.04-1.35-.98-3.43-1.6-5.08-1.43-10.8,1.14-20.18,5.2-26.95,14.1-.6.79-.87,1.84-1.3,2.76ZM61.6,137.38c9.1-.7,13.19-2.99,15.6-9.44.54-1.44.32-3.16.46-4.76-1.52.35-3.3.31-4.5,1.13-5.1,3.5-10.73,4.61-16.76,4.36-1.1-.05-2.22-.12-3.31.03-.83.12-2.16.41-2.31.91-.24.8.05,2.03.58,2.74,2.52,3.4,6.05,4.93,10.24,5.03ZM75.11,108.84c.8-.43,1.86-1,2.91-1.57-.74-1.03-1.26-2.43-2.27-3.04-4.16-2.5-9.56-1.95-13.54,1.61-4.2,3.75-8.53,7.16-13.76,9.4-1.82.78-4.05,2.32-3.01,4.48.49,1.04,3.34,1.52,5.01,1.32,5.6-.65,9.8-4.08,13.28-8.17,2.99-3.52,6.13-5.79,11.39-4.04ZM102.43,133.08c-1.53-5.34-2.84-10.55-.67-15.92-3.34-.68-6.14-1.25-9.22-1.88,1.02,4.43,1.96,8.43,2.85,12.44,1.09,4.89,1.07,4.89,6,5.49.17.02.35-.04,1.04-.13ZM106.38,171.67c.12-.83.29-1.44.28-2.05-.04-2.65-.08-5.29-.21-7.94-.34-6.54.22-5.12-5.93-5.79v15.12c1.96.22,3.83.42,5.86.65ZM106.55,175.27c-2.45-.18-4.37-.31-6.27-.45-.68,5.12-1.29,9.72-1.95,14.68,1.91.16,3.75.32,5.9.51.78-4.94,1.51-9.6,2.31-14.74ZM97.35,136.26c.85,4.7,1.77,8.99,2.35,13.32.26,1.91.84,2.85,2.83,2.77.88-.04,1.77.15,3.23.29-.83-5.01-1.58-9.76-2.44-14.49-.08-.46-.78-1.03-1.29-1.15-1.4-.34-2.85-.47-4.68-.74ZM336.23,174.37c-1.26,2.93-2.35,5.49-3.46,8.08.95.57,1.71,1.02,2.76,1.64.41-3.26,3.38-5.95.7-9.71Z"/>
    <path class="st1" d="M242.97,324.09c16-8.78,31.77-17.44,47.54-26.1,9.82-5.39,19.71-10.64,29.43-16.22,6.1-3.5,12.1-3.35,17.61.44,5.53,3.8,6.08,9.9,5.5,16.1-.66,7.05-4.69,12.44-8.11,18.35-3.96,6.86-10.43,10.23-15.95,15.05-9.56,8.34-21.59,11.5-32.52,16.97-8.64,4.32-17.9,5.01-27.13,6.49-16.36,2.62-32.38,1.35-48.21-3.17-3.83-1.1-7.59-2.47-11.89-3.89,6.06-3.33,11.66-6.43,17.29-9.46.45-.24,1.17-.03,1.75.06,2.15.35,4.3.72,6.44,1.11,3.84.71,7.68,1.41,11.52,2.16,2.95.58,5.86,1.63,8.82,1.73,3.44.12,4.85-2.21,3.71-5.48-.56-1.6,0-2.43,1.27-3.13,1.69-.93,3.67-1.56,4.98-2.86,1.4-1.38,2.53-3.3,3.04-5.19.22-.8-1.21-2.56-2.27-3.07-1.52-.74-3.47-.45-4.15,1.48-.78,2.19-1.81,3.82-4.35,3.86-2.75.05-2.98-2.26-3.73-4.07-.14-.34-.33-.65-.59-1.17ZM293.99,322.26c.92-.35,2.35-.99,3.83-1.46,4.22-1.33,8.03-3.33,10.42-7.17.61-.99.57-2.98-.05-3.94-.42-.64-2.41-.45-3.66-.3-.85.11-1.62.82-2.45,1.21-1.73.81-2.94.61-4.15-1.21-.69-1.04-2.57-2.06-3.67-1.85-1.13.22-2.56,1.85-2.78,3.06-.42,2.3-1.67,2.62-3.49,2.42-.72-.08-1.41-.38-2.11-.6-3.02-.93-5.9-.26-7.5,1.82-1.8,2.32-1.17,4.58.35,6.62-2.51,3.14-5.08,6.04-7.24,9.21-.74,1.08-1.13,3.36-.5,4.17.79,1.01,2.82,1.47,4.28,1.41,1.45-.06,3.06-.79,4.25-1.69,3.42-2.58,7.12-3.86,11.43-4.13,1.7-.11,3.7-1.5,4.78-2.9.48-.62-.97-2.73-1.75-4.67Z"/>
    <path class="st1" d="M212.11,331.72c-1.66-2.92-3.19-5.62-4.85-8.55.84-.52,1.56-1.01,2.32-1.44,36.01-20.64,72.61-40.15,109.72-58.73,14.53-7.27,28.82-15.01,43.23-22.5,1.21-.63,2.51-1.23,3.83-1.46.72-.13,1.94.33,2.28.91.33.56.07,1.77-.35,2.42-.52.81-1.41,1.46-2.25,1.99-32.31,20.39-64.93,40.28-98.56,58.43-17.93,9.68-36.09,18.93-54.14,28.38-.32.17-.66.3-1.24.56Z"/>
    <path class="st1" d="M136.3,366.82c1.35-5.6,4.94-9.83,8.7-13.75,4.38-4.58,9.18-9,15.74-10.11,6.71-1.13,10.36.11,13.16,6.03,1.73,3.65.83,8.29-2.23,10.98-3.2,2.8-6.92,3.62-11.04,2.99-1.09-.17-2.19-.25-3.27-.47-6.94-1.43-13.29.03-19.18,3.84-.38.25-.82.42-1.24.58-.13.05-.32-.04-.64-.09Z"/>
    <path class="st1" d="M202.67,336.69c-8.48,4.31-16.62,8.45-24.93,12.67-1.56-2.42-3.02-4.7-4.62-7.17,8.3-4.67,16.43-9.23,24.75-13.91,1.58,2.77,3.1,5.44,4.8,8.41Z"/>
    <path class="st1" d="M205.76,335.15c-1.66-2.93-3.18-5.61-4.83-8.51,1.12-.66,2.03-1.19,3.24-1.91,1.65,2.9,3.2,5.63,4.86,8.54-1.09.63-2.02,1.16-3.27,1.88Z"/>
    <path class="st0" d="M178.96,188.18c4.09-4.87,1.26-10.13,1.71-15.17,6.35-.8,12.71-1.58,19.07-2.4,14.87-1.92,29.46-5.16,43.91-9.15,20.71-5.72,41.73-7.41,63.02-3.66,9.05,1.59,17.1,5.4,24.28,11.12,1.88,1.5,2.78,2.89,1.42,5.28-1.08,1.89-1.73,4.02-2.67,6.27-1.41-.66-2.63-1.22-3.85-1.79-11.38-5.33-23.56-6.83-35.92-7.34-18.36-.76-36.17,2.49-53.87,7.07-18.6,4.82-37.59,7.66-57.11,9.76Z"/>
    <path class="st0" d="M269.52,137.04c-.41,8.71,3.13,12.18,11.28,11.46,7.55-.67,13.88-3.84,18.74-9.82.54-.67,1.83-1.18,2.69-1.07,12.54,1.64,22.45,7.9,30.76,17.25,3.47,3.9,3.99,7.73,1.61,12.06-3.62-2.32-7.18-4.9-11-7-11.04-6.08-23.22-7.22-35.49-7.6-17.61-.54-34.73,2.43-51.62,7.3-18.24,5.26-37.01,7.74-55.86,9.64-.17.02-.35-.08-.73-.17-1.21-4.48-2.44-9.05-3.71-13.78,6.3-.81,12.38-1.57,18.47-2.36,18.34-2.38,36.36-6.26,54.14-11.38,6.68-1.92,13.6-3,20.75-4.54Z"/>
    <path class="st0" d="M174.24,151.29c.99-2.02,1.5-3.87,2.63-5.19,2.52-2.93,6.55-4.53,7.6-8.82.1-.42,1.6-.56,2.48-.71,13.3-2.26,26.55-4.88,39.92-6.6,9.36-1.2,17.75-5.13,26.55-7.86,13.99-4.34,28.16-5.92,42.7-4.45.17.02.33.14.72.32.15,2.12.31,4.34.47,6.58-10.35-2.9-18.36.53-25.11,7.99-.5.56-1.31,1.11-2.01,1.17-15.96,1.38-30.8,7.7-46.42,10.45-15.81,2.79-31.73,4.97-47.6,7.41-.25.04-.53-.07-1.92-.29Z"/>
    <path class="st0" d="M246.29,58.81c6.24,2.03,11.97,3.9,17.7,5.76,9.5,3.1,18.98,6.24,28.51,9.24,1.7.54,2.25,1.3,2.3,3.05.16,5.38.54,10.75.87,16.61-16.17-1.67-31.2,2-46.26,8.24-1.05-14.47-2.06-28.39-3.12-42.91Z"/>
    <path class="st0" d="M295.8,96.6c.33,6.12.61,11.5.93,17.33-16.63-1.39-32.81.18-48.62,6.12,3.13-4.15,1.74-8.7,1.79-13.1,0-.76.56-2,1.15-2.21,10.99-3.85,21.93-7.95,33.8-8.14,3.56-.05,7.13,0,10.96,0Z"/>
    <path class="st0" d="M179.74,119.7c13.91-2.24,27.82-4.48,41.83-6.73-2.75,4.45-4.64,9.17-.47,14.79-12.41,1.94-24.4,3.81-36.31,5.67-1.82-4.95-3.48-9.46-5.05-13.72Z"/>
    <path class="st0" d="M203.33,307.16c-1.89-1.15-3.79-1.91-5.18-3.21-2.52-2.38-4.77-4.68-8.8-3.86-2.06.42-3.53-1.75-2.81-4.23.91-3.1,1.09-6.19,1.39-9.35.26-2.69,1.76-6.16,3.86-7.55,2.9-1.92,6.85-2.85,10.4-3.02,3.57-.17,5.2,3.8,3.86,7.4-.7,1.9-.87,3.98-1.39,5.95-.32,1.2-.68,2.45-1.32,3.5-1.97,3.22-1.39,4.74,2.29,5.7,1.32.35,2.72.61,3.89,1.25,2.05,1.11,2.24,2.83.35,4.1-1.92,1.29-4.15,2.13-6.55,3.32Z"/>
    <path class="st0" d="M236.82,258.21c1.31,1.95,1.72,4,.2,5.89-1.66,2.06-3.98,2.48-6.49,1.79-.7-.19-1.35-.59-2.05-.78-1.92-.52-3.3-.31-3.93,2.07-.28,1.06-1.57,2.42-2.56,2.57-1.03.16-2.84-.69-3.29-1.61-1.1-2.23-2.52-2.06-4.3-1.33-.59.24-1.16.79-1.74.78-1.25-.01-3.13.12-3.58-.57-.54-.82-.31-2.77.35-3.68,2.56-3.49,6.39-5.06,10.46-6.13,1.1-.29,2.16-.69,3.52-1.13-.53-.69-.75-1.07-1.06-1.37-1.84-1.76-1.66-3.74.69-4.68,1.49-.59,3.24-.46,4.81-.9,2.6-.72,5.15-1.59,7.7-2.47,1.88-.65,3.68-1.73,5.6-2,1.11-.15,2.94.62,3.44,1.53.49.89.11,2.79-.59,3.71-2.16,2.84-4.65,5.42-7.19,8.29Z"/>
    <path class="st0" d="M337.15,154.46c-9.44-11.56-20.84-18.99-35.75-20.54-.28-5.29-.55-10.38-.83-15.68,6.48.94,12.38,2.41,17.96,5.14,1.28.62,1.69,1.3,1.42,2.77-1.44,7.79,2.52,12.57,10.49,12.16,2.8-.15,3.84.86,4.84,3.1,1.83,4.07,3.36,8.1,1.88,13.06Z"/>
    <path class="st0" d="M328.06,114.11c-2.2,2.29-4.21,4.39-6.48,6.76-6.08-3.24-13.01-5.14-20.18-6.28-.43-.07-1.06-.81-1.09-1.27-.33-5.19-.56-10.38-.84-15.88,12.13,1.96,22.62,5.78,28.59,16.67Z"/>
    <path class="st0" d="M273.19,270.53c-1.59-.47-4.62-.97-7.26-2.27-3.96-1.95-4.45-5.76-1.62-9.15,4.34-5.2,15.45-8.15,21.78-5.77,5.63,2.11,6.88,7.52,2.59,11.74-3.87,3.81-8.8,5.04-15.49,5.45Z"/>
    <path class="st0" d="M288.02,235.79c17.1-14.54,32.38-30.29,43.11-50.16,1.06.75,1.86,1.31,3.03,2.14-1.92,3.71-3.66,7.43-5.71,10.96-8.75,15.08-20.78,27.28-34.13,38.27-.65.53-1.98.54-2.91.36-1.04-.2-1.99-.89-3.4-1.57Z"/>
    <path class="st0" d="M300.47,242.84c-1.17-1.1-2.22-2.09-3.48-3.27,16.46-13.95,30.89-29.22,39.7-49.01,1.91,1.38,1.93,1.39,1.22,3.49-3.33,9.87-8.54,18.68-15.09,26.73-6.63,8.15-14.2,15.35-22.35,22.05Z"/>
    <path class="st0" d="M344.37,206.72c-.89,3.89-1.49,7.88-2.73,11.65-4.01,12.15-11.82,21.62-21.64,29.56-3.97,3.21-8.01,6.34-12.14,9.6-1.51-4.93-1.41-4.81,2.06-7.83,5.67-4.94,11.32-9.92,16.73-15.14,7.18-6.94,12-15.45,15.5-24.75.41-1.09.81-2.19,1.22-3.29.34.07.67.13,1.01.2Z"/>
    <path class="st0" d="M305.47,248.48c-.79-.94-1.6-1.9-2.52-3,16.2-13.75,30.63-28.71,38.1-49.4,3.22,11.37-17.91,42.18-35.58,52.4Z"/>
    <path class="st0" d="M153.27,153.83c-3.6.57-7.19,1.24-10.81,1.66-2.24.26-4.57.44-6.77.09-2.27-.35-2.83-1.99-1.53-3.86,3.94-5.63,9.6-8.13,16.28-8.06,4.06.04,7.34,3.3,8.44,7.51.63,2.43.05,3.15-2.53,3.13-1.01,0-2.01,0-3.02,0-.02-.16-.04-.32-.06-.47Z"/>
    <path class="st0" d="M123.04,143.97c.43-.93.7-1.97,1.3-2.76,6.77-8.91,16.15-12.96,26.95-14.1,1.65-.17,3.73.45,5.08,1.43,2.3,1.66,1.79,3.97-.86,5.04-1.26.5-2.64.97-3.97,1.02-8.44.3-15.79,3.66-22.92,7.79-1.57.91-3.31,1.54-4.96,2.3l-.61-.71Z"/>
    <path class="st0" d="M61.6,137.38c-4.19-.1-7.72-1.63-10.24-5.03-.52-.71-.82-1.94-.58-2.74.15-.5,1.47-.79,2.31-.91,1.08-.15,2.2-.08,3.31-.03,6.03.25,11.66-.86,16.76-4.36,1.2-.82,2.98-.78,4.5-1.13-.13,1.59.08,3.32-.46,4.76-2.41,6.45-6.5,8.74-15.6,9.44Z"/>
    <path class="st0" d="M75.11,108.84c-5.26-1.75-8.39.51-11.39,4.04-3.48,4.09-7.67,7.52-13.28,8.17-1.67.19-4.52-.29-5.01-1.32-1.03-2.17,1.2-3.7,3.01-4.48,5.23-2.24,9.56-5.65,13.76-9.4,3.99-3.56,9.38-4.1,13.54-1.61,1,.6,1.52,2,2.27,3.04-1.06.57-2.11,1.14-2.91,1.57Z"/>
    <path class="st0" d="M102.43,133.08c-.69.09-.87.15-1.04.13-4.92-.6-4.91-.6-6-5.49-.89-4.01-1.83-8-2.85-12.44,3.08.63,5.88,1.2,9.22,1.88-2.17,5.37-.86,10.57.67,15.92Z"/>
    <path class="st0" d="M106.38,171.67c-2.04-.23-3.91-.43-5.86-.65v-15.12c6.15.67,5.6-.76,5.93,5.79.14,2.64.18,5.29.21,7.94,0,.61-.16,1.22-.28,2.05Z"/>
    <path class="st0" d="M106.55,175.27c-.81,5.14-1.54,9.8-2.31,14.74-2.15-.18-4-.34-5.9-.51.66-4.96,1.27-9.57,1.95-14.68,1.9.14,3.81.27,6.27.45Z"/>
    <path class="st0" d="M97.35,136.26c1.82.27,3.28.4,4.68.74.51.12,1.2.69,1.29,1.15.86,4.73,1.61,9.47,2.44,14.49-1.45-.14-2.34-.33-3.23-.29-1.99.08-2.57-.86-2.83-2.77-.58-4.33-1.5-8.62-2.35-13.32Z"/>
    <path class="st0" d="M336.23,174.37c2.68,3.77-.29,6.46-.7,9.71-1.05-.62-1.8-1.07-2.76-1.64,1.11-2.59,2.2-5.14,3.46-8.08Z"/>
    <path class="st0" d="M293.99,322.26c.78,1.94,2.23,4.05,1.75,4.67-1.09,1.41-3.08,2.8-4.78,2.9-4.31.27-8.01,1.55-11.43,4.13-1.19.9-2.8,1.63-4.25,1.69-1.46.06-3.49-.4-4.28-1.41-.63-.8-.24-3.08.5-4.17,2.17-3.17,4.73-6.07,7.24-9.21-1.52-2.04-2.15-4.3-.35-6.62,1.6-2.08,4.48-2.75,7.5-1.82.7.21,1.39.52,2.11.6,1.82.2,3.07-.11,3.49-2.42.22-1.21,1.65-2.84,2.78-3.06,1.1-.22,2.98.81,3.67,1.85,1.2,1.82,2.42,2.03,4.15,1.21.83-.39,1.6-1.1,2.45-1.21,1.25-.15,3.24-.35,3.66.3.62.95.67,2.95.05,3.94-2.38,3.83-6.2,5.83-10.42,7.17-1.48.47-2.91,1.11-3.83,1.46Z"/>
  </g>
  <g>
    <path d="M0,434.87c0-6.16,4.49-14.87,14.98-14.87,8.56,0,14.95,5.4,14.95,14.26s-6.01,15.55-15.17,15.55c-10.42,0-14.76-8.1-14.76-14.95ZM26.28,435.33c0-9.13-5.55-14.03-11.56-14.03-6.35,0-11.1,4.18-11.1,12.51,0,8.86,5.32,14.57,12.17,14.57,3.42,0,10.5-1.98,10.5-13.04Z"/>
    <path d="M39.67,424.15c-.84-2.13-1.41-2.55-2.74-2.93-.57-.15-1.22-.15-1.45-.15s-.3-.11-.3-.27c0-.23.38-.27.99-.27,1.83,0,3.88.11,4.34.11.38,0,2.02-.11,3.46-.11.68,0,1.03.08,1.03.27s-.11.27-.38.27c-.42,0-1.1.04-1.45.19-.42.19-.49.49-.49.76,0,.34.34,1.37.76,2.43l7.76,20.19c2.21-5.1,7.3-18.37,8.14-21.11.19-.57.34-1.1.34-1.45,0-.3-.11-.68-.49-.87-.46-.15-1.03-.15-1.45-.15-.23,0-.42-.04-.42-.23,0-.23.23-.3.84-.3,1.52,0,3.27.11,3.73.11.23,0,1.86-.11,2.97-.11.42,0,.65.08.65.27s-.15.27-.46.27c-.27,0-1.1,0-1.83.46-.49.34-1.06.99-2.09,3.58-.42,1.06-2.32,5.63-4.26,10.31-2.32,5.55-4.03,9.66-4.91,11.52-1.07,2.28-1.22,2.89-1.6,2.89-.46,0-.65-.53-1.37-2.36l-9.32-23.31Z"/>
    <path d="M74.93,431.56c0-5.93,0-7-.08-8.21-.08-1.29-.38-1.9-1.64-2.17-.27-.08-.76-.08-1.1-.11-.27-.04-.49-.08-.49-.23,0-.23.19-.3.61-.3.87,0,1.9,0,4.3.11.27,0,7.83,0,8.71-.04.84-.04,1.52-.11,1.75-.23.23-.11.3-.15.42-.15s.15.15.15.34c0,.27-.23.72-.3,1.79-.04.57-.08,1.29-.15,2.28-.04.38-.15.65-.3.65-.23,0-.31-.19-.31-.49,0-.49-.08-.95-.19-1.25-.27-.87-1.07-1.25-2.74-1.41-.65-.08-4.79-.11-5.21-.11-.15,0-.23.11-.23.38v10.5c0,.27.04.38.23.38.49,0,5.17,0,6.05-.08,1.03-.08,1.52-.19,1.9-.65.19-.23.3-.38.46-.38.11,0,.19.08.19.3s-.19.87-.3,2.13c-.11,1.18-.11,2.05-.15,2.59-.04.38-.11.57-.27.57-.23,0-.27-.3-.27-.61,0-.34-.04-.72-.15-1.06-.15-.57-.61-1.1-1.98-1.25-1.03-.11-4.79-.19-5.44-.19-.19,0-.27.11-.27.27v3.35c0,1.29-.04,5.7,0,6.5.08,1.56.3,2.4,1.25,2.78.65.27,1.67.34,3.16.34,1.14,0,2.4-.04,3.42-.34,1.22-.38,1.64-1.18,1.94-2.81.08-.42.15-.57.34-.57.23,0,.23.3.23.57,0,.3-.3,2.89-.49,3.69-.27.99-.57.99-2.05.99-2.81,0-4.07-.08-5.55-.11-1.52-.04-3.27-.11-4.75-.11-.91,0-1.83.15-2.81.11-.42,0-.61-.08-.61-.3,0-.11.19-.19.42-.23.38-.04.61-.04.88-.11.8-.19,1.29-.72,1.37-3.58.04-1.48.08-3.42.08-6.81v-6.69Z"/>
    <path d="M101.09,431.56c0-5.93,0-7-.08-8.21-.08-1.29-.38-1.9-1.64-2.17-.3-.08-.95-.11-1.29-.11-.15,0-.3-.08-.3-.23,0-.23.19-.3.61-.3,1.71,0,4.11.11,4.3.11.42,0,3.31-.11,4.49-.11,2.4,0,4.94.23,6.96,1.67.95.68,2.62,2.55,2.62,5.17,0,2.81-1.18,5.63-4.6,8.79,3.12,3.99,5.7,7.38,7.91,9.74,2.05,2.17,3.69,2.59,4.64,2.74.72.11,1.25.11,1.48.11.19,0,.34.11.34.23,0,.23-.23.3-.91.3h-2.7c-2.13,0-3.08-.19-4.07-.72-1.64-.87-2.97-2.74-5.13-5.59-1.6-2.09-3.38-4.64-4.15-5.63-.15-.15-.27-.23-.49-.23l-4.68-.08c-.19,0-.27.11-.27.3v.91c0,3.65,0,6.66.19,8.25.11,1.1.34,1.94,1.48,2.09.53.08,1.37.15,1.71.15.23,0,.3.11.3.23,0,.19-.19.3-.61.3-2.09,0-4.49-.11-4.68-.11-.04,0-2.43.11-3.57.11-.42,0-.61-.08-.61-.3,0-.11.08-.23.3-.23.34,0,.8-.08,1.14-.15.76-.15.95-.99,1.1-2.09.19-1.6.19-4.6.19-8.25v-6.69ZM104.14,434.87c0,.19.08.34.27.46.57.34,2.32.61,3.99.61.91,0,1.98-.11,2.85-.72,1.33-.91,2.32-2.97,2.32-5.86,0-4.75-2.51-7.61-6.58-7.61-1.14,0-2.17.11-2.55.23-.19.08-.31.23-.31.46v12.44Z"/>
    <path d="M136.77,438.33c0,5.59.15,8.02.84,8.71.61.61,1.6.88,4.56.88,2.02,0,3.69-.04,4.6-1.14.49-.61.88-1.56.99-2.28.04-.3.11-.49.34-.49.19,0,.23.15.23.57s-.27,2.7-.57,3.8c-.27.87-.38,1.03-2.4,1.03-3.27,0-6.5-.23-10.19-.23-1.18,0-2.32.11-3.73.11-.42,0-.61-.08-.61-.3,0-.11.08-.23.3-.23.34,0,.8-.08,1.14-.15.76-.15.95-.99,1.1-2.09.19-1.6.19-4.6.19-8.25v-6.69c0-5.93,0-7-.08-8.21-.08-1.29-.38-1.9-1.64-2.17-.3-.08-.95-.11-1.29-.11-.15,0-.3-.08-.3-.23,0-.23.19-.3.61-.3,1.71,0,4.11.11,4.3.11s2.97-.11,4.11-.11c.42,0,.61.08.61.3,0,.15-.15.23-.3.23-.27,0-.8.04-1.25.11-1.1.19-1.41.84-1.48,2.17-.08,1.22-.08,2.28-.08,8.21v6.77Z"/>
    <path d="M163.39,438.06c-.19,0-.3.11-.38.3l-2.28,6.73c-.34.95-.53,1.86-.53,2.55,0,.76.72,1.1,1.37,1.1h.34c.38,0,.49.08.49.23,0,.23-.34.3-.68.3-.91,0-2.43-.11-2.85-.11s-2.51.11-4.3.11c-.49,0-.72-.08-.72-.3,0-.15.19-.23.53-.23.27,0,.61-.04.91-.08,1.75-.23,2.51-1.67,3.19-3.57l8.63-23.62c.46-1.25.61-1.48.84-1.48s.38.19.84,1.37c.57,1.45,6.54,17.15,8.86,22.93,1.37,3.38,2.47,3.99,3.27,4.22.57.19,1.18.23,1.48.23.23,0,.42.04.42.23,0,.23-.34.3-.76.3-.57,0-3.35,0-5.97-.08-.72-.04-1.14-.04-1.14-.27,0-.15.11-.23.27-.27.23-.08.46-.42.23-1.03l-3.54-9.36c-.08-.15-.15-.23-.34-.23h-8.18ZM171.07,436.7c.19,0,.19-.11.15-.27l-3.61-10.27c-.19-.57-.38-.57-.57,0l-3.35,10.27c-.08.19,0,.27.11.27h7.26Z"/>
    <path d="M190.43,438.06c0-13.73.08-8.79.04-16.16,0-1.48.11-1.9.42-1.9s.95.84,1.33,1.22c.57.65,6.24,6.77,12.09,13.04,3.76,4.03,7.91,8.67,9.13,9.93l-.42-19.32c-.04-2.47-.3-3.31-1.48-3.61-.68-.15-1.29-.19-1.64-.19-.42,0-.53-.11-.53-.27,0-.23.3-.27.76-.27,1.71,0,3.54.11,3.96.11s1.67-.11,3.23-.11c.42,0,.68.04.68.27,0,.15-.15.23-.42.27-.31.04-.53.08-.99.15-1.06.23-1.33.8-1.33,3.42l-.08,22.21c0,2.51-.08,2.7-.34,2.7-.31,0-.76-.42-2.78-2.43-.42-.38-5.89-5.97-9.93-10.31-4.41-4.75-8.71-9.55-9.93-10.91l.49,18.22c.08,3.12.46,4.11,1.48,4.41.72.19,1.56.23,1.9.23.19,0,.3.08.3.23,0,.23-.23.3-.68.3-2.17,0-3.69-.11-4.03-.11s-1.94.11-3.65.11c-.38,0-.61-.04-.61-.3,0-.15.11-.23.3-.23.3,0,.99-.04,1.56-.23.95-.27,1.14-1.37,1.14-4.83v-5.63Z"/>
    <path d="M231.51,431.56c0-5.93,0-7-.08-8.21-.08-1.29-.27-1.9-1.52-2.17-.3-.08-.95-.11-1.29-.11-.27,0-.42-.08-.42-.23,0-.23.19-.3.61-.3,1.71,0,4.11.11,4.3.11.46,0,2.85-.11,5.13-.11,3.76,0,10.72-.34,15.25,4.34,1.9,1.98,3.69,5.13,3.69,9.66,0,4.79-1.98,8.48-4.11,10.72-1.64,1.71-5.06,4.37-11.52,4.37-1.64,0-3.65-.11-5.29-.23-1.67-.11-2.97-.23-3.16-.23-.08,0-.72,0-1.52.04-.76,0-1.64.08-2.21.08-.42,0-.61-.08-.61-.3,0-.11.08-.23.38-.23.42-.04.72-.08,1.06-.15.76-.15.95-.99,1.1-2.09.19-1.6.19-4.6.19-8.25v-6.69ZM234.71,435.67c0,4.03.04,7.53.08,8.25.04.95.11,2.47.42,2.89.49.72,1.98,1.52,6.47,1.52,3.54,0,6.81-1.29,9.05-3.54,1.98-1.94,3.04-5.59,3.04-9.09,0-4.83-2.09-7.95-3.65-9.58-3.57-3.76-7.91-4.3-12.44-4.3-.76,0-2.17.11-2.47.27-.34.15-.46.34-.46.76-.04,1.29-.04,5.17-.04,8.1v4.72Z"/>
    <path d="M286.36,431.56c0-5.93,0-7-.08-8.21-.08-1.29-.38-1.9-1.64-2.17-.3-.08-.95-.11-1.29-.11-.15,0-.3-.08-.3-.23,0-.23.19-.3.61-.3,1.71,0,3.99.11,4.3.11.84,0,3.04-.11,4.79-.11,4.75,0,6.47,1.6,7.07,2.17.84.8,1.9,2.51,1.9,4.98,0,4.94-3.96,8.6-9.36,8.6-.19,0-.61,0-.8-.04-.19,0-.42-.08-.42-.27,0-.3.23-.34,1.03-.34,3.69,0,6.58-2.51,6.58-6.5,0-.95-.11-3.5-2.13-5.55s-4.34-1.9-5.21-1.9c-.65,0-1.29.08-1.64.23-.23.08-.31.34-.31.72v15.63c0,3.65,0,6.66.19,8.25.11,1.1.34,1.94,1.48,2.09.53.08,1.37.15,1.71.15.23,0,.3.11.3.23,0,.19-.19.3-.61.3-2.09,0-4.49-.11-4.68-.11-.11,0-2.51.11-3.65.11-.42,0-.61-.08-.61-.3,0-.11.08-.23.3-.23.34,0,.8-.08,1.14-.15.76-.15.95-.99,1.1-2.09.19-1.6.19-4.6.19-8.25v-6.69Z"/>
    <path d="M313.97,438.06c-.19,0-.3.11-.38.3l-2.28,6.73c-.34.95-.53,1.86-.53,2.55,0,.76.72,1.1,1.37,1.1h.34c.38,0,.49.08.49.23,0,.23-.34.3-.68.3-.91,0-2.43-.11-2.85-.11s-2.51.11-4.3.11c-.49,0-.72-.08-.72-.3,0-.15.19-.23.53-.23.27,0,.61-.04.91-.08,1.75-.23,2.51-1.67,3.2-3.57l8.63-23.62c.46-1.25.61-1.48.84-1.48s.38.19.84,1.37c.57,1.45,6.54,17.15,8.86,22.93,1.37,3.38,2.47,3.99,3.27,4.22.57.19,1.18.23,1.48.23.23,0,.42.04.42.23,0,.23-.34.3-.76.3-.57,0-3.35,0-5.97-.08-.72-.04-1.14-.04-1.14-.27,0-.15.11-.23.27-.27.23-.08.46-.42.23-1.03l-3.54-9.36c-.08-.15-.15-.23-.34-.23h-8.18ZM321.65,436.7c.19,0,.19-.11.15-.27l-3.61-10.27c-.19-.57-.38-.57-.57,0l-3.35,10.27c-.08.19,0,.27.11.27h7.26Z"/>
    <path d="M342.65,431.56c0-5.93,0-7-.08-8.21-.08-1.29-.38-1.9-1.64-2.17-.3-.08-.95-.11-1.29-.11-.15,0-.3-.08-.3-.23,0-.23.19-.3.61-.3,1.71,0,4.11.11,4.3.11.42,0,3.31-.11,4.49-.11,2.4,0,4.94.23,6.96,1.67.95.68,2.62,2.55,2.62,5.17,0,2.81-1.18,5.63-4.6,8.79,3.12,3.99,5.71,7.38,7.91,9.74,2.05,2.17,3.69,2.59,4.64,2.74.72.11,1.25.11,1.48.11.19,0,.34.11.34.23,0,.23-.23.3-.91.3h-2.7c-2.13,0-3.08-.19-4.07-.72-1.64-.87-2.97-2.74-5.13-5.59-1.6-2.09-3.39-4.64-4.15-5.63-.15-.15-.27-.23-.5-.23l-4.68-.08c-.19,0-.27.11-.27.3v.91c0,3.65,0,6.66.19,8.25.11,1.1.34,1.94,1.48,2.09.53.08,1.37.15,1.71.15.23,0,.3.11.3.23,0,.19-.19.3-.61.3-2.09,0-4.49-.11-4.68-.11-.04,0-2.43.11-3.57.11-.42,0-.61-.08-.61-.3,0-.11.08-.23.3-.23.34,0,.8-.08,1.14-.15.76-.15.95-.99,1.1-2.09.19-1.6.19-4.6.19-8.25v-6.69ZM345.69,434.87c0,.19.08.34.27.46.57.34,2.32.61,3.99.61.91,0,1.98-.11,2.85-.72,1.33-.91,2.32-2.97,2.32-5.86,0-4.75-2.51-7.61-6.58-7.61-1.14,0-2.17.11-2.55.23-.19.08-.3.23-.3.46v12.44Z"/>
    <path d="M378.17,434c1.18-1.14,6.35-6.58,8.67-8.98,2.28-2.36,2.43-2.74,2.43-3.19,0-.3-.19-.61-.5-.72-.27-.11-.34-.19-.34-.34s.23-.23.57-.23c1.1,0,.99.11,2.28.11,1.18,0,3.42-.11,4.03-.11.53,0,.65.11.65.27s-.08.23-.42.27c-.72.08-1.41.23-1.94.46-.95.38-1.67.84-3.96,3.04-3.35,3.23-7.68,7.53-8.67,8.63,2.4,2.62,9.32,9.66,11.1,11.33,3.12,2.93,4.45,3.76,6.27,4.11.34.08.72.11,1.1.11.31,0,.53.08.53.27s-.15.27-.57.27h-2.81c-3.31,0-4.18-.42-5.97-1.83-2.28-1.79-9.13-9.13-12.47-13.12v3.92c0,3.65,0,6.66.19,8.25.11,1.1.34,1.94,1.48,2.09.53.08,1.29.15,1.52.15.34,0,.46.15.46.27,0,.19-.15.27-.57.27-2.09,0-4.49-.11-4.68-.11s-2.43.11-3.57.11c-.42,0-.61-.04-.61-.27,0-.11.08-.27.42-.27.23,0,.65-.04.99-.11.76-.15.99-1.03,1.14-2.13.19-1.6.19-4.6.19-8.25v-6.69c0-5.93,0-7-.08-8.21-.08-1.29-.46-1.94-1.29-2.13-.42-.11-1.1-.15-1.37-.15-.3,0-.42-.08-.42-.23,0-.23.19-.3.61-.3,1.25,0,3.8.11,3.99.11s2.59-.11,3.73-.11c.42,0,.61.08.61.27,0,.15-.08.23-.42.27-.42.04-.46.04-.84.08-1.03.11-1.33.87-1.41,2.21-.08,1.22-.08,2.28-.08,8.21v2.43Z"/>
    <path d="M5.67,475.95c0-7.91,0-9.33-.1-10.95-.1-1.72-.51-2.54-2.18-2.89-.41-.1-1.27-.15-1.72-.15-.2,0-.41-.1-.41-.3,0-.3.25-.41.81-.41,2.28,0,5.32.15,5.73.15,1.12,0,4.06-.15,6.39-.15,6.34,0,8.62,2.13,9.43,2.89,1.12,1.06,2.54,3.35,2.54,6.64,0,6.59-5.27,11.46-12.47,11.46-.25,0-.81,0-1.07-.05-.25,0-.56-.1-.56-.36,0-.41.3-.46,1.37-.46,4.92,0,8.77-3.35,8.77-8.67,0-1.27-.15-4.67-2.84-7.4s-5.78-2.54-6.95-2.54c-.86,0-1.72.1-2.18.3-.3.1-.41.46-.41.96v20.84c0,4.87,0,8.87.25,11,.15,1.47.46,2.59,1.98,2.79.71.1,1.83.2,2.28.2.31,0,.41.15.41.3,0,.25-.25.41-.81.41-2.79,0-5.98-.15-6.24-.15-.15,0-3.35.15-4.87.15-.56,0-.81-.1-.81-.41,0-.15.1-.3.41-.3.46,0,1.07-.1,1.52-.2,1.01-.2,1.27-1.32,1.47-2.79.25-2.13.25-6.14.25-11v-8.92Z"/>
    <path d="M45.32,483.04c0,7.3,1.62,10.45,3.8,12.53,2.49,2.33,4.77,2.79,7.66,2.79,3.09,0,6.14-1.47,7.96-3.65,2.33-2.89,2.94-7.2,2.94-12.42v-6.34c0-7.91,0-9.33-.1-10.95-.1-1.72-.51-2.54-2.18-2.89-.41-.1-1.27-.15-1.72-.15-.2,0-.41-.1-.41-.3,0-.3.25-.41.81-.41,2.28,0,5.07.15,5.38.15.36,0,2.74-.15,4.26-.15.56,0,.81.1.81.41,0,.2-.2.3-.41.3-.35,0-.66.05-1.27.15-1.37.3-1.77,1.12-1.88,2.89-.1,1.62-.1,3.04-.1,10.95v5.43c0,5.48-.61,11.56-4.67,15.16-3.65,3.25-7.45,3.75-10.45,3.75-1.72,0-6.85-.2-10.45-3.6-2.48-2.38-4.41-5.93-4.41-13.34v-7.4c0-7.91,0-9.33-.1-10.95-.1-1.72-.51-2.54-2.18-2.89-.41-.1-1.27-.15-1.72-.15-.2,0-.41-.1-.41-.3,0-.3.25-.41.81-.41,2.28,0,5.37.15,5.83.15s3.5-.15,5.02-.15c.56,0,.81.1.81.41,0,.2-.2.3-.41.3-.36,0-.66.05-1.27.15-1.37.2-1.77,1.12-1.88,2.89-.1,1.62-.1,3.04-.1,10.95v7.1Z"/>
    <path d="M91.01,475.95c0-7.91,0-9.33-.1-10.95-.1-1.72-.51-2.54-2.18-2.89-.41-.1-1.27-.15-1.47-.15-.46,0-.66-.1-.66-.3,0-.3.25-.41.81-.41,2.28,0,5.48.15,5.73.15,1.22,0,3.19-.15,5.53-.15,8.32,0,10.14,5.07,10.14,7.61,0,4.16-2.38,6.64-4.77,9.13,3.75,1.17,8.77,4.77,8.77,10.7,0,5.43-4.26,11.05-12.93,11.05-.56,0-2.18-.1-3.65-.15-1.47-.1-2.89-.15-3.09-.15-1.62,0-3.19.15-4.97.15-.56,0-.81-.1-.81-.36,0-.15.1-.35.76-.35.41,0,.76-.05,1.22-.15,1.01-.2,1.22-1.37,1.42-2.84.25-2.13.25-6.14.25-11v-8.92ZM95.07,477.06c0,.35.1.46.36.56.3.05,1.22.2,3.09.2,2.84,0,3.55-.1,4.61-1.32,1.07-1.22,1.83-3.04,1.83-5.12,0-4.21-1.88-8.72-6.85-8.72-.56,0-1.62.05-2.43.25-.46.1-.61.25-.61.56v13.59ZM95.07,482.44c0,3.91,0,10.19.05,10.95.15,2.48.15,3.19,1.72,3.96,1.37.66,3.55.76,4.46.76,2.74,0,7.15-1.47,7.15-7.2,0-3.04-1.01-7.45-4.92-10.14-1.72-1.17-2.99-1.32-4.21-1.47-.66-.1-3.19-.1-3.96-.1-.2,0-.3.1-.3.36v2.89Z"/>
    <path d="M134.02,484.97c0,7.45.2,10.7,1.12,11.61.81.81,2.13,1.17,6.08,1.17,2.69,0,4.92-.05,6.14-1.52.66-.81,1.17-2.08,1.32-3.04.05-.41.15-.66.46-.66.25,0,.3.2.3.76s-.35,3.6-.76,5.07c-.36,1.17-.51,1.37-3.19,1.37-4.36,0-8.67-.3-13.59-.3-1.57,0-3.09.15-4.97.15-.56,0-.81-.1-.81-.41,0-.15.1-.3.41-.3.46,0,1.07-.1,1.52-.2,1.01-.2,1.27-1.32,1.47-2.79.25-2.13.25-6.14.25-11v-8.92c0-7.91,0-9.33-.1-10.95-.1-1.72-.51-2.54-2.18-2.89-.41-.1-1.27-.15-1.72-.15-.2,0-.41-.1-.41-.3,0-.3.25-.41.81-.41,2.28,0,5.48.15,5.73.15s3.96-.15,5.48-.15c.56,0,.81.1.81.41,0,.2-.2.3-.41.3-.36,0-1.07.05-1.67.15-1.47.25-1.88,1.12-1.98,2.89-.1,1.62-.1,3.04-.1,10.95v9.03Z"/>
    <path d="M164.24,475.95c0-7.91,0-9.33-.1-10.95-.1-1.72-.61-2.59-1.72-2.84-.56-.15-1.22-.2-1.57-.2-.2,0-.41-.1-.41-.3,0-.3.25-.41.81-.41,1.67,0,4.87.15,5.12.15s3.45-.15,4.97-.15c.56,0,.81.1.81.41,0,.2-.2.3-.41.3-.36,0-.66.05-1.27.15-1.37.25-1.77,1.12-1.88,2.89-.1,1.62-.1,3.04-.1,10.95v8.92c0,4.87,0,8.87.25,11,.15,1.47.46,2.59,1.98,2.79.71.1,1.77.2,2.08.2.46,0,.61.15.61.3,0,.25-.2.41-.76.41-2.79,0-6.03-.15-6.29-.15s-3.45.15-4.97.15c-.56,0-.81-.1-.81-.41,0-.15.1-.3.56-.3.3,0,.86-.05,1.32-.15,1.01-.2,1.32-1.37,1.52-2.84.25-2.13.25-6.14.25-11v-8.92Z"/>
    <path d="M191.22,494.81c-4.92-4.41-6.14-10.19-6.14-15.01,0-3.4,1.17-9.33,5.68-13.84,3.04-3.04,7.66-5.43,15.47-5.43,2.03,0,4.87.15,7.35.61,1.93.36,3.5.51,5.38.76.36.05.46.25.46.56,0,.41-.15,1.01-.25,2.84-.1,1.67-.1,4.46-.15,5.22-.05.76-.15,1.07-.46,1.07-.36,0-.41-.36-.41-1.07,0-1.98-.81-4.06-2.13-5.17-1.77-1.52-5.68-2.89-10.14-2.89-6.74,0-9.89,1.98-11.66,3.7-3.7,3.55-4.56,8.06-4.56,13.24,0,9.69,7.45,18.56,18.31,18.56,3.8,0,6.8-.46,8.82-2.54,1.06-1.12,1.72-3.35,1.88-4.26.1-.56.2-.76.51-.76.25,0,.36.36.36.76,0,.36-.61,4.77-1.12,6.49-.31.96-.41,1.06-1.32,1.47-2.03.81-5.88,1.17-9.13,1.17-7.61,0-12.73-1.88-16.73-5.48Z"/>
    <path d="M260.64,484.62c-.25,0-.41.15-.51.41l-3.04,8.98c-.46,1.27-.71,2.48-.71,3.4,0,1.01.96,1.47,1.83,1.47h.46c.51,0,.66.1.66.3,0,.3-.46.41-.91.41-1.22,0-3.24-.15-3.8-.15s-3.35.15-5.73.15c-.66,0-.96-.1-.96-.41,0-.2.25-.3.71-.3.35,0,.81-.05,1.22-.1,2.33-.3,3.35-2.23,4.26-4.77l11.51-31.49c.61-1.67.81-1.98,1.12-1.98s.51.25,1.12,1.83c.76,1.93,8.72,22.87,11.82,30.58,1.83,4.51,3.3,5.32,4.36,5.63.76.25,1.57.3,1.98.3.3,0,.56.05.56.3,0,.3-.46.41-1.01.41-.76,0-4.46,0-7.96-.1-.96-.05-1.52-.05-1.52-.36,0-.2.15-.3.36-.36.3-.1.61-.56.3-1.37l-4.72-12.47c-.1-.2-.2-.3-.46-.3h-10.9ZM270.89,482.79c.25,0,.25-.15.2-.36l-4.82-13.69c-.25-.76-.51-.76-.76,0l-4.46,13.69c-.1.25,0,.36.15.36h9.69Z"/>
    <path d="M298.88,475.95c0-7.91,0-9.33-.1-10.95-.1-1.72-.51-2.54-2.18-2.89-.41-.1-1.27-.15-1.72-.15-.2,0-.41-.1-.41-.3,0-.3.25-.41.81-.41,2.28,0,5.48.15,5.73.15.56,0,4.41-.15,5.98-.15,3.19,0,6.59.3,9.28,2.23,1.27.91,3.5,3.4,3.5,6.9,0,3.75-1.57,7.51-6.14,11.71,4.16,5.32,7.61,9.84,10.55,12.98,2.74,2.89,4.92,3.45,6.19,3.65.96.15,1.67.15,1.98.15.25,0,.46.15.46.3,0,.3-.31.41-1.22.41h-3.6c-2.84,0-4.11-.25-5.43-.96-2.18-1.17-3.96-3.65-6.85-7.45-2.13-2.79-4.51-6.19-5.53-7.51-.2-.2-.35-.3-.66-.3l-6.24-.1c-.25,0-.36.15-.36.41v1.22c0,4.87,0,8.87.25,11,.15,1.47.46,2.59,1.98,2.79.71.1,1.83.2,2.28.2.31,0,.41.15.41.3,0,.25-.25.41-.81.41-2.79,0-5.98-.15-6.24-.15-.05,0-3.24.15-4.77.15-.56,0-.81-.1-.81-.41,0-.15.1-.3.41-.3.46,0,1.07-.1,1.52-.2,1.01-.2,1.27-1.32,1.47-2.79.25-2.13.25-6.14.25-11v-8.92ZM302.94,480.36c0,.25.1.46.36.61.76.46,3.09.81,5.32.81,1.22,0,2.64-.15,3.8-.96,1.77-1.22,3.09-3.96,3.09-7.81,0-6.34-3.35-10.14-8.77-10.14-1.52,0-2.89.15-3.4.3-.25.1-.41.3-.41.61v16.58Z"/>
    <path d="M349.95,484.87c0,4.87,0,8.87.25,11,.15,1.47.46,2.59,1.98,2.79.71.1,1.83.2,2.28.2.31,0,.41.15.41.3,0,.25-.25.41-.81.41-2.79,0-5.98-.15-6.24-.15s-3.45.15-4.97.15c-.56,0-.81-.1-.81-.41,0-.15.1-.3.41-.3.46,0,1.06-.1,1.52-.2,1.01-.2,1.27-1.32,1.47-2.79.25-2.13.25-6.14.25-11v-21.45c-2.49.05-5.02.05-7.51.1-3.14.05-4.36.41-5.17,1.62-.56.86-.71,1.22-.86,1.57-.15.41-.3.51-.51.51-.15,0-.25-.15-.25-.46,0-.51,1.01-4.87,1.12-5.27.1-.3.3-.96.51-.96.36,0,.86.51,2.23.61,1.47.15,3.4.25,4.01.25h19.02c1.62,0,2.79-.1,3.6-.25.76-.1,1.22-.25,1.42-.25.25,0,.25.3.25.61,0,1.52-.15,5.02-.15,5.58,0,.46-.15.66-.35.66-.25,0-.36-.15-.41-.86,0-.2-.05-.36-.05-.56-.15-1.52-1.37-2.69-6.24-2.79-2.13-.05-4.26-.05-6.39-.1v21.45Z"/>
    <path d="M375.56,498.92c-.71-.36-.76-.56-.76-1.93,0-2.54.2-4.56.25-5.37.05-.56.15-.81.41-.81.31,0,.36.15.36.56,0,.46,0,1.17.15,1.88.76,3.75,4.11,5.17,7.51,5.17,4.87,0,7.25-3.5,7.25-6.74,0-3.5-1.47-5.53-5.83-9.13l-2.28-1.88c-5.38-4.41-6.59-7.56-6.59-11,0-5.43,4.06-9.13,10.5-9.13,1.98,0,3.45.2,4.72.51.96.2,1.37.25,1.77.25s.51.1.51.36-.2,1.93-.2,5.38c0,.81-.1,1.17-.36,1.17-.3,0-.35-.25-.41-.66-.05-.61-.36-1.98-.66-2.54-.3-.56-1.67-2.69-6.34-2.69-3.5,0-6.24,2.18-6.24,5.88,0,2.89,1.32,4.72,6.19,8.52l1.42,1.12c5.98,4.72,7.4,7.86,7.4,11.92,0,2.08-.81,5.93-4.31,8.42-2.18,1.52-4.92,2.13-7.66,2.13-2.38,0-4.72-.36-6.8-1.37Z"/>
  </g>
</svg>