<?xml version="1.0" encoding="UTF-8"?>
<svg id="Layer_1" xmlns="http://www.w3.org/2000/svg" version="1.1" viewBox="0 0 100 100">
  <!-- Generator: Adobe Illustrator 29.8.2, SVG Export Plug-In . SVG Version: 2.1.1 Build 3)  -->
  <defs>
    <style>
      .st0 {
        fill-opacity: 0;
      }

      .st0, .st1 {
        fill: #fff;
      }

      .st2 {
        fill: #8e8e94;
      }

      .st1 {
        fill-opacity: .9;
      }
    </style>
  </defs>
  <circle class="st2" cx="50" cy="50" r="50"/>
  <g>
    <rect class="st0" x="22.5" y="26" width="55" height="48"/>
    <path class="st1" d="M43.4,71.3h13.2v-14.5c0-1.1-.7-1.8-1.8-1.8h-9.6c-1.1,0-1.8.7-1.8,1.8v14.5ZM24.7,50.8c.7,0,1.3-.4,1.8-.8l22.7-19c.2-.2.5-.3.7-.3s.5,0,.7.3l22.7,19c.5.4,1.1.8,1.8.8,1.4,0,2.2-1,2.2-2.1s-.3-1.2-.8-1.7l-23.8-20c-.9-.7-1.9-1.1-2.9-1.1s-2,.4-2.9,1.1l-23.8,20c-.5.5-.8,1.1-.8,1.7,0,1.1.8,2.1,2.2,2.1ZM64.4,37.9l6.2,5.2v-10.4c0-1.1-.7-1.8-1.8-1.8h-2.6c-1.1,0-1.8.7-1.8,1.8v5.2ZM34.7,74h30.6c3.4,0,5.4-1.9,5.4-5.2v-25.1l-4.2-2.8v26.8c0,1.4-.7,2.1-2,2.1h-28.9c-1.3,0-2.1-.8-2.1-2.1v-26.8l-4.1,2.8v25.1c0,3.3,2,5.2,5.3,5.2Z"/>
  </g>
</svg>