<?xml version="1.0" encoding="UTF-8"?>
<svg id="Layer_1" xmlns="http://www.w3.org/2000/svg" version="1.1" viewBox="0 0 400 525">
  <!-- Generator: Adobe Illustrator 29.8.2, SVG Export Plug-In . SVG Version: 2.1.1 Build 3)  -->
  <defs>
    <style>
      .st0 {
        fill: #8d575f;
      }

      .st1 {
        fill: #fff;
      }
    </style>
  </defs>
  <g>
    <path class="st1" d="M124.46,396.08c8.26.26,23.65.92,39.04,1.18,11.88.2,23.77.23,35.64-.28,8.76-.37,17.46-1.09,26.21.09,18.29,2.46,36.64,1.89,54.93.26,15.01-1.34,29.93-2.01,44.96-.26,7.21.84,14.52.95,21.79,1,5.32.03,10.66-.46,15.97-.93,6.56-.58,13.07-1.59,18.33-6.06,10.51-8.92,16.49-20.2,17-34.08.48-13.08,1.01-26.17.94-39.25-.05-9.38-1.15-18.75-1.56-28.13-.21-4.78.07-9.57.12-14.36.09-9.59.13-19.18.25-28.77.13-10.6.58-21.2.45-31.8-.16-13.45-.8-26.9-1.15-40.35-.09-3.58.16-7.18.19-10.77.05-6.8-.2-13.62.17-20.4.27-5.04,1.63-10.02,1.94-15.06.39-6.41.42-12.87.21-19.29-.34-10.49-.68-21.01-1.6-31.46-1.15-13.03-2.43-26.08-4.49-38.98-2.58-16.15-15.76-32.62-33.37-35.83-10.29-1.87-20.48-3.2-31.01-2.26-14.67,1.31-29.4,2.31-44.13,2.65-9.64.22-19.31-1.19-28.99-1.48-10.22-.3-20.45-.15-30.68-.15-13.82,0-27.64-.12-41.45.13-19.54.36-39.08,1.14-58.62,1.48-13.89.24-27.79.04-41.69.05-10.5.01-21.02-.26-31.5.18-9.34.4-18.85-.07-27.81,3.58C12.77,11.55,5.06,20.15,2.2,32.34c-1.47,6.26-1.62,13.05-1.16,19.51,1.54,21.29.93,42.55,0,63.82-.61,13.91-1.3,27.82.72,41.68,1.42,9.74,1.2,19.46.23,29.23-.67,6.77-1.03,13.6-1.15,20.4-.21,11.88-.07,23.76-.22,35.63-.09,7.09-.68,14.17-.62,21.26.03,4.12,1.28,8.23,1.31,12.35.08,12.8-.2,25.61-.26,38.41-.03,6.26.63,12.58.02,18.78-1.23,12.44.78,24.49,3.67,36.41,2.5,10.33,8.03,18.9,18.7,22.26,6.62,2.08,13.66,3.71,20.55,3.84,24.44.45,48.89.18,80.48.18Z"/>
    <path class="st0" d="M124.46,396.08c-31.59,0-56.04.28-80.48-.18-6.89-.13-13.94-1.76-20.55-3.84-10.67-3.36-16.19-11.93-18.7-22.26-2.89-11.91-4.9-23.96-3.67-36.41.61-6.2-.05-12.52-.02-18.78.07-12.8.34-25.61.26-38.41-.03-4.12-1.27-8.23-1.31-12.35-.05-7.08.53-14.17.62-21.26.15-11.88,0-23.76.22-35.63.12-6.81.48-13.63,1.15-20.4.97-9.77,1.19-19.49-.23-29.23-2.02-13.86-1.33-27.76-.72-41.68.94-21.27,1.54-42.53,0-63.82-.47-6.46-.31-13.25,1.16-19.51C5.06,20.15,12.77,11.55,24.53,6.76c8.97-3.65,18.48-3.19,27.81-3.58,10.48-.44,21-.17,31.5-.18,13.9-.02,27.79.19,41.69-.05,19.54-.34,39.08-1.12,58.62-1.48,13.81-.25,27.63-.13,41.45-.13,10.23,0,20.46-.15,30.68.15,9.67.28,19.34,1.7,28.99,1.48,14.72-.33,29.45-1.33,44.13-2.65,10.54-.94,20.73.39,31.01,2.26,17.62,3.21,30.79,19.67,33.37,35.83,2.06,12.91,3.34,25.95,4.49,38.98.92,10.45,1.26,20.96,1.6,31.46.21,6.42.18,12.88-.21,19.29-.31,5.04-1.67,10.02-1.94,15.06-.37,6.78-.11,13.6-.17,20.4-.03,3.59-.29,7.18-.19,10.77.35,13.45.99,26.9,1.15,40.35.13,10.6-.31,21.2-.45,31.8-.12,9.59-.16,19.18-.25,28.77-.04,4.79-.33,9.59-.12,14.36.41,9.38,1.52,18.75,1.56,28.13.07,13.08-.47,26.17-.94,39.25-.51,13.88-6.49,25.16-17,34.08-5.26,4.47-11.77,5.47-18.33,6.06-5.31.47-10.65.97-15.97.93-7.27-.05-14.58-.15-21.79-1-15.03-1.76-29.95-1.09-44.96.26-18.29,1.63-36.64,2.21-54.93-.26-8.75-1.18-17.45-.47-26.21-.09-11.86.5-23.76.48-35.64.28-15.39-.26-30.78-.92-39.04-1.18ZM336.91,258.65c-.2-.3-.4-.59-.59-.89-.77-.18-1.54-.42-2.32-.54-4.19-.6-8.56-.61-12.54-1.87-7.32-2.32-14.6-2.68-22.11-1.7-1.46.19-3.19-.16-4.53-.8-5.05-2.4-10.29-4.02-15.86-4.51-1.54-.13-2.24-.6-2.65-2.38-2.43-10.76-4.42-21.6-10.1-31.42-2.61-4.51-3.69-9.9-5.58-15.22,1.77.1,3.47.17,5.18.29,4.66.33,9.32.71,13.98,1.01,2.67.17,5.36.03,8.01.35,14.09,1.71,28.18,3.43,42.24,5.34,9.65,1.31,19.26,2.94,28.88,4.46,2.09.33,4.14.98,6.23,1.17,2.14.2,5.2-2.4,4.76-4.4-.29-1.32-1.99-2.72-3.39-3.36-7.35-3.33-15.32-4.28-23.18-5.62-4.6-.79-6.42-2.58-7.15-7.23-.78-5-1.37-10.05-2.47-14.98-2.79-12.48-5.84-24.9-8.76-37.35-.18-.77-.2-1.59-.38-3.15,1.87,2.68,3.27,4.61,4.6,6.59,1.06,1.57,2.33,1.74,3.69.52,2.81-2.52,5.63-5.04,8.32-7.69,1.85-1.82,1.72-3.73-.3-5.47-1.61-1.39-3.17-2.84-4.75-4.27.1-.14.2-.28.3-.43,2.67.86,5.34,1.72,8.04,2.59,3.48-5.16,3.94-10.55,2.82-16.42-4.71.39-9.2.76-14.5,1.19,4.97-2.58,9.23-4.86,13.57-7,1.31-.65,1.87-1.21,1.25-2.71-2.33-5.59-4.78-11.02-11.19-13.15-.71-.23-1.27-.99-1.82-1.58-1.72-1.87-3.13-1.84-4.77.08-1.33,1.56-2.75,3.04-4.4,4.85-.75-3.57,1.1-7.81-3.66-8.97-3.33-.82-6.74-1.29-10.43-1.97.15.32.01.16.01,0,0-1.38.06-2.76.07-4.14.08-9.84.81-19.77-5.56-28.39-4.63-6.27-10.11-11.11-18.13-12.43-8.16-1.35-15.64.43-22.28,5.16-4.75,3.38-8.64,7.57-11.08,13.11-1.9,4.32-1.92,8.8-2.18,13.25-.35,5.88-.1,11.8-.1,17.7,0,4.67,0,9.33,0,14.16,2.99-.91,6.06-1.34,8.45-2.84.94-.59.35-3.6.48-5.51.01-.16.15-.32.05-.12,5.68.28,11.19.67,16.7.74,1.42.02,2.92-.89,4.26-1.61.5-.27,1.03-1.4.85-1.82-.27-.61-1.13-1.1-1.85-1.33-.66-.22-1.47.03-2.19-.05-4.47-.53-8.98-.85-13.37-1.73-3.74-.74-4.38-1.97-4.4-5.72-.01-2.86-.08-5.72-.08-8.58-.01-6.42.51-6.73,6.8-5.99,7.05.83,14.12,1.7,21.2,1.88,4.65.11,9.34-.98,14.46-1.59-.31,9.25-.63,18.9-.96,29.08-1.36-.78-2-1-2.44-1.43-1.77-1.68-3.55-1.46-5.13.09-3.09,3.02-6.18,6.06-9.03,9.29-2.55,2.9-2.3,3.82.8,6.16.22.17.47.29.71.43,2.56,1.5,5.12,3,7.73,4.53-3.85,2.23-7.62,4.41-11.63,6.73,2.28,4.34,4.4,8.31,6.44,12.32,1.15,2.27,2.58,2.77,4.86,1.45,2.95-1.7,6.03-3.17,9.57-5.01-5.48,21.47-10.79,42.3-16.05,62.92-.8.2-1.07.34-1.33.32-8.17-.52-16.34-1.1-24.52-1.56-1.91-.11-1.95-1.24-1.95-2.61-.02-5.17-.07-10.33-.08-15.5-.01-4.12,0-8.25,0-12.36q8.15,0,8.31-3.4c-1.81-.14-3.63-.32-5.45-.41-1.85-.1-2.57-.93-2.33-2.82.2-1.54.14-3.12.14-4.68.01-6.07,0-12.13,0-18.36,1.7.08,3.15.16,4.6.21,1.57.05,3.14.11,4.7.06,3.81-.11,5.96-2.48,5.86-6.46-4.14,1.86-8.4,1.67-12.71.88-1.47-.27-2.24-.87-2.22-2.53.02-1.87-.28-3.75-.43-5.45-2.59.83-5.07,1.5-7.43,2.46-.77.31-1.75,1.4-1.74,2.13.06,12.06.3,24.12.43,36.19.07,6.22.01,12.44.01,18.57-1.37-1.47-2.69-3.2-4.32-4.58-5.94-5.02-12.99-7.17-20.65-7.51-4.8-.21-5.94.26-7.57,4.65-2.16,5.84-3.91,11.83-5.81,17.77-.46,1.43-.72,2.75-2.78,2.78-7.64.11-15.29.3-22.92.64-1.77.08-2.66-.19-3.15-2.05-1.33-4.97-2.91-9.88-4.32-14.83-.91-3.21-2.14-4.02-5.42-3.36-1.9.38-3.8.72-5.69,1.12-6.29,1.32-11.99,3.5-15.46,9.53-5.88,10.21-10.15,21.03-12.53,32.57-.54,2.65-.35,5.44-.49,8.05-6.97,1.35-12.66-2.65-18.95-4.29-.12,2.58-1.25,2.77-3.17,1.62-1.46-.87-3.05-1.53-4.61-2.3-1.3,4.2-2.28,4.76-5.83,3.38-1.65-.64-1.98.32-2.12,1.53-.3,2.61-1.95,3.32-4.28,3.17-.6-.04-1.2,0-2.05,0,.57.91.98,1.58,1.7,2.72-1.67.11-2.97.27-4.28.28-2.03,0-4.17-.36-4.76,2.49-.09.41-.9.87-1.43.95-2.21.32-4.44.51-6.69.74-.7,1.32-1.43,2.68-2.15,4.05-3.41-2.47-3.64-2.45-4.86,1.29-.68,2.08-1.93,3.09-4.11,2.77-2.09-.31-3.5.43-4.47,2.35-1.24,2.47-3.28,3.91-6.12,4.09-.84.05-1.68.24-2.88.43,1.62,1.11,2.84,1.95,4.07,2.79l-.18.61c-1.42.14-2.83.29-4.08.41.48,2.49.96,4.96,1.47,7.58-.2.11-.8.44-1.45.81,1.39,2.86,2.7,5.54,4.14,8.48-1.43.21-2.37.35-3.36.49q3.56,7.98,2.03,11.68c.38.29.97.6,1.39,1.07,2.56,2.88,2.47,4.68.17,7.67-.5.65-.19,2.02-.08,3.04.2,1.8,1.4,4.46.65,5.21-1.99,1.97-1.2,3.18.13,4.63,1.86,2.02,1.64,3.93-.11,5.87-1.15,1.28-2.25,2.61-3.4,3.95,8.54,5.02,21.07,7.66,32.88,7.67,3.74,0,7.76.84,11.17,2.37,7.62,3.43,14.95,7.49,22.33,11.42.71.38,1.37,1.64,1.33,2.47-.13,2.94.64,5.64,3.33,6.75,2.52,1.04,5.57,1.85,8.17,1.42,7.7-1.29,15.31-3.16,22.91-4.97,4.78-1.14,5.29-2.33,3.65-7.06-1.41.66-2.76,1.53-4.24,1.95-6.02,1.7-12.07,3.33-18.14,4.82-1.48.36-3.13.29-4.67.14-4.71-.47-5.97-3.29-3.29-7.2,1.33-1.94,2.73-3.83,4.1-5.75-.13-.22-.27-.43-.4-.65-2.57.55-5.13,1.09-7.7,1.64-.08.41-.15.83-.23,1.24-7.73-4.6-15.46-9.2-23.16-13.84-.51-.3-.85-.92-1.18-1.45-3.48-5.52-3.47-11.66-3.27-17.88.14-4.3.11-8.63-.17-12.92-.08-1.23-1.28-2.38-1.97-3.57-2.51,11.47-4.44,22.54-1.79,34.48-4.32-.75-8.18-1.42-12.03-2.1-2.93-.51-5.88-.92-8.77-1.61-2.02-.48-4.05-1.18-5.86-2.17-.69-.38-.97-1.81-1.11-2.81-.27-1.83-.31-3.7-.44-5.56-.19-2.8-.61-5.61-.49-8.4.11-2.63,1.24-5.27-.91-7.63-.21-.23.01-.84,0-1.27-.08-2.46-.11-4.92-.26-7.37-.18-3.03-.68-6.05-.63-9.07.04-2.71.45-5.45,1.1-8.08.23-.95,1.62-2.28,2.51-2.3,9.91-.17,19.44,1.4,28.03,6.82.91.58,2.32,1.11,3.24.83,6.79-2.08,13.56-.42,20.32-.11,1.68.08,3.34.7,4.44.94.23,4.87.25,9.28.69,13.64.77,7.68,1.67,15.36,2.78,23.01.53,3.63.47,7.02-.51,10.62-.81,2.95-.78,6.2-.62,9.29.06,1.07,1.52,2.75,2.58,2.96,2.68.53,5.53.71,8.25.44,6.69-.65,13.32-1.8,20.01-2.39,2.62-.23,3.59-1.2,3.5-3.63-.41-11.04-.84-22.08-1.21-33.12-.08-2.55-.14-5.12.15-7.65.34-2.92.98-5.81,1.65-8.68,2.22-9.55,7.14-17.45,16.83-20.17,7.16-2,14.9-1.95,22.39-2.65.85-.08,1.8.92,2.7,1.42-.62.96-1.06,2.51-1.9,2.76-2.24.67-4.65.78-6.99,1.13-2.52.37-5.05.66-7.54,1.17-1.89.39-3.7,1.12-5.57,1.61-6.01,1.57-10.63,4.81-12.34,11.02-1.19,4.33-2.01,8.78-2.75,13.21-1.98,11.8,1.54,23.44,1.17,35.25-.27,8.51.89,17.06,1.35,25.59.19,3.44.34,3.68,3.77,3.6,1.01-.02,2.04-.05,3.03-.26,6.57-1.4,13.15-2.76,19.69-4.3,8.92-2.09,10.17-1.37,12.1,7.5.99,4.54.3,6.46-4.01,8.07-7.84,2.93-15.79,5.57-23.75,8.15-2.22.72-4.18-.32-5.47-2.31-1.16-1.79-1.23-3.52.06-5.39,1.69-2.44,3.17-5.01,4.98-7.89-1.97.64-3.42,1.42-4.91,1.53-3.36.25-5.14,2.4-6.22,5.07-2.1,5.22-1.54,11.35,4.82,13.47,2.36.79,5.1,1.22,7.54.89,9.79-1.33,18.71-5.29,27.39-9.83,4.82-2.52,6.1-5.88,5.98-11.3-.12-5.56-4.58-9.58-4.11-15.46.47-5.79-.86-11.71-1.25-17.59-.44-6.68-.71-13.36-1.08-20.55-2.25,1.07-4,1.9-5.75,2.73-.45.06-.91.12-1.36.18,4.09-4.37-1.5-5.23-1.77-8.3,2.26.34,4.27.64,6.07.91v-5.7c1.97,1.72,3.77,3.43,5.74,4.93.68.52,1.89.87,2.68.65,5.19-1.42,10.09-3.5,14.25-7.04,7.3-6.21,9.51-14.66,6.18-23.72-.54-1.48-1.14-2.94-1.86-4.79,5.02.72,9.58,1.33,14.12,2.07.71.12,1.62.67,1.92,1.28,1.79,3.62,3.99,7.18,4.97,11.03,1.03,4.02.87,8.35,1.18,12.55.3,4.06,2.02,5.68,5.76,5.28,2.96-.32,5.47-1.32,7.14-4.07,1.23-2.04,2.77-2.72,5.53-1.88,6.02,1.83,12.22,1.6,18.19-.66,3.07-1.16,3.82-3.23,2.37-6.17-1.62-3.31-4.34-5.28-7.75-6.64-3.4-1.34-6.71-2.98-9.88-4.79-1.35-.77-2.24-2.34-3.35-3.54.2-.29.41-.59.61-.88,2.79.82,5.65,1.48,8.36,2.51,3.76,1.43,7.56,1.98,11.58,2.15,5.88.26,11.78.9,17.56,1.98,4.05.75,7.93,2.48,11.27,6.15-5.52,2.69-10.49,5.27-15.61,7.53-2.72,1.2-4.68,2.82-6.43,5.3-1.61,2.29-4.07,4.25-6.58,5.55-2.55,1.33-5.6,1.76-8.46,2.45-5.28,1.28-9.96,3.73-14.31,6.93-.63.47-1.9.68-2.59.37-7.74-3.42-15.85-4.7-24.24-4.65-2.41.02-4.5-.51-6.49-2.29-3.56-3.2-7.8-2.81-11.7.26,2.69,1.79,5.44,3.79,8.35,5.49,1.42.83,3.14,1.53,4.76,1.61,9.57.47,18.64,3.2,26.99,5.49.38,2.71.46,4.96,1.06,7.05.7,2.43.94,4.71-.41,6.92-1.53,2.5-1.07,4.62.81,6.77,2.67,3.06,2.79,4.5.02,7.39-4,4.19-4,8.44-1.56,13.4.99,2.01,1.58,4.75,1.08,6.85-1.44,6-3.22,11.86-.74,18.26-1.07-.19-1.69-.26-2.3-.4-7.21-1.72-13.38-5.67-19.6-9.43-6.89-4.15-10.88-10.2-11.06-18.44-.09-3.96-.06-7.93-.21-11.89-.08-2.01-.46-4.01-.7-6.01-4.12,10.85-3.86,21.66-.28,33.08-4.56-.41-8.73-.79-12.93-1.17q-1.28,3.03-8.48,6.9c7.58,2.6,14.93,3.47,22.56,3.22,3.18-.1,6.64.55,9.54,1.82,5.19,2.28,10.12,5.19,15.05,8.03,7.24,4.17,14.99,3.33,22.95,2.94-.65-1.24-1.11-2.13-1.77-3.39h3.92c-1.46-2.05-.67-2.92,1.22-3.25.82-.14,1.63-.33,2.45-.43,5.2-.62,8.36-5.2,6.97-10.07h9.09c-.77-4.27,5.02-10.56,10.5-11.96-.11-.86.06-1.96-.41-2.6-1.23-1.69-.37-2.89.85-3.7,1.15-.76,2.6-1.13,3.97-1.49,1.75-.46,3.59-.65,5.32-1.17.56-.17,1.41-1.23,1.29-1.51-1.48-3.27,1.2-3.81,3.08-4.69,2.3-1.07,3.4-2.43,2.89-5.16-.2-1.07.58-2.72,1.45-3.5,1.73-1.55,3.83-2.68,5.84-4.03-.23-.4-.38-.86-.68-1.19-1.97-2.09-2.2-4.19-.27-6.48,1.16-1.38.75-2.68-.1-4.23-.53-.96-.51-3.08.16-3.67,1.38-1.23,1.21-2.36,1.08-3.86-.14-1.52.21-3.09.33-4.64.04-.6.07-1.2.04-1.79-.04-.87-.14-1.73-.25-3-2.63-2.22-2.63-2.46.52-6.27-1.54-1.03-3.04-1.96-.78-3.89.63-.54.64-1.82.93-2.76-.95-.29-1.77-.55-2.92-.9.96-1.8,2.43-3.33,2.36-4.8-.06-1.4-1.71-2.74-2.75-4.24.48-.62,1.25-1.6,2.33-2.99-3.14-1.49-5.97-2.83-8.52-4.04.8-.63,1.91-1.49,3.02-2.35ZM49.03,129.78c-.16-.28-.33-.56-.49-.84,1.97-2.86,3.85-5.79,5.92-8.58,7.91-10.66,14.14-22.15,18.2-34.84.66-2.08,2.43-4.28,4.3-5.41,8.75-5.3,16.61-11.61,23.6-19.06,2.38-2.54,5.04-4.81,7.65-7.28,1.18.99,2.12,1.87,3.14,2.63,9.59,7.13,18.57,15.25,29.66,20.06,4.08,1.77,6.86,4.3,9.01,8,2.15,3.71,4.58,7.27,6.84,10.82,2.15-2.79,4.1-5.31,6.11-7.91-1.41-1.63-3.09-3.25-4.4-5.13-5.18-7.43-11.49-13.33-20.43-15.91-.44-.13-.84-.37-1.26-.56-5.47-2.53-10-6.34-14.65-10.44.63-.14.9-.25,1.17-.26,9.76-.26,19.51-.57,29.27-.73,10.04-.16,20.09-.17,30.13-.24,8.04-.05,15.89.87,22.64,5.71,5.54,3.97,10.96,8.12,16.26,12.42,2.63,2.13,5.01,4.63,7.23,7.2,3.68,4.24,7.11,8.7,10.71,13.01,1.09,1.31,2.43,2.5,4.26,1.25,1.82-1.23,1.33-2.97.45-4.43-2.93-4.9-5.98-9.72-9.03-14.55-.44-.69-1.03-1.32-1.65-1.86-5.68-4.97-11.35-9.93-17.08-14.84-1.89-1.62-4.21-2.8-5.85-4.62-4.51-5.01-10.27-6.46-16.65-6.59-15.39-.32-30.78-.71-46.18-.99-10.78-.2-21.57-.38-32.35-.32-3.48.02-7.06-.14-10.09,2.65-4.26,3.94-8.86,7.51-13.37,11.16-5.93,4.79-11.34,10.23-18.5,13.42-2.47,1.1-5.02,3.13-6.36,5.42-3.06,5.22-5.3,10.91-8.03,16.33-5.69,11.29-11.8,22.27-20.74,31.48-2.3,2.37-3.32,6.03-4.74,9.18-.23.52.26,1.64.76,2.17,2.74,2.88,6.04,2.16,9.27,1.13,2.24-.72,4.41-1.68,6.5-2.49.73,9.65,1.65,19.09,2.1,28.55.38,7.98.24,15.99.29,23.98.01,1.67-.84,2.75-2.56,3.08-1.35.26-2.69.6-4.04.85-6.66,1.27-13.32,2.56-20,3.74-1.87.33-2.49,1.53-2.51,3.08-.02,1.82,1.13,2.91,2.94,2.98,2.3.09,4.63.2,6.89-.09,4.75-.6,9.44-1.73,14.2-2.17,12.57-1.16,25.15-2.13,37.74-3.03,2.58-.18,5.22.48,7.83.46,7.34-.05,14.69-.34,22.03-.35,8.11-.01,16.23.19,24.34.25.65,0,1.68-.19,1.9-.62,1.12-2.14,2.02-4.38,3.11-6.83-2.02-.17-3.44-.3-4.64-.4-.98-12.39-1.93-24.45-2.89-36.58-10.12,3.26-11.15,3.36-15.34,1.41-2.26,2.37-4.57,4.86-6.95,7.29-1.32,1.35-2.87,2.13-4.65.85-4.08-2.91-8.11-5.89-12.16-8.84.07-.23.14-.47.21-.7,7.2-.38,14.41-.75,21.4-1.12-.41-2.49-.75-4.55-1.12-6.83-1.61,0-3.43.07-5.24-.01-6.65-.29-13.29,1.57-20-.55-4.61-1.45-8.89,2.56-8.62,7.43.39,6.99.88,13.98,1.34,20.96.36,5.38.74,10.76,1.14,16.49h-22.64c-.44-2.52-.97-4.84-1.24-7.19-.79-6.86-1.53-13.72-2.21-20.59-.92-9.21-1.8-18.42-2.62-27.64-.21-2.37-1.55-3.9-4.03-4.02-1.73-.08-3.47-.02-5.2-.02ZM157.9,123.08c21.07-7.99,42.94-11.4,65.29-14.55-1.73-3-3.63-5.63-4.86-8.54-3.12-7.37-8.54-12.23-15.53-15.79-5.11-2.6-9.97-3.02-15.23-.37-2.92,1.47-6.17,2.84-9.35,3.06-4.81.34-8.93,2.27-11.95,5.36-8.36,8.55-8.44,19.65-8.37,30.83ZM268.05,101.6c-2.56.57-4.98,1.04-7.37,1.67-15.71,4.13-31.06,9.61-47.36,11.49-7.09.82-14.02,2.99-21.03,4.55-7.63,1.7-15.33,3.16-22.89,5.14-10.05,2.63-18.8,8.86-29.2,10.7-3.5.62-6.86,2.03-10.3,2.99-1.97.55-2.69,1.86-2.91,3.95,2.56-.43,4.87-.82,7.17-1.21-.17,1.3-.58,2.36-1.33,2.7-1.98.88-4.14,1.34-6.13,2.19-.95.4-2.35,1.26-2.39,1.96-.08,1.68,1.06,3.06,2.92,2.91,1.62-.14,3.25-.65,4.78-1.23,2.83-1.08,5.57-2.4,8.39-3.5,7.36-2.86,14.75-5.63,22.11-8.5,5.3-2.08,10.41-4.83,15.87-6.29,9.39-2.5,18.98-4.28,28.5-6.25,15.86-3.29,31.72-6.55,47.61-9.66,2.35-.46,3.47-1.49,4.17-3.63,1.05-3.26,3.23-4.79,6.53-4.95,3.52-.16,4.08-1.05,2.85-5.02ZM110.65,119.3c0-.13,0-.26,0-.4,2.85,0,5.71.1,8.55-.03,2.79-.12,4.62-2.36,4.44-5.15-.36-5.6-.63-11.2-1.16-16.78-.09-.95-1.28-2.5-2.04-2.56-5.56-.39-11.15-.62-16.73-.55-2.35.03-3.88,1.69-3.9,4.21-.04,4.51-.2,9.03.1,13.52.49,7.17.63,7.16,7.7,7.52,1.01.05,2.02.14,3.03.22ZM223.45,128.89c.35,2.5.88,4.76.89,7.03,0,1.12-.93,2.24-1.44,3.36-.91-.6-1.81-1.22-2.73-1.8-.57-.35-1.48-1.05-1.7-.89-.56.43-1.01,1.22-1.14,1.93-.13.67.19,1.43.34,2.15,1.69,8.32-.34,15.38-6.31,18.53-4.9,2.59-10.23,4.63-15.6,6.01-8.56,2.2-15.37-.94-20.07-8.46-2.73-4.37-5.43-8.77-8.08-13.19-.68-1.13-1.3-2.11-2.76-1.24-1.29.76-2.2,1.74-1.27,3.37,2.95,5.19,5.78,10.46,8.92,15.54,1.18,1.91,2.97,3.51,4.69,5.01,4.01,3.48,8.81,4.87,14.07,4.7,7.33-.23,14.25-2.19,20.54-5.82,7.86-4.53,11.28-11.83,11.53-20.62,4.63-2.07,5.69-3.7,5.53-8.61-.05-1.56-.27-3.12-.54-4.66-.52-2.91-2.06-3.6-4.89-2.33ZM201.34,152c-4.27,1.19-8.54,2.38-12.98,3.62.49,2.88,2.8,3.01,4.81,3.21,3.24.32,7.37-2.62,8.17-6.83ZM207.22,133.92c-.49-.81-.69-1.36-1.07-1.7-2.09-1.9-8.17-.75-9.25,1.81-.31.75-.47,2.1-.06,2.49.58.54,1.82.71,2.67.53,1.94-.39,3.84-1.01,5.71-1.69.73-.26,1.31-.93,1.99-1.44ZM185.29,140.72c-.44-.84-.62-1.68-.95-1.74-1.8-.35-3.74-.96-5.43-.59-1.22.26-2.25,1.83-3.12,3-.26.35.08,1.53.51,1.91.39.34,1.32.23,1.95.08,1.67-.38,3.34-.82,4.96-1.38.75-.26,1.38-.84,2.09-1.29ZM190.18,150.04c2.02-.75,3.76-1.29,5.39-2.07.43-.2.5-1.14.74-1.73-.6-.16-1.26-.56-1.8-.44-1.49.33-2.97.79-4.4,1.36-.67.26-1.2.87-1.79,1.31.61.52,1.21,1.03,1.85,1.57Z"/>
    <path class="st1" d="M336.91,258.65c-1.11.86-2.22,1.73-3.02,2.35,2.56,1.21,5.38,2.55,8.52,4.04-1.08,1.39-1.85,2.37-2.33,2.99,1.04,1.5,2.69,2.83,2.75,4.24.06,1.47-1.41,3-2.36,4.8,1.14.35,1.97.61,2.92.9-.29.94-.3,2.22-.93,2.76-2.26,1.93-.75,2.86.78,3.89-3.15,3.81-3.15,4.05-.52,6.27.11,1.27.21,2.13.25,3,.03.6,0,1.2-.04,1.79-.12,1.55-.46,3.12-.33,4.64.13,1.5.3,2.63-1.08,3.86-.67.6-.69,2.71-.16,3.67.85,1.55,1.26,2.85.1,4.23-1.93,2.29-1.7,4.38.27,6.48.3.32.46.78.68,1.19-2.01,1.35-4.12,2.48-5.84,4.03-.87.78-1.65,2.43-1.45,3.5.51,2.74-.59,4.1-2.89,5.16-1.89.87-4.56,1.42-3.08,4.69.12.27-.73,1.34-1.29,1.51-1.73.52-3.57.7-5.32,1.17-1.37.36-2.82.72-3.97,1.49-1.22.81-2.08,2-.85,3.7.46.64.29,1.74.41,2.6-5.47,1.4-11.26,7.69-10.5,11.96h-9.09c1.38,4.87-1.77,9.45-6.97,10.07-.82.1-1.63.29-2.45.43-1.89.33-2.68,1.2-1.22,3.25h-3.92c.66,1.26,1.12,2.15,1.77,3.39-7.97.39-15.71,1.24-22.95-2.94-4.93-2.84-9.86-5.75-15.05-8.03-2.9-1.28-6.36-1.93-9.54-1.82-7.63.25-14.98-.62-22.56-3.22q7.2-3.87,8.48-6.9c4.21.38,8.38.76,12.93,1.17-3.58-11.41-3.84-22.22.28-33.08.24,2,.62,4,.7,6.01.16,3.96.13,7.93.21,11.89.18,8.24,4.18,14.29,11.06,18.44,6.22,3.75,12.39,7.7,19.6,9.43.61.14,1.23.22,2.3.4-2.48-6.4-.7-12.27.74-18.26.51-2.1-.09-4.84-1.08-6.85-2.45-4.95-2.44-9.21,1.56-13.4,2.77-2.9,2.65-4.34-.02-7.39-1.88-2.15-2.34-4.27-.81-6.77,1.35-2.21,1.11-4.49.41-6.92-.6-2.1-.68-4.35-1.06-7.05-8.35-2.29-17.41-5.02-26.99-5.49-1.62-.08-3.33-.78-4.76-1.61-2.91-1.71-5.66-3.7-8.35-5.49,3.89-3.06,8.13-3.46,11.7-.26,1.99,1.78,4.08,2.31,6.49,2.29,8.39-.06,16.51,1.23,24.24,4.65.69.31,1.96.1,2.59-.37,4.35-3.2,9.03-5.65,14.31-6.93,2.86-.69,5.91-1.12,8.46-2.45,2.5-1.3,4.96-3.27,6.58-5.55,1.75-2.48,3.71-4.1,6.43-5.3,5.12-2.26,10.09-4.85,15.61-7.53-3.35-3.67-7.22-5.4-11.27-6.15-5.78-1.08-11.69-1.72-17.56-1.98-4.02-.18-7.83-.72-11.58-2.15-2.71-1.03-5.56-1.69-8.36-2.51-.2.29-.41.59-.61.88,1.1,1.2,2,2.77,3.35,3.54,3.17,1.82,6.48,3.45,9.88,4.79,3.42,1.35,6.13,3.33,7.75,6.64,1.45,2.95.69,5.01-2.37,6.17-5.97,2.26-12.17,2.49-18.19.66-2.77-.84-4.3-.16-5.53,1.88-1.66,2.75-4.18,3.76-7.14,4.07-3.73.4-5.45-1.22-5.76-5.28-.32-4.2-.15-8.53-1.18-12.55-.98-3.85-3.18-7.41-4.97-11.03-.3-.61-1.22-1.16-1.92-1.28-4.54-.74-9.1-1.35-14.12-2.07.72,1.84,1.32,3.3,1.86,4.79,3.32,9.05,1.12,17.5-6.18,23.72-4.16,3.54-9.06,5.62-14.25,7.04-.79.22-2-.13-2.68-.65-1.97-1.5-3.77-3.21-5.74-4.93v5.7c-1.8-.27-3.81-.57-6.07-.91.26,3.08,5.85,3.93,1.77,8.3.45-.06.91-.12,1.36-.18,1.75-.83,3.5-1.66,5.75-2.73.37,7.19.64,13.88,1.08,20.55.39,5.87,1.72,11.8,1.25,17.59-.47,5.87,3.99,9.89,4.11,15.46.11,5.42-1.17,8.77-5.98,11.3-8.68,4.55-17.6,8.5-27.39,9.83-2.44.33-5.18-.1-7.54-.89-6.36-2.12-6.92-8.25-4.82-13.47,1.08-2.67,2.86-4.83,6.22-5.07,1.5-.11,2.95-.89,4.91-1.53-1.8,2.88-3.29,5.46-4.98,7.89-1.29,1.86-1.22,3.6-.06,5.39,1.29,1.99,3.25,3.03,5.47,2.31,7.96-2.58,15.91-5.21,23.75-8.15,4.3-1.61,5-3.54,4.01-8.07-1.93-8.87-3.18-9.59-12.1-7.5-6.54,1.53-13.12,2.9-19.69,4.3-.98.21-2.02.23-3.03.26-3.43.08-3.59-.16-3.77-3.6-.46-8.53-1.62-17.08-1.35-25.59.38-11.81-3.14-23.45-1.17-35.25.74-4.43,1.56-8.88,2.75-13.21,1.71-6.21,6.33-9.45,12.34-11.02,1.87-.49,3.68-1.22,5.57-1.61,2.49-.51,5.03-.8,7.54-1.17,2.34-.35,4.75-.46,6.99-1.13.83-.25,1.28-1.8,1.9-2.76-.9-.5-1.85-1.5-2.7-1.42-7.5.7-15.24.65-22.39,2.65-9.7,2.71-14.61,10.62-16.83,20.17-.67,2.87-1.31,5.76-1.65,8.68-.29,2.52-.23,5.1-.15,7.65.37,11.04.8,22.08,1.21,33.12.09,2.43-.89,3.4-3.5,3.63-6.69.59-13.33,1.74-20.01,2.39-2.72.26-5.57.09-8.25-.44-1.06-.21-2.52-1.88-2.58-2.96-.17-3.09-.19-6.34.62-9.29.98-3.59,1.04-6.98.51-10.62-1.11-7.64-2.01-15.32-2.78-23.01-.44-4.36-.46-8.77-.69-13.64-1.1-.25-2.76-.87-4.44-.94-6.76-.31-13.53-1.97-20.32.11-.92.28-2.32-.25-3.24-.83-8.59-5.42-18.12-6.99-28.03-6.82-.88.01-2.27,1.35-2.51,2.3-.65,2.63-1.06,5.37-1.1,8.08-.05,3.02.45,6.04.63,9.07.15,2.45.18,4.91.26,7.37.01.43-.21,1.04,0,1.27,2.14,2.36,1.02,5,.91,7.63-.12,2.79.3,5.6.49,8.4.13,1.85.17,3.72.44,5.56.15,1,.42,2.43,1.11,2.81,1.81.99,3.84,1.69,5.86,2.17,2.89.69,5.84,1.09,8.77,1.61,3.86.68,7.71,1.35,12.03,2.1-2.65-11.94-.72-23.01,1.79-34.48.69,1.19,1.89,2.34,1.97,3.57.28,4.29.31,8.62.17,12.92-.2,6.22-.21,12.36,3.27,17.88.33.53.68,1.15,1.18,1.45,7.71,4.64,15.44,9.23,23.16,13.84.08-.41.15-.83.23-1.24,2.57-.55,5.13-1.09,7.7-1.64.13.22.27.43.4.65-1.37,1.91-2.77,3.81-4.1,5.75-2.69,3.92-1.42,6.74,3.29,7.2,1.54.15,3.19.23,4.67-.14,6.08-1.5,12.12-3.12,18.14-4.82,1.48-.42,2.83-1.29,4.24-1.95,1.64,4.73,1.13,5.92-3.65,7.06-7.61,1.81-15.21,3.68-22.91,4.97-2.59.43-5.65-.38-8.17-1.42-2.69-1.11-3.46-3.8-3.33-6.75.04-.82-.63-2.09-1.33-2.47-7.38-3.93-14.71-8-22.33-11.42-3.41-1.53-7.43-2.37-11.17-2.37-11.82,0-24.35-2.65-32.88-7.67,1.14-1.33,2.24-2.67,3.4-3.95,1.75-1.94,1.97-3.84.11-5.87-1.33-1.45-2.12-2.66-.13-4.63.76-.75-.45-3.41-.65-5.21-.11-1.02-.42-2.39.08-3.04,2.3-2.99,2.39-4.79-.17-7.67-.42-.47-1.01-.78-1.39-1.07q1.53-3.7-2.03-11.68c.99-.14,1.94-.28,3.36-.49-1.43-2.94-2.74-5.62-4.14-8.48.65-.36,1.25-.7,1.45-.81-.51-2.62-.99-5.09-1.47-7.58,1.25-.13,2.66-.27,4.08-.41l.18-.61c-1.23-.84-2.45-1.68-4.07-2.79,1.2-.18,2.03-.37,2.88-.43,2.84-.18,4.88-1.62,6.12-4.09.97-1.92,2.38-2.66,4.47-2.35,2.18.32,3.43-.7,4.11-2.77,1.22-3.73,1.45-3.76,4.86-1.29.73-1.37,1.45-2.73,2.15-4.05,2.25-.24,4.48-.42,6.69-.74.53-.08,1.35-.54,1.43-.95.59-2.85,2.73-2.48,4.76-2.49,1.31,0,2.61-.16,4.28-.28-.71-1.14-1.13-1.81-1.7-2.72.85,0,1.45-.03,2.05,0,2.33.15,3.98-.56,4.28-3.17.14-1.22.47-2.18,2.12-1.53,3.55,1.39,4.53.83,5.83-3.38,1.56.77,3.15,1.42,4.61,2.3,1.93,1.16,3.06.96,3.17-1.62,6.29,1.64,11.98,5.64,18.95,4.29.14-2.6-.05-5.4.49-8.05,2.37-11.53,6.65-22.35,12.53-32.57,3.47-6.02,9.17-8.21,15.46-9.53,1.89-.4,3.8-.73,5.69-1.12,3.28-.66,4.51.16,5.42,3.36,1.4,4.95,2.99,9.86,4.32,14.83.49,1.85,1.38,2.12,3.15,2.05,7.64-.34,15.28-.53,22.92-.64,2.06-.03,2.33-1.35,2.78-2.78,1.9-5.94,3.64-11.93,5.81-17.77,1.63-4.39,2.76-4.87,7.57-4.65,7.66.34,14.71,2.49,20.65,7.51,1.63,1.37,2.95,3.11,4.32,4.58,0-6.13.06-12.35-.01-18.57-.13-12.06-.37-24.12-.43-36.19,0-.73.97-1.81,1.74-2.13,2.36-.96,4.83-1.62,7.43-2.46.15,1.7.45,3.58.43,5.45-.02,1.67.75,2.27,2.22,2.53,4.31.79,8.57.98,12.71-.88.1,3.98-2.05,6.34-5.86,6.46-1.57.05-3.14-.02-4.7-.06-1.45-.04-2.9-.13-4.6-.21,0,6.22,0,12.29,0,18.36,0,1.56.06,3.14-.14,4.68-.25,1.89.48,2.73,2.33,2.82,1.82.09,3.64.27,5.45.41q-.15,3.41-8.31,3.4c0,4.12-.01,8.24,0,12.36.02,5.17.06,10.33.08,15.5,0,1.37.04,2.5,1.95,2.61,8.18.46,16.35,1.04,24.52,1.56.26.02.52-.12,1.33-.32,5.26-20.62,10.58-41.45,16.05-62.92-3.55,1.84-6.63,3.31-9.57,5.01-2.28,1.32-3.71.82-4.86-1.45-2.03-4.01-4.16-7.97-6.44-12.32,4.01-2.32,7.78-4.5,11.63-6.73-2.61-1.53-5.17-3.03-7.73-4.53-.24-.14-.49-.27-.71-.43-3.09-2.34-3.34-3.27-.8-6.16,2.85-3.24,5.94-6.27,9.03-9.29,1.58-1.55,3.36-1.77,5.13-.09.45.42,1.08.65,2.44,1.43.34-10.18.66-19.83.96-29.08-5.13.61-9.81,1.7-14.46,1.59-7.08-.17-14.16-1.04-21.2-1.88-6.29-.74-6.81-.43-6.8,5.99,0,2.86.07,5.72.08,8.58.02,3.75.66,4.97,4.4,5.72,4.4.87,8.91,1.2,13.37,1.73.73.09,1.53-.17,2.19.05.71.24,1.57.72,1.85,1.33.19.42-.34,1.55-.85,1.82-1.33.72-2.83,1.63-4.26,1.61-5.51-.06-11.02-.46-16.7-.74.1-.2-.04-.04-.05.12-.12,1.91.46,4.92-.48,5.51-2.39,1.51-5.46,1.93-8.45,2.84,0-4.83,0-9.5,0-14.16,0-5.9-.25-11.82.1-17.7.26-4.44.28-8.93,2.18-13.25,2.44-5.55,6.33-9.73,11.08-13.11,6.65-4.73,14.12-6.51,22.28-5.16,8.01,1.32,13.49,6.16,18.13,12.43,6.37,8.62,5.63,18.55,5.56,28.39-.01,1.38-.06,2.76-.07,4.14,0,.16.14.32-.01,0,3.69.68,7.1,1.16,10.43,1.97,4.75,1.16,2.91,5.4,3.66,8.97,1.65-1.81,3.07-3.29,4.4-4.85,1.64-1.91,3.05-1.95,4.77-.08.54.59,1.11,1.34,1.82,1.58,6.41,2.14,8.86,7.57,11.19,13.15.63,1.51.07,2.07-1.25,2.71-4.34,2.14-8.6,4.42-13.57,7,5.3-.44,9.79-.8,14.5-1.19,1.12,5.88.66,11.26-2.82,16.42-2.71-.87-5.37-1.73-8.04-2.59-.1.14-.2.28-.3.43,1.58,1.42,3.14,2.87,4.75,4.27,2.02,1.74,2.15,3.65.3,5.47-2.69,2.65-5.51,5.17-8.32,7.69-1.37,1.22-2.63,1.05-3.69-.52-1.34-1.97-2.73-3.91-4.6-6.59.18,1.56.19,2.38.38,3.15,2.92,12.45,5.96,24.87,8.76,37.35,1.1,4.93,1.69,9.98,2.47,14.98.73,4.65,2.55,6.45,7.15,7.23,7.86,1.34,15.83,2.3,23.18,5.62,1.4.63,3.1,2.03,3.39,3.36.43,2-2.63,4.6-4.76,4.4-2.1-.2-4.14-.84-6.23-1.17-9.62-1.52-19.23-3.15-28.88-4.46-14.06-1.91-28.15-3.63-42.24-5.34-2.64-.32-5.34-.18-8.01-.35-4.66-.3-9.32-.68-13.98-1.01-1.7-.12-3.41-.19-5.18-.29,1.89,5.32,2.97,10.71,5.58,15.22,5.68,9.82,7.67,20.66,10.1,31.42.4,1.78,1.1,2.24,2.65,2.38,5.57.49,10.81,2.11,15.86,4.51,1.35.64,3.07.99,4.53.8,7.51-.97,14.79-.61,22.11,1.7,3.98,1.26,8.35,1.27,12.54,1.87.78.11,1.55.35,2.32.54.2.3.4.59.59.89ZM284.4,354.85c-1.4.53-2.58.96-3.75,1.42-2.56,1.02-2.66,1.55-.99,3.64.38.47.67,1.39.47,1.89-.81,2.03-.13,3.33.86,3.85,3.2-2.17,6.08-3.98,8.8-6.01,1.13-.84,2.18-2,2.81-3.25,1.18-2.35,2.86-3.51,5.49-3.33.89.06,1.79,0,2.79,0-.25-3.44,1.46-5.02,4.28-5.84,2.28-.67,4.42-1.68,4.73-4.43.55-4.93,3.5-7.7,7.94-9.27,3.05-1.08,4.95-3.25,6.29-6.2,1.05-2.32,2.31-4.69,4.02-6.52,3.81-4.07,3.95-3.94,1.63-8.86,3.38-3.62,3.16-7.87,1.88-12.37-.47-1.64-.92-3.61-.42-5.1.37-1.11,2.28-1.7,2.84-2.08-.53-4.06-1.04-7.81-1.52-11.55-.26-2.01-.33-4.06-.8-6.02-.14-.61-1.48-1.53-1.94-1.37-4.96,1.72-8.9,5.52-14.02,6.97-.11.03-.17.27-.25.42-.23.24-.46.48-.7.71,1.11.57,2.23,1.14,3.87,1.98q-12.35,2.2-14.65,7.46c-2.09-.15-4.25-.31-6.39-.47q-.28,3.8-4.25,4.19c-.92.09-1.94-.01-2.72.36-1.79.85-3.58,1.78-5.13,2.98-1.03.8-1.64,2.14-2.54,3.37.46.38,1.19.98,2.23,1.85-1.42.08-2.55-.14-3.39.26-1.05.5-1.85,1.52-2.75,2.31.68.76,1.24,1.69,2.06,2.22.9.59,2.1.7,3.06,1.22.55.3,1.1.95,1.22,1.53.06.29-.77.95-1.31,1.15-1.07.4-2.22.6-3.34.89-.22.36-.45.72-.67,1.07,1.07.6,2.14,1.21,3.34,1.89-.78.65-1.25,1.06-1.75,1.45-2.53,1.99-2.61,3.09-.35,5.33.39.39.86.71,1.21,1.13,1.56,1.85,1.26,4.77-.58,5.99-2.86,1.88-2.97,5.33-.26,7.47,1.05.83,2.05,1.72,3.07,2.59-3.41,3.75-3.35,3.71-.67,7.33.39.52.2,1.88-.24,2.5-.52.73-1.58,1.08-2.66,1.76,1.02,1.13,1.92,2.13,3.14,3.48ZM317.97,122.39c.35-.15.7-.31,1.05-.46,2.5,3.81,5.03,7.61,7.51,11.44,2.69,4.16,3.55,4.28,7.18.86.13-.13.27-.25.4-.39,3.36-3.46,3.36-3.94-.21-7.12-2.66-2.36-5.39-4.65-8.08-6.98.07-.12.14-.25.21-.37,4.99,1.12,9.99,2.24,15.17,3.41.63-2.52,1.2-4.79,1.76-7-6.65-.59-13.11-1.15-19.56-1.72,0-.21-.01-.41-.02-.62,5.86-3.64,11.73-7.27,17.93-11.12-2.45-2.33-4.59-4.31-6.66-6.36-2.04-2.01-3.9-2.01-5.74.25-1.03,1.27-2.19,2.44-3.2,3.73-1.82,2.34-3.57,4.73-5.35,7.1-.14-.12-.28-.24-.42-.37.56-5.82,1.12-11.64,1.71-17.79h-12.4c.6,7.01,1.16,13.5,1.72,20-.41.16-.82.33-1.23.49-.53-.74-1.01-1.53-1.6-2.22-2.32-2.74-4.65-5.49-7.05-8.16-.82-.91-1.77-2.15-3.18-.65-2.62,2.78-5.25,5.54-7.89,8.32,4.63,2.75,9.08,5.39,14.09,8.37-5.18,2.36-9.56,4.35-14.16,6.44,1.94,3.02,3.55,5.53,5.11,7.98,5.55-3.09,10.44-6.71,16.85-8.47-2.25,15.05-4.39,29.34-6.56,43.84,5.62.44,11.33.89,17.43,1.37-1.63-14.97-3.21-29.39-4.78-43.8ZM142.01,229.76c-2.3-.4-5.08-.14-6.86-1.35-3.57-2.42-7.72-2.93-11.47-3.22-4.56-.36-9.29,1.34-13.93,2.24-.54.11-1.08.74-1.43,1.26-1.81,2.7-4.55,3.84-7.48,4.87-2.66.93-5.19,2.25-7.79,3.36-1.65.71-3.32,1.35-4.97,2.04-.73.3-2.04.59-2.06.96-.23,3.43-3.17,3.61-5.36,4.67-1.57.77-2.9,1.62-2.36,3.7.32.13.57.3.83.33,8.88,1.05,17.25,3.62,25.05,8.04.76.43,1.96.32,2.9.15,8.19-1.45,16.38-2.1,23.82-.3,2.17-4.1,4.22-8.03,6.33-11.94.82-1.51,2.1-2.87,2.56-4.47.93-3.23,1.45-6.58,2.24-10.33ZM265.53,278.17c2.72.5,4.27-.68,5.18-2.87,1.19-2.89,3.34-3.6,6.24-3.02,3.69.74,7.4,1.43,11.13,1.97,1.32.19,2.79.1,4.03-.32.58-.2,1.31-1.91,1.07-2.22-1.58-2-2.57-4.61-5.54-5.29-1.95-.45-3.78-1.43-5.7-2.06-4.59-1.51-7.66-4.21-8.88-9.19-3.84-15.73-8.82-31.1-15.17-46.01-.73-1.71-1.44-1.86-3.08-1.48-5.57,1.29-9.56,4.83-13.23,8.67,1.35,2.46,2.81,4.72,3.85,7.15,1.25,2.95,1.81,6.22,3.25,9.06,4.18,8.28,8.54,16.48,13.06,24.58,2.08,3.73,4.21,7.28,3.83,11.82-.25,3.05-.05,6.13-.05,9.21ZM254.11,199.24c-1.89-6.38-3.78-13.27-8.14-18.99-1.84-2.41-4.21-4.73-6.85-6.16-6.17-3.34-10.11-1.63-12.32,5.05-1.35,4.1-2.3,8.33-3.24,12.55-.21.93.12,2.25.69,3.04,3.25,4.44,6.64,8.76,9.99,13.12.96,1.25,1.94,2.49,2.46,3.17,6.04-4.09,11.62-7.86,17.4-11.77ZM171.49,214.45c1.11-4.07,2.33-7.48,2.93-11,.6-3.49,1.18-7.19.67-10.63-.67-4.5-2.46-8.83-3.67-13.27-.53-1.92-1.74-2.53-3.24-1.51-3,2.04-6.72,3.79-8.52,6.67-3.65,5.83-6.23,12.34-9.48,19.04,8.82,1.03,15.37,4.88,21.32,10.69ZM302.94,57.52c-2.7-8.34-11.82-15.94-22.55-13.59-8.47,1.86-17.21,8.9-16.4,13.48,12.82,2.15,25.71,2.58,38.95.11ZM247.83,245.9c-1.61-4.13-3.19-7.56-4.29-11.12-2.47-7.99-5.97-15.42-11.14-22.01-.85-1.08-2.12-1.83-3.2-2.73-.47,1.38-1.48,2.83-1.31,4.12,1,7.63,2.17,15.25,3.54,22.82.33,1.81,1.21,4.45,2.53,4.97,4.3,1.7,8.92,2.61,13.88,3.94ZM298.07,194.03c9.72.75,19.12,1.48,28.9,2.23-.41-2.35-.97-4.47-1.09-6.61-.12-2.05-1.01-3.02-2.96-3.18-6.95-.59-13.9-1.23-20.86-1.71-.56-.04-1.52.9-1.75,1.57-.84,2.42-1.45,4.92-2.24,7.7ZM146.64,221.81c.17.06.34.11.52.17.07.91.14,1.83.21,2.74.14,1.86.89,2.54,2.67,1.48,4.88-2.9,9.92-4.17,15.5-1.87.87.36,3.21-.55,3.2-.75-.13-1.77,1.75-3.65-.24-5.32-4.24-3.56-8.66-6.77-13.99-8.62-2.42-.84-4.06-.34-4.85,1.97-1.15,3.35-2.03,6.79-3.02,10.2ZM171.69,240.94c-.14-7.99-4.93-12.82-12.45-13.17-6.7-.31-12.64,4.59-13.51,11.31,8.74-1.93,17.5-4.23,25.95,1.86ZM325.49,180.22c-.54-2.13-.88-4.03-1.56-5.8-.24-.62-1.3-1.3-2-1.32-5.76-.11-11.52-.06-17.81-.06-.46,1.31-1.18,3.39-1.99,5.72,8.09.5,15.56.97,23.36,1.45ZM187.13,198.51c-3.15.03-6.39,2.66-6.38,5.18.01,2.16,2.54,3.77,5.85,3.72,2.57-.04,5.08-2.67,4.95-5.2-.08-1.74-2.45-3.71-4.43-3.7ZM214.06,207.93c3.05.04,4.92-1.28,4.96-3.5.04-2.72-2.6-5.67-5.03-5.62-2.14.05-4.97,2.74-4.95,4.71.02,2.16,2.55,4.37,5.02,4.4Z"/>
    <path class="st1" d="M49.03,129.78c1.73,0,3.47-.07,5.2.02,2.48.12,3.82,1.66,4.03,4.02.82,9.22,1.7,18.43,2.62,27.64.68,6.87,1.42,13.74,2.21,20.59.27,2.35.8,4.67,1.24,7.19h22.64c-.4-5.73-.78-11.11-1.14-16.49-.46-6.99-.95-13.97-1.34-20.96-.27-4.87,4.01-8.88,8.62-7.43,6.72,2.12,13.35.26,20,.55,1.81.08,3.63.01,5.24.01.37,2.28.71,4.34,1.12,6.83-7,.37-14.2.74-21.4,1.12-.07.23-.14.47-.21.7,4.05,2.95,8.09,5.93,12.16,8.84,1.78,1.27,3.33.5,4.65-.85,2.37-2.43,4.69-4.92,6.95-7.29,4.19,1.95,5.21,1.85,15.34-1.41.96,12.13,1.91,24.2,2.89,36.58,1.2.1,2.63.23,4.64.4-1.09,2.45-2,4.7-3.11,6.83-.22.43-1.25.62-1.9.62-8.12-.06-16.23-.26-24.34-.25-7.34.01-14.68.31-22.03.35-2.61.02-5.24-.64-7.83-.46-12.59.89-25.17,1.87-37.74,3.03-4.76.44-9.45,1.57-14.2,2.17-2.27.29-4.6.17-6.89.09-1.81-.07-2.95-1.16-2.94-2.98.02-1.54.64-2.75,2.51-3.08,6.68-1.18,13.34-2.48,20-3.74,1.35-.26,2.69-.59,4.04-.85,1.72-.33,2.57-1.41,2.56-3.08-.05-8,.09-16-.29-23.98-.45-9.46-1.37-18.9-2.1-28.55-2.09.81-4.26,1.77-6.5,2.49-3.23,1.04-6.53,1.75-9.27-1.13-.5-.52-.99-1.65-.76-2.17,1.43-3.15,2.44-6.8,4.74-9.18,8.94-9.22,15.05-20.2,20.74-31.48,2.73-5.42,4.98-11.11,8.03-16.33,1.34-2.29,3.89-4.32,6.36-5.42,7.16-3.19,12.57-8.63,18.5-13.42,4.52-3.65,9.11-7.22,13.37-11.16,3.02-2.79,6.61-2.63,10.09-2.65,10.78-.06,21.57.12,32.35.32,15.39.28,30.78.67,46.18.99,6.37.13,12.13,1.58,16.65,6.59,1.64,1.82,3.96,3,5.85,4.62,5.73,4.9,11.4,9.87,17.08,14.84.62.54,1.21,1.17,1.65,1.86,3.04,4.83,6.09,9.66,9.03,14.55.87,1.46,1.37,3.2-.45,4.43-1.84,1.24-3.17.06-4.26-1.25-3.6-4.32-7.03-8.77-10.71-13.01-2.22-2.57-4.6-5.06-7.23-7.2-5.3-4.29-10.72-8.45-16.26-12.42-6.75-4.84-14.6-5.76-22.64-5.71-10.05.06-20.09.07-30.13.24-9.76.16-19.51.47-29.27.73-.27,0-.54.12-1.17.26,4.64,4.1,9.17,7.91,14.65,10.44.42.19.82.43,1.26.56,8.94,2.58,15.26,8.48,20.43,15.91,1.31,1.88,2.99,3.5,4.4,5.13-2.01,2.6-3.96,5.12-6.11,7.91-2.26-3.55-4.69-7.11-6.84-10.82-2.15-3.71-4.93-6.23-9.01-8-11.09-4.82-20.07-12.93-29.66-20.06-1.02-.76-1.96-1.63-3.14-2.63-2.61,2.47-5.26,4.74-7.65,7.28-6.99,7.45-14.85,13.76-23.6,19.06-1.87,1.13-3.64,3.33-4.3,5.41-4.06,12.69-10.29,24.18-18.2,34.84-2.07,2.79-3.95,5.72-5.92,8.58.16.28.33.56.49.84ZM99.3,188.94c10.29-.32,19.78-.61,28.88-.9-4.68-4.96-9.39-9.94-14.43-15.28-4.74,5.31-9.3,10.42-14.44,16.18ZM92.76,159.51c.56,9.09,1.08,17.47,1.59,25.86.36.06.72.13,1.08.19,3.47-5.03,6.93-10.06,10.37-15.05-4.09-3.45-8.21-6.92-13.04-11ZM130.51,155.76c-4.26,4.5-7.88,8.32-11.26,11.89,4.47,5.2,8.5,9.87,12.47,14.49-.39-8.48-.78-17-1.21-26.38Z"/>
    <path class="st1" d="M157.9,123.08c-.07-11.17.02-22.28,8.37-30.83,3.02-3.09,7.14-5.02,11.95-5.36,3.19-.23,6.44-1.6,9.35-3.06,5.26-2.65,10.12-2.23,15.23.37,6.98,3.56,12.41,8.42,15.53,15.79,1.23,2.91,3.12,5.53,4.86,8.54-22.35,3.15-44.22,6.56-65.29,14.55Z"/>
    <path class="st1" d="M268.05,101.6c1.23,3.97.67,4.86-2.85,5.02-3.3.15-5.48,1.69-6.53,4.95-.69,2.14-1.82,3.17-4.17,3.63-15.89,3.1-31.75,6.37-47.61,9.66-9.53,1.97-19.11,3.75-28.5,6.25-5.46,1.45-10.57,4.21-15.87,6.29-7.35,2.88-14.75,5.64-22.11,8.5-2.82,1.1-5.56,2.42-8.39,3.5-1.53.58-3.16,1.1-4.78,1.23-1.87.16-3-1.23-2.92-2.91.03-.71,1.44-1.56,2.39-1.96,2-.84,4.16-1.3,6.13-2.19.74-.33,1.15-1.4,1.33-2.7-2.3.39-4.61.78-7.17,1.21.22-2.09.94-3.4,2.91-3.95,3.45-.96,6.8-2.37,10.3-2.99,10.4-1.83,19.15-8.07,29.2-10.7,7.56-1.98,15.26-3.44,22.89-5.14,7.01-1.56,13.94-3.73,21.03-4.55,16.3-1.87,31.65-7.36,47.36-11.49,2.39-.63,4.82-1.09,7.37-1.67Z"/>
    <path class="st1" d="M110.65,119.3c-1.01-.07-2.02-.16-3.03-.22-7.07-.36-7.22-.35-7.7-7.52-.3-4.49-.14-9.01-.1-13.52.02-2.52,1.55-4.18,3.9-4.21,5.58-.06,11.16.17,16.73.55.77.05,1.95,1.61,2.04,2.56.54,5.58.8,11.18,1.16,16.78.18,2.78-1.65,5.02-4.44,5.15-2.85.13-5.7.03-8.55.03,0,.13,0,.26,0,.4Z"/>
    <path class="st1" d="M223.45,128.89c2.83-1.27,4.37-.59,4.89,2.33.27,1.54.49,3.1.54,4.66.16,4.91-.91,6.54-5.53,8.61-.25,8.79-3.67,16.09-11.53,20.62-6.3,3.63-13.22,5.58-20.54,5.82-5.26.17-10.06-1.22-14.07-4.7-1.72-1.5-3.51-3.1-4.69-5.01-3.14-5.07-5.97-10.34-8.92-15.54-.93-1.63-.01-2.6,1.27-3.37,1.46-.87,2.08.12,2.76,1.24,2.65,4.42,5.35,8.81,8.08,13.19,4.7,7.52,11.51,10.66,20.07,8.46,5.37-1.38,10.69-3.42,15.6-6.01,5.96-3.15,7.99-10.21,6.31-18.53-.15-.72-.46-1.48-.34-2.15.13-.71.58-1.49,1.14-1.93.21-.16,1.13.53,1.7.89.92.58,1.82,1.2,2.73,1.8.51-1.12,1.45-2.24,1.44-3.36-.02-2.26-.54-4.52-.89-7.03Z"/>
    <path class="st1" d="M201.34,152c-.8,4.21-4.93,7.15-8.17,6.83-2.01-.2-4.32-.34-4.81-3.21,4.44-1.24,8.71-2.43,12.98-3.62Z"/>
    <path class="st1" d="M207.22,133.92c-.69.51-1.27,1.18-1.99,1.44-1.86.68-3.77,1.3-5.71,1.69-.86.17-2.09,0-2.67-.53-.41-.38-.26-1.74.06-2.49,1.08-2.56,7.16-3.72,9.25-1.81.38.35.57.9,1.07,1.7Z"/>
    <path class="st1" d="M185.29,140.72c-.71.45-1.35,1.03-2.09,1.29-1.62.56-3.28,1-4.96,1.38-.64.15-1.56.25-1.95-.08-.43-.38-.77-1.56-.51-1.91.87-1.17,1.9-2.73,3.12-3,1.7-.37,3.63.24,5.43.59.33.07.52.91.95,1.74Z"/>
    <path class="st1" d="M190.18,150.04c-.64-.54-1.24-1.06-1.85-1.57.59-.45,1.12-1.05,1.79-1.31,1.43-.56,2.9-1.03,4.4-1.36.54-.12,1.2.28,1.8.44-.24.6-.32,1.53-.74,1.73-1.63.78-3.37,1.32-5.39,2.07Z"/>
    <path class="st0" d="M284.4,354.85c-1.22-1.35-2.12-2.35-3.14-3.48,1.08-.68,2.15-1.02,2.66-1.76.43-.61.62-1.97.24-2.5-2.68-3.62-2.73-3.58.67-7.33-1.03-.87-2.02-1.76-3.07-2.59-2.71-2.14-2.61-5.59.26-7.47,1.85-1.22,2.14-4.14.58-5.99-.35-.42-.82-.74-1.21-1.13-2.26-2.25-2.18-3.34.35-5.33.49-.39.97-.8,1.75-1.45-1.2-.68-2.27-1.28-3.34-1.89.22-.36.45-.72.67-1.07,1.12-.28,2.27-.48,3.34-.89.54-.2,1.37-.86,1.31-1.15-.12-.58-.67-1.23-1.22-1.53-.96-.52-2.16-.64-3.06-1.22-.82-.53-1.39-1.47-2.06-2.22.91-.79,1.71-1.81,2.75-2.31.83-.4,1.96-.18,3.39-.26-1.04-.87-1.77-1.47-2.23-1.85.9-1.23,1.51-2.57,2.54-3.37,1.55-1.21,3.34-2.14,5.13-2.98.79-.37,1.81-.27,2.72-.36q3.97-.4,4.25-4.19c2.14.16,4.3.32,6.39.47q2.3-5.26,14.65-7.46c-1.65-.84-2.76-1.41-3.87-1.98.23-.24.46-.48.7-.71.08-.14.14-.38.25-.42,5.12-1.45,9.06-5.25,14.02-6.97.46-.16,1.8.77,1.94,1.37.46,1.96.54,4.01.8,6.02.48,3.75.98,7.49,1.52,11.55-.55.37-2.47.97-2.84,2.08-.5,1.5-.04,3.46.42,5.1,1.28,4.5,1.5,8.75-1.88,12.37,2.32,4.92,2.18,4.79-1.63,8.86-1.72,1.83-2.98,4.21-4.02,6.52-1.33,2.95-3.24,5.12-6.29,6.2-4.44,1.57-7.39,4.34-7.94,9.27-.31,2.75-2.45,3.76-4.73,4.43-2.81.82-4.52,2.4-4.28,5.84-1,0-1.9.05-2.79,0-2.63-.18-4.3.98-5.49,3.33-.63,1.25-1.68,2.41-2.81,3.25-2.72,2.03-5.59,3.84-8.8,6.01-.99-.52-1.67-1.82-.86-3.85.2-.5-.09-1.42-.47-1.89-1.68-2.09-1.57-2.62.99-3.64,1.17-.46,2.35-.89,3.75-1.42Z"/>
    <path class="st0" d="M317.97,122.39c1.57,14.41,3.15,28.83,4.78,43.8-6.1-.48-11.82-.93-17.43-1.37,2.17-14.5,4.31-28.79,6.56-43.84-6.4,1.77-11.3,5.38-16.85,8.47-1.57-2.45-3.18-4.96-5.11-7.98,4.6-2.09,8.98-4.08,14.16-6.44-5.01-2.98-9.46-5.62-14.09-8.37,2.64-2.78,5.27-5.55,7.89-8.32,1.41-1.5,2.36-.26,3.18.65,2.41,2.67,4.73,5.42,7.05,8.16.59.69,1.07,1.48,1.6,2.22.41-.16.82-.33,1.23-.49-.56-6.49-1.12-12.99-1.72-20h12.4c-.59,6.15-1.15,11.97-1.71,17.79.14.12.28.24.42.37,1.78-2.37,3.53-4.77,5.35-7.1,1.01-1.29,2.17-2.46,3.2-3.73,1.84-2.26,3.71-2.26,5.74-.25,2.08,2.05,4.22,4.03,6.66,6.36-6.2,3.85-12.06,7.48-17.93,11.12,0,.21.01.41.02.62,6.46.57,12.91,1.14,19.56,1.72-.55,2.21-1.13,4.48-1.76,7-5.18-1.16-10.18-2.28-15.17-3.41-.07.12-.14.25-.21.37,2.7,2.32,5.42,4.61,8.08,6.98,3.58,3.18,3.57,3.66.21,7.12-.13.13-.26.26-.4.39-3.63,3.42-4.49,3.3-7.18-.86-2.48-3.83-5-7.63-7.51-11.44-.35.15-.7.31-1.05.46Z"/>
    <path class="st0" d="M142.01,229.76c-.78,3.75-1.3,7.1-2.24,10.33-.46,1.6-1.74,2.95-2.56,4.47-2.1,3.9-4.16,7.83-6.33,11.94-7.43-1.79-15.62-1.15-23.82.3-.94.17-2.14.28-2.9-.15-7.81-4.42-16.18-6.99-25.05-8.04-.26-.03-.51-.2-.83-.33-.54-2.08.79-2.93,2.36-3.7,2.18-1.07,5.12-1.24,5.36-4.67.02-.37,1.34-.66,2.06-.96,1.66-.69,3.33-1.33,4.97-2.04,2.6-1.12,5.13-2.43,7.79-3.36,2.93-1.03,5.67-2.17,7.48-4.87.35-.52.88-1.15,1.43-1.26,4.64-.9,9.37-2.59,13.93-2.24,3.75.29,7.9.8,11.47,3.22,1.78,1.21,4.56.95,6.86,1.35Z"/>
    <path class="st0" d="M265.53,278.17c0-3.08-.2-6.16.05-9.21.37-4.54-1.75-8.08-3.83-11.82-4.52-8.1-8.88-16.3-13.06-24.58-1.44-2.84-2-6.11-3.25-9.06-1.03-2.44-2.5-4.69-3.85-7.15,3.67-3.84,7.66-7.38,13.23-8.67,1.64-.38,2.35-.23,3.08,1.48,6.36,14.91,11.33,30.29,15.17,46.01,1.22,4.98,4.29,7.68,8.88,9.19,1.92.63,3.74,1.61,5.7,2.06,2.97.68,3.96,3.29,5.54,5.29.24.31-.49,2.03-1.07,2.22-1.24.42-2.71.51-4.03.32-3.73-.54-7.43-1.23-11.13-1.97-2.9-.58-5.05.13-6.24,3.02-.9,2.19-2.46,3.37-5.18,2.87Z"/>
    <path class="st0" d="M254.11,199.24c-5.78,3.91-11.36,7.68-17.4,11.77-.52-.67-1.5-1.92-2.46-3.17-3.35-4.36-6.75-8.69-9.99-13.12-.57-.78-.89-2.11-.69-3.04.94-4.22,1.89-8.45,3.24-12.55,2.21-6.68,6.15-8.39,12.32-5.05,2.64,1.43,5.01,3.75,6.85,6.16,4.37,5.73,6.25,12.61,8.14,18.99Z"/>
    <path class="st0" d="M171.49,214.45c-5.95-5.81-12.5-9.66-21.32-10.69,3.25-6.69,5.82-13.2,9.48-19.04,1.8-2.88,5.52-4.63,8.52-6.67,1.5-1.02,2.71-.41,3.24,1.51,1.21,4.43,3.01,8.76,3.67,13.27.51,3.44-.07,7.13-.67,10.63-.6,3.51-1.81,6.92-2.93,11Z"/>
    <path class="st0" d="M302.94,57.52c-13.24,2.48-26.13,2.04-38.95-.11-.8-4.58,7.93-11.62,16.4-13.48,10.72-2.36,19.85,5.25,22.55,13.59Z"/>
    <path class="st0" d="M247.83,245.9c-4.96-1.34-9.58-2.24-13.88-3.94-1.32-.52-2.2-3.16-2.53-4.97-1.37-7.58-2.54-15.19-3.54-22.82-.17-1.29.84-2.74,1.31-4.12,1.08.9,2.35,1.65,3.2,2.73,5.18,6.58,8.68,14.02,11.14,22.01,1.1,3.57,2.68,6.99,4.29,11.12Z"/>
    <path class="st0" d="M298.07,194.03c.79-2.78,1.4-5.28,2.24-7.7.23-.67,1.19-1.61,1.75-1.57,6.96.48,13.91,1.11,20.86,1.71,1.96.17,2.84,1.13,2.96,3.18.13,2.14.69,4.26,1.09,6.61-9.78-.75-19.19-1.48-28.9-2.23Z"/>
    <path class="st0" d="M146.64,221.81c.99-3.4,1.88-6.85,3.02-10.2.79-2.32,2.43-2.81,4.85-1.97,5.32,1.86,9.75,5.06,13.99,8.62,1.99,1.67.12,3.55.24,5.32.01.2-2.33,1.11-3.2.75-5.58-2.3-10.62-1.03-15.5,1.87-1.78,1.06-2.54.38-2.67-1.48-.07-.91-.14-1.83-.21-2.74-.17-.06-.34-.11-.52-.17Z"/>
    <path class="st0" d="M171.69,240.94c-8.46-6.09-17.21-3.79-25.95-1.86.87-6.72,6.81-11.62,13.51-11.31,7.51.35,12.3,5.18,12.45,13.17Z"/>
    <path class="st0" d="M325.49,180.22c-7.81-.49-15.28-.95-23.36-1.45.81-2.33,1.54-4.41,1.99-5.72,6.29,0,12.06-.05,17.81.06.7.01,1.76.69,2,1.32.68,1.77,1.02,3.66,1.56,5.8Z"/>
    <path class="st0" d="M187.13,198.51c1.97-.02,4.35,1.96,4.43,3.7.12,2.53-2.38,5.16-4.95,5.2-3.31.05-5.84-1.56-5.85-3.72-.01-2.51,3.23-5.15,6.38-5.18Z"/>
    <path class="st0" d="M214.06,207.93c-2.47-.03-5-2.25-5.02-4.4-.02-1.97,2.81-4.66,4.95-4.71,2.43-.05,5.07,2.9,5.03,5.62-.03,2.21-1.9,3.53-4.96,3.5Z"/>
    <path class="st0" d="M99.3,188.94c5.14-5.76,9.7-10.87,14.44-16.18,5.05,5.34,9.75,10.33,14.43,15.28-9.1.28-18.59.58-28.88.9Z"/>
    <path class="st0" d="M92.76,159.51c4.83,4.08,8.95,7.55,13.04,11-3.44,4.99-6.9,10.02-10.37,15.05-.36-.06-.72-.13-1.08-.19-.52-8.39-1.03-16.77-1.59-25.86Z"/>
    <path class="st0" d="M130.51,155.76c.43,9.39.82,17.9,1.21,26.38-3.98-4.62-8-9.3-12.47-14.49,3.38-3.57,7-7.39,11.26-11.89Z"/>
  </g>
  <g>
    <path d="M5.3,433.73c0-7.05,0-8.31-.09-9.76-.09-1.54-.32-2.26-1.81-2.58-.36-.09-1.13-.14-1.54-.14-.32,0-.5-.09-.5-.27,0-.27.23-.36.72-.36,2.03,0,4.88.14,5.1.14.54,0,3.39-.14,6.1-.14,4.47,0,12.74-.41,18.12,5.15,2.26,2.35,4.38,6.1,4.38,11.47,0,5.69-2.35,10.07-4.88,12.74-1.94,2.03-6.01,5.2-13.69,5.2-1.94,0-4.34-.14-6.28-.27-1.99-.14-3.52-.27-3.75-.27-.09,0-.86,0-1.81.05-.9,0-1.94.09-2.62.09-.5,0-.72-.09-.72-.36,0-.14.09-.27.45-.27.5-.04.86-.09,1.26-.18.9-.18,1.13-1.17,1.31-2.48.23-1.9.23-5.47.23-9.8v-7.95ZM9.1,438.61c0,4.79.05,8.94.09,9.8.05,1.13.14,2.94.5,3.43.59.86,2.35,1.81,7.68,1.81,4.2,0,8.09-1.54,10.75-4.2,2.35-2.3,3.61-6.64,3.61-10.8,0-5.74-2.49-9.44-4.34-11.38-4.25-4.47-9.4-5.1-14.77-5.1-.9,0-2.58.14-2.94.32-.41.18-.54.41-.54.9-.05,1.54-.05,6.14-.05,9.62v5.6Z"/>
    <path d="M50.57,433.73c0-7.05,0-8.31-.09-9.76-.09-1.54-.45-2.26-1.94-2.58-.32-.09-.9-.09-1.31-.14-.32-.05-.59-.09-.59-.27,0-.27.23-.36.72-.36,1.04,0,2.26,0,5.1.14.32,0,9.31,0,10.35-.05.99-.05,1.81-.14,2.08-.27s.36-.18.5-.18.18.18.18.41c0,.32-.27.86-.36,2.12-.05.68-.09,1.54-.18,2.71-.04.45-.18.77-.36.77-.27,0-.36-.23-.36-.59,0-.59-.09-1.13-.23-1.49-.32-1.04-1.27-1.49-3.25-1.67-.77-.09-5.69-.14-6.19-.14-.18,0-.27.14-.27.45v12.47c0,.32.05.45.27.45.59,0,6.14,0,7.18-.09,1.22-.09,1.81-.23,2.26-.77.23-.27.36-.45.54-.45.14,0,.23.09.23.36s-.23,1.04-.36,2.53c-.14,1.4-.14,2.44-.18,3.07-.05.45-.14.68-.32.68-.27,0-.32-.36-.32-.72,0-.41-.05-.86-.18-1.27-.18-.68-.72-1.31-2.35-1.49-1.22-.14-5.69-.23-6.46-.23-.23,0-.32.14-.32.32v3.98c0,1.54-.05,6.78,0,7.73.09,1.85.36,2.85,1.49,3.3.77.32,1.99.41,3.75.41,1.36,0,2.85-.05,4.07-.41,1.45-.45,1.94-1.4,2.3-3.34.09-.5.18-.68.41-.68.27,0,.27.36.27.68,0,.36-.36,3.43-.59,4.38-.32,1.17-.68,1.17-2.44,1.17-3.34,0-4.83-.09-6.6-.14-1.81-.05-3.88-.14-5.65-.14-1.08,0-2.17.18-3.34.14-.5,0-.72-.09-.72-.36,0-.14.23-.23.5-.27.45-.04.72-.04,1.04-.14.95-.23,1.54-.86,1.63-4.25.05-1.76.09-4.07.09-8.09v-7.95Z"/>
    <path d="M85.49,441.46c-.23,0-.36.14-.45.36l-2.71,8c-.41,1.13-.63,2.21-.63,3.03,0,.9.86,1.31,1.63,1.31h.41c.45,0,.59.09.59.27,0,.27-.41.36-.81.36-1.08,0-2.89-.14-3.39-.14s-2.98.14-5.1.14c-.59,0-.86-.09-.86-.36,0-.18.23-.27.63-.27.32,0,.72-.04,1.08-.09,2.08-.27,2.98-1.99,3.79-4.25l10.25-28.05c.54-1.49.72-1.76.99-1.76s.45.23.99,1.63c.68,1.72,7.77,20.37,10.53,27.24,1.63,4.02,2.94,4.74,3.89,5.01.68.23,1.4.27,1.76.27.27,0,.5.05.5.27,0,.27-.41.36-.9.36-.68,0-3.98,0-7.09-.09-.86-.05-1.36-.05-1.36-.32,0-.18.14-.27.32-.32.27-.09.54-.5.27-1.22l-4.2-11.11c-.09-.18-.18-.27-.41-.27h-9.71ZM94.62,439.83c.23,0,.23-.14.18-.32l-4.29-12.2c-.23-.68-.45-.68-.68,0l-3.98,12.2c-.09.23,0,.32.14.32h8.63Z"/>
    <path d="M117.62,441.46c0-16.31.09-10.44.04-19.2,0-1.76.14-2.26.5-2.26s1.13.99,1.58,1.45c.68.77,7.41,8.04,14.37,15.5,4.47,4.79,9.4,10.3,10.84,11.79l-.5-22.95c-.05-2.94-.36-3.93-1.76-4.29-.81-.18-1.54-.23-1.94-.23-.5,0-.63-.14-.63-.32,0-.27.36-.32.9-.32,2.03,0,4.2.14,4.7.14s1.99-.14,3.84-.14c.5,0,.81.05.81.32,0,.18-.18.27-.5.32-.36.05-.63.09-1.17.18-1.27.27-1.58.95-1.58,4.07l-.09,26.38c0,2.98-.09,3.21-.41,3.21-.36,0-.9-.5-3.3-2.89-.5-.45-7-7.09-11.79-12.24-5.24-5.65-10.35-11.34-11.79-12.97l.59,21.64c.09,3.7.54,4.88,1.76,5.24.86.23,1.85.27,2.26.27.23,0,.36.09.36.27,0,.27-.27.36-.81.36-2.58,0-4.38-.14-4.79-.14s-2.3.14-4.34.14c-.45,0-.72-.05-.72-.36,0-.18.14-.27.36-.27.36,0,1.17-.04,1.85-.27,1.13-.32,1.36-1.63,1.36-5.74v-6.69Z"/>
    <path d="M164.92,441.46c0-16.31.09-10.44.04-19.2,0-1.76.14-2.26.5-2.26s1.13.99,1.58,1.45c.68.77,7.41,8.04,14.37,15.5,4.47,4.79,9.4,10.3,10.84,11.79l-.5-22.95c-.05-2.94-.36-3.93-1.76-4.29-.81-.18-1.54-.23-1.94-.23-.5,0-.63-.14-.63-.32,0-.27.36-.32.9-.32,2.03,0,4.2.14,4.7.14s1.99-.14,3.84-.14c.5,0,.81.05.81.32,0,.18-.18.27-.5.32-.36.05-.63.09-1.17.18-1.27.27-1.58.95-1.58,4.07l-.09,26.38c0,2.98-.09,3.21-.41,3.21-.36,0-.9-.5-3.3-2.89-.5-.45-7-7.09-11.79-12.24-5.24-5.65-10.35-11.34-11.79-12.97l.59,21.64c.09,3.7.54,4.88,1.76,5.24.86.23,1.85.27,2.26.27.23,0,.36.09.36.27,0,.27-.27.36-.81.36-2.58,0-4.38-.14-4.79-.14s-2.3.14-4.34.14c-.45,0-.72-.05-.72-.36,0-.18.14-.27.36-.27.36,0,1.17-.04,1.85-.27,1.13-.32,1.36-1.63,1.36-5.74v-6.69Z"/>
    <path d="M215.79,441.46c-.23,0-.36.14-.45.36l-2.71,8c-.41,1.13-.63,2.21-.63,3.03,0,.9.86,1.31,1.63,1.31h.41c.45,0,.59.09.59.27,0,.27-.41.36-.81.36-1.08,0-2.89-.14-3.39-.14s-2.98.14-5.11.14c-.59,0-.86-.09-.86-.36,0-.18.23-.27.63-.27.32,0,.72-.04,1.08-.09,2.08-.27,2.98-1.99,3.79-4.25l10.26-28.05c.54-1.49.72-1.76.99-1.76s.45.23.99,1.63c.68,1.72,7.77,20.37,10.53,27.24,1.63,4.02,2.94,4.74,3.89,5.01.68.23,1.4.27,1.76.27.27,0,.5.05.5.27,0,.27-.41.36-.9.36-.68,0-3.98,0-7.09-.09-.86-.05-1.36-.05-1.36-.32,0-.18.14-.27.32-.32.27-.09.54-.5.27-1.22l-4.2-11.11c-.09-.18-.18-.27-.41-.27h-9.71ZM224.92,439.83c.23,0,.23-.14.18-.32l-4.29-12.2c-.23-.68-.45-.68-.68,0l-3.98,12.2c-.09.23,0,.32.14.32h8.63Z"/>
    <path d="M269.06,433.73c0-7.05,0-8.31-.09-9.76-.09-1.54-.45-2.26-1.94-2.58-.36-.09-1.13-.14-1.54-.14-.18,0-.36-.09-.36-.27,0-.27.23-.36.72-.36,2.03,0,4.88.14,5.11.14.5,0,3.93-.14,5.33-.14,2.85,0,5.87.27,8.27,1.99,1.13.81,3.12,3.03,3.12,6.14,0,3.34-1.4,6.69-5.47,10.44,3.7,4.74,6.78,8.76,9.4,11.57,2.44,2.58,4.38,3.07,5.51,3.25.86.14,1.49.14,1.76.14.23,0,.41.14.41.27,0,.27-.27.36-1.08.36h-3.21c-2.53,0-3.66-.23-4.83-.86-1.94-1.04-3.52-3.25-6.1-6.64-1.9-2.48-4.02-5.51-4.92-6.69-.18-.18-.32-.27-.59-.27l-5.56-.09c-.23,0-.32.14-.32.36v1.08c0,4.34,0,7.91.23,9.8.14,1.31.41,2.3,1.76,2.48.63.09,1.63.18,2.03.18.27,0,.36.14.36.27,0,.23-.23.36-.72.36-2.48,0-5.33-.14-5.56-.14-.05,0-2.89.14-4.25.14-.5,0-.72-.09-.72-.36,0-.14.09-.27.36-.27.41,0,.95-.09,1.36-.18.9-.18,1.13-1.17,1.31-2.48.23-1.9.23-5.47.23-9.8v-7.95ZM272.67,437.66c0,.23.09.41.32.54.68.41,2.76.72,4.74.72,1.08,0,2.35-.14,3.39-.86,1.58-1.08,2.76-3.52,2.76-6.96,0-5.65-2.98-9.04-7.82-9.04-1.36,0-2.58.14-3.03.27-.23.09-.36.27-.36.54v14.77Z"/>
    <path d="M302.71,437.66c0-7.32,5.33-17.66,17.8-17.66,10.16,0,17.75,6.41,17.75,16.94s-7.14,18.48-18.03,18.48c-12.38,0-17.53-9.62-17.53-17.75ZM333.93,438.21c0-10.84-6.6-16.67-13.73-16.67-7.54,0-13.19,4.97-13.19,14.86,0,10.53,6.32,17.3,14.46,17.3,4.07,0,12.47-2.35,12.47-15.5Z"/>
    <path d="M350.83,454.2c-.63-.32-.68-.5-.68-1.72,0-2.26.18-4.07.23-4.79.05-.5.14-.72.36-.72.27,0,.32.14.32.5,0,.41,0,1.04.14,1.67.68,3.34,3.66,4.61,6.69,4.61,4.34,0,6.46-3.12,6.46-6.01,0-3.12-1.31-4.92-5.2-8.13l-2.03-1.67c-4.79-3.93-5.87-6.73-5.87-9.8,0-4.83,3.61-8.13,9.35-8.13,1.76,0,3.07.18,4.2.45.86.18,1.22.23,1.58.23s.45.09.45.32-.18,1.72-.18,4.79c0,.72-.09,1.04-.32,1.04-.27,0-.32-.23-.36-.59-.05-.54-.32-1.76-.59-2.26s-1.49-2.39-5.65-2.39c-3.12,0-5.56,1.94-5.56,5.24,0,2.58,1.17,4.2,5.51,7.59l1.26.99c5.33,4.2,6.6,7,6.6,10.62,0,1.85-.72,5.29-3.84,7.5-1.94,1.36-4.38,1.9-6.82,1.9-2.12,0-4.2-.32-6.05-1.22Z"/>
    <path d="M383.22,433.73c0-7.05,0-8.31-.09-9.76-.09-1.54-.45-2.26-1.94-2.58-.32-.09-.9-.09-1.31-.14-.32-.05-.59-.09-.59-.27,0-.27.23-.36.72-.36,1.04,0,2.26,0,5.11.14.32,0,9.31,0,10.35-.05.99-.05,1.81-.14,2.08-.27s.36-.18.5-.18.18.18.18.41c0,.32-.27.86-.36,2.12-.05.68-.09,1.54-.18,2.71-.05.45-.18.77-.36.77-.27,0-.36-.23-.36-.59,0-.59-.09-1.13-.23-1.49-.32-1.04-1.26-1.49-3.25-1.67-.77-.09-5.69-.14-6.19-.14-.18,0-.27.14-.27.45v12.47c0,.32.05.45.27.45.59,0,6.14,0,7.18-.09,1.22-.09,1.81-.23,2.26-.77.23-.27.36-.45.54-.45.14,0,.23.09.23.36s-.23,1.04-.36,2.53c-.14,1.4-.14,2.44-.18,3.07-.05.45-.14.68-.32.68-.27,0-.32-.36-.32-.72,0-.41-.05-.86-.18-1.27-.18-.68-.72-1.31-2.35-1.49-1.22-.14-5.69-.23-6.46-.23-.23,0-.32.14-.32.32v3.98c0,1.54-.05,6.78,0,7.73.09,1.85.36,2.85,1.49,3.3.77.32,1.99.41,3.75.41,1.36,0,2.85-.05,4.07-.41,1.45-.45,1.94-1.4,2.3-3.34.09-.5.18-.68.41-.68.27,0,.27.36.27.68,0,.36-.36,3.43-.59,4.38-.32,1.17-.68,1.17-2.44,1.17-3.34,0-4.83-.09-6.6-.14-1.81-.05-3.89-.14-5.65-.14-1.08,0-2.17.18-3.34.14-.5,0-.72-.09-.72-.36,0-.14.23-.23.5-.27.45-.04.72-.04,1.04-.14.95-.23,1.54-.86,1.63-4.25.05-1.76.09-4.07.09-8.09v-7.95Z"/>
    <path d="M3.34,485.23c-2.67-2.4-3.34-5.54-3.34-8.16,0-1.85.63-5.07,3.09-7.53,1.65-1.65,4.16-2.95,8.41-2.95,1.1,0,2.65.08,4,.33,1.05.19,1.9.28,2.92.41.19.03.25.14.25.3,0,.22-.08.55-.14,1.54-.06.91-.06,2.43-.08,2.84s-.08.58-.25.58c-.19,0-.22-.19-.22-.58,0-1.08-.44-2.21-1.16-2.81-.96-.83-3.09-1.57-5.52-1.57-3.67,0-5.38,1.08-6.34,2.01-2.01,1.93-2.48,4.38-2.48,7.2,0,5.27,4.05,10.09,9.95,10.09,2.07,0,3.7-.25,4.8-1.38.58-.61.94-1.82,1.02-2.32.06-.3.11-.41.28-.41.14,0,.19.19.19.41,0,.19-.33,2.59-.61,3.53-.17.52-.22.58-.72.8-1.1.44-3.2.63-4.96.63-4.14,0-6.92-1.02-9.1-2.98Z"/>
    <path d="M41.72,475.72c.08,0,.17-.03.17-.17v-.58c0-4.3,0-5.07-.06-5.96-.06-.94-.28-1.38-1.19-1.57-.22-.06-.69-.08-.94-.08-.11,0-.22-.06-.22-.17,0-.17.14-.22.44-.22,1.24,0,2.98.08,3.12.08s1.87-.08,2.7-.08c.3,0,.44.06.44.22,0,.11-.11.17-.22.17-.19,0-.36.03-.69.08-.74.14-.97.61-1.02,1.57-.06.88-.06,1.65-.06,5.96v4.85c0,2.65,0,4.83.14,5.98.08.8.25,1.41,1.07,1.52.39.06.99.11,1.24.11.17,0,.22.08.22.17,0,.14-.14.22-.44.22-1.52,0-3.25-.08-3.39-.08s-1.88.08-2.7.08c-.3,0-.44-.06-.44-.22,0-.08.06-.17.22-.17.25,0,.58-.06.83-.11.55-.11.69-.72.8-1.52.14-1.16.14-3.34.14-5.98v-2.9c0-.11-.08-.17-.17-.17h-11.69c-.08,0-.17.03-.17.17v2.9c0,2.65,0,4.83.14,5.98.08.8.25,1.41,1.07,1.52.39.06.99.11,1.24.11.17,0,.22.08.22.17,0,.14-.14.22-.44.22-1.52,0-3.25-.08-3.39-.08s-1.88.08-2.7.08c-.3,0-.44-.06-.44-.22,0-.08.06-.17.22-.17.25,0,.58-.06.83-.11.55-.11.69-.72.8-1.52.14-1.16.14-3.34.14-5.98v-4.85c0-4.3,0-5.07-.06-5.96-.06-.94-.28-1.38-1.19-1.57-.22-.06-.69-.08-.94-.08-.11,0-.22-.06-.22-.17,0-.17.14-.22.44-.22,1.24,0,2.98.08,3.12.08s1.87-.08,2.7-.08c.3,0,.44.06.44.22,0,.11-.11.17-.22.17-.19,0-.36.03-.69.08-.74.14-.97.61-1.02,1.57-.06.88-.06,1.65-.06,5.96v.58c0,.14.08.17.17.17h11.69Z"/>
    <path d="M56.73,474.98c0-4.3,0-5.07-.06-5.96-.06-.94-.33-1.41-.94-1.54-.3-.08-.66-.11-.85-.11-.11,0-.22-.06-.22-.17,0-.17.14-.22.44-.22.91,0,2.65.08,2.79.08s1.87-.08,2.7-.08c.3,0,.44.06.44.22,0,.11-.11.17-.22.17-.19,0-.36.03-.69.08-.74.14-.97.61-1.02,1.57-.06.88-.06,1.65-.06,5.96v4.85c0,2.65,0,4.83.14,5.98.08.8.25,1.41,1.07,1.52.39.06.97.11,1.13.11.25,0,.33.08.33.17,0,.14-.11.22-.41.22-1.52,0-3.28-.08-3.42-.08s-1.88.08-2.7.08c-.3,0-.44-.06-.44-.22,0-.08.06-.17.3-.17.17,0,.47-.03.72-.08.55-.11.72-.74.83-1.54.14-1.16.14-3.34.14-5.98v-4.85Z"/>
    <path d="M73.93,479.88c0,4.05.11,5.82.61,6.31.44.44,1.16.63,3.31.63,1.46,0,2.67-.03,3.34-.83.36-.44.63-1.13.72-1.65.03-.22.08-.36.25-.36.14,0,.17.11.17.41s-.19,1.96-.41,2.76c-.19.63-.28.74-1.74.74-2.37,0-4.72-.17-7.39-.17-.85,0-1.68.08-2.7.08-.3,0-.44-.06-.44-.22,0-.08.06-.17.22-.17.25,0,.58-.06.83-.11.55-.11.69-.72.8-1.52.14-1.16.14-3.34.14-5.98v-4.85c0-4.3,0-5.07-.06-5.96-.06-.94-.28-1.38-1.19-1.57-.22-.06-.69-.08-.94-.08-.11,0-.22-.06-.22-.17,0-.17.14-.22.44-.22,1.24,0,2.98.08,3.12.08s2.15-.08,2.98-.08c.3,0,.44.06.44.22,0,.11-.11.17-.22.17-.19,0-.58.03-.91.08-.8.14-1.02.61-1.08,1.57-.06.88-.06,1.65-.06,5.96v4.91Z"/>
    <path d="M90.37,474.98c0-4.3,0-5.07-.06-5.96-.06-.94-.19-1.38-1.1-1.57-.22-.06-.69-.08-.94-.08-.19,0-.3-.06-.3-.17,0-.17.14-.22.44-.22,1.24,0,2.98.08,3.12.08.33,0,2.07-.08,3.72-.08,2.73,0,7.78-.25,11.06,3.14,1.38,1.43,2.67,3.72,2.67,7,0,3.47-1.43,6.15-2.98,7.78-1.19,1.24-3.67,3.17-8.36,3.17-1.19,0-2.65-.08-3.83-.17-1.21-.08-2.15-.17-2.29-.17-.06,0-.52,0-1.1.03-.55,0-1.19.06-1.6.06-.3,0-.44-.06-.44-.22,0-.08.06-.17.28-.17.3-.03.52-.06.77-.11.55-.11.69-.72.8-1.52.14-1.16.14-3.34.14-5.98v-4.85ZM92.69,477.95c0,2.92.03,5.46.06,5.98.03.69.08,1.79.3,2.1.36.52,1.43,1.1,4.69,1.1,2.56,0,4.94-.94,6.56-2.56,1.43-1.41,2.21-4.05,2.21-6.59,0-3.5-1.52-5.76-2.65-6.95-2.59-2.73-5.74-3.12-9.02-3.12-.55,0-1.57.08-1.79.19-.25.11-.33.25-.33.55-.03.94-.03,3.75-.03,5.87v3.42Z"/>
    <path d="M118,474.98c0-4.3,0-5.07-.06-5.96-.06-.94-.28-1.38-1.19-1.57-.22-.06-.69-.08-.94-.08-.11,0-.22-.06-.22-.17,0-.17.14-.22.44-.22,1.24,0,2.98.08,3.12.08.3,0,2.4-.08,3.25-.08,1.74,0,3.58.17,5.05,1.21.69.5,1.9,1.85,1.9,3.75,0,2.04-.85,4.08-3.34,6.37,2.26,2.9,4.14,5.35,5.74,7.06,1.49,1.57,2.67,1.88,3.36,1.99.52.08.91.08,1.07.08.14,0,.25.08.25.17,0,.17-.17.22-.66.22h-1.96c-1.54,0-2.23-.14-2.95-.52-1.19-.63-2.15-1.99-3.72-4.05-1.16-1.52-2.45-3.36-3.01-4.08-.11-.11-.19-.17-.36-.17l-3.39-.06c-.14,0-.19.08-.19.22v.66c0,2.65,0,4.83.14,5.98.08.8.25,1.41,1.07,1.52.39.06.99.11,1.24.11.17,0,.22.08.22.17,0,.14-.14.22-.44.22-1.52,0-3.25-.08-3.39-.08-.03,0-1.76.08-2.59.08-.3,0-.44-.06-.44-.22,0-.08.06-.17.22-.17.25,0,.58-.06.83-.11.55-.11.69-.72.8-1.52.14-1.16.14-3.34.14-5.98v-4.85ZM120.21,477.37c0,.14.06.25.19.33.41.25,1.68.44,2.9.44.66,0,1.43-.08,2.07-.52.97-.66,1.68-2.15,1.68-4.25,0-3.45-1.82-5.52-4.77-5.52-.83,0-1.57.08-1.85.17-.14.06-.22.17-.22.33v9.02Z"/>
    <path d="M141.55,474.98c0-4.3,0-5.07-.06-5.96-.06-.94-.28-1.38-1.19-1.57-.19-.06-.55-.06-.8-.08-.19-.03-.36-.06-.36-.17,0-.17.14-.22.44-.22.63,0,1.38,0,3.12.08.19,0,5.68,0,6.31-.03.61-.03,1.1-.08,1.27-.17.17-.08.22-.11.3-.11s.11.11.11.25c0,.19-.17.52-.22,1.3-.03.41-.06.94-.11,1.65-.03.28-.11.47-.22.47-.17,0-.22-.14-.22-.36,0-.36-.06-.69-.14-.91-.19-.63-.77-.91-1.99-1.02-.47-.06-3.47-.08-3.78-.08-.11,0-.17.08-.17.28v7.61c0,.19.03.28.17.28.36,0,3.75,0,4.38-.06.74-.06,1.1-.14,1.38-.47.14-.17.22-.28.33-.28.08,0,.14.06.14.22s-.14.63-.22,1.54c-.08.85-.08,1.49-.11,1.88-.03.28-.08.41-.19.41-.17,0-.19-.22-.19-.44,0-.25-.03-.52-.11-.77-.11-.41-.44-.8-1.43-.91-.74-.08-3.47-.14-3.94-.14-.14,0-.19.08-.19.19v2.43c0,.94-.03,4.14,0,4.72.06,1.13.22,1.74.91,2.01.47.19,1.21.25,2.29.25.83,0,1.74-.03,2.48-.25.88-.28,1.19-.85,1.41-2.04.06-.3.11-.41.25-.41.17,0,.17.22.17.41,0,.22-.22,2.1-.36,2.67-.19.72-.41.72-1.49.72-2.04,0-2.95-.06-4.03-.08-1.1-.03-2.37-.08-3.45-.08-.66,0-1.32.11-2.04.08-.3,0-.44-.06-.44-.22,0-.08.14-.14.3-.17.28-.03.44-.03.63-.08.58-.14.94-.52.99-2.59.03-1.08.06-2.48.06-4.94v-4.85Z"/>
    <path d="M160.22,479.69c0-9.95.06-6.37.03-11.72,0-1.08.08-1.38.3-1.38s.69.61.96.88c.41.47,4.52,4.91,8.77,9.46,2.73,2.92,5.74,6.29,6.62,7.2l-.3-14.01c-.03-1.79-.22-2.4-1.08-2.62-.5-.11-.94-.14-1.19-.14-.3,0-.39-.08-.39-.19,0-.17.22-.19.55-.19,1.24,0,2.56.08,2.87.08s1.21-.08,2.34-.08c.3,0,.5.03.5.19,0,.11-.11.17-.3.19-.22.03-.39.06-.72.11-.77.17-.96.58-.96,2.48l-.06,16.1c0,1.82-.06,1.96-.25,1.96-.22,0-.55-.3-2.01-1.76-.3-.28-4.27-4.33-7.2-7.47-3.2-3.45-6.31-6.92-7.2-7.91l.36,13.21c.06,2.26.33,2.98,1.08,3.2.52.14,1.13.17,1.38.17.14,0,.22.06.22.17,0,.17-.17.22-.5.22-1.57,0-2.67-.08-2.92-.08s-1.41.08-2.65.08c-.28,0-.44-.03-.44-.22,0-.11.08-.17.22-.17.22,0,.72-.03,1.13-.17.69-.19.83-.99.83-3.5v-4.08Z"/>
    <path d="M187,471.72c-.22.28-.39.36-.5.36-.22,0,.03-.41.08-.5.69-1.16,1.24-2.59,1.24-3.94,0-1.49-.41-1.9-.77-2.26-.14-.11-.06-.25.11-.25.58,0,1.46.19,1.85.39.41.22.55.41.55.88,0,1.85-1.46,4.03-2.56,5.32Z"/>
    <path d="M194.86,487.47c-.39-.19-.41-.3-.41-1.05,0-1.38.11-2.48.14-2.92.03-.3.08-.44.22-.44.17,0,.19.08.19.3,0,.25,0,.63.08,1.02.41,2.04,2.23,2.81,4.08,2.81,2.65,0,3.94-1.9,3.94-3.67,0-1.9-.8-3.01-3.17-4.96l-1.24-1.02c-2.92-2.4-3.58-4.11-3.58-5.98,0-2.95,2.21-4.96,5.71-4.96,1.08,0,1.87.11,2.56.28.52.11.74.14.97.14s.28.06.28.19-.11,1.05-.11,2.92c0,.44-.06.63-.19.63-.17,0-.19-.14-.22-.36-.03-.33-.19-1.08-.36-1.38-.17-.3-.91-1.46-3.45-1.46-1.9,0-3.39,1.19-3.39,3.2,0,1.57.72,2.56,3.36,4.63l.77.61c3.25,2.56,4.03,4.27,4.03,6.48,0,1.13-.44,3.23-2.34,4.58-1.19.83-2.67,1.16-4.16,1.16-1.3,0-2.56-.19-3.7-.74Z"/>
    <path d="M226.82,474.98c0-4.3,0-5.07-.06-5.96-.06-.94-.28-1.38-1.19-1.57-.17-.03-.44-.03-.69-.06-.25-.03-.47-.06-.47-.19,0-.17.14-.22.44-.22,1.08,0,2.12.08,3.12.08.55,0,6.15,0,6.78-.03s1.13-.03,1.35-.17c.08-.06.19-.11.25-.11.11,0,.17.11.17.25s-.11.52-.17.85c-.11.8-.11,1.24-.17,2.01,0,.33-.14.55-.25.55-.14,0-.17-.11-.19-.36-.03-.39-.14-1.05-.52-1.38-.33-.28-.83-.5-1.63-.52-1.41-.03-2.81-.06-4.22-.08-.17,0-.25.08-.25.3v7.61c0,.17.03.25.19.25,1.13,0,2.7,0,3.83-.03,1.46-.03,1.82-.06,2.21-.52.14-.17.19-.28.3-.28s.14.08.14.22c0,.17-.14.63-.22,1.54-.08.83-.08,1.49-.11,1.9-.03.3-.06.47-.19.47-.17,0-.19-.19-.22-.47-.06-.61-.14-1.57-1.57-1.76-.69-.08-3.7-.08-4.16-.08-.14,0-.19.06-.19.25v2.34c0,2.34,0,4.3.08,5.57.08,1.24.39,1.85,1.13,1.93.36.06.83.08,1.13.11.25.03.33.08.33.19,0,.14-.14.19-.44.19-1.54,0-3.25-.08-3.39-.08h-.25c-.55.03-1.79.08-2.45.08-.3,0-.44-.06-.44-.22,0-.08.06-.14.3-.17.28-.03.52-.06.72-.11.58-.17.77-.58.85-1.79.08-1.19.11-3.12.11-5.71v-4.85Z"/>
    <path d="M246.34,479.69c-.14,0-.22.08-.28.22l-1.65,4.88c-.25.69-.39,1.35-.39,1.85,0,.55.52.8.99.8h.25c.28,0,.36.06.36.17,0,.17-.25.22-.5.22-.66,0-1.76-.08-2.07-.08s-1.82.08-3.12.08c-.36,0-.52-.06-.52-.22,0-.11.14-.17.39-.17.19,0,.44-.03.66-.06,1.27-.17,1.82-1.21,2.32-2.59l6.26-17.12c.33-.91.44-1.08.61-1.08s.28.14.61.99c.41,1.05,4.74,12.44,6.42,16.63.99,2.45,1.79,2.9,2.37,3.06.41.14.85.17,1.07.17.17,0,.3.03.3.17,0,.17-.25.22-.55.22-.41,0-2.43,0-4.33-.06-.52-.03-.83-.03-.83-.19,0-.11.08-.17.19-.19.17-.06.33-.3.17-.74l-2.56-6.78c-.06-.11-.11-.17-.25-.17h-5.93ZM251.91,478.7c.14,0,.14-.08.11-.19l-2.62-7.44c-.14-.41-.28-.41-.41,0l-2.43,7.44c-.06.14,0,.19.08.19h5.27Z"/>
    <path d="M267.14,474.98c0-4.3,0-5.07-.06-5.96-.06-.94-.28-1.38-1.19-1.57-.22-.06-.69-.08-.94-.08-.11,0-.22-.06-.22-.17,0-.17.14-.22.44-.22,1.24,0,2.98.08,3.12.08.3,0,2.4-.08,3.25-.08,1.74,0,3.58.17,5.05,1.21.69.5,1.9,1.85,1.9,3.75,0,2.04-.85,4.08-3.34,6.37,2.26,2.9,4.14,5.35,5.74,7.06,1.49,1.57,2.67,1.88,3.36,1.99.52.08.91.08,1.08.08.14,0,.25.08.25.17,0,.17-.17.22-.66.22h-1.96c-1.54,0-2.23-.14-2.95-.52-1.19-.63-2.15-1.99-3.72-4.05-1.16-1.52-2.45-3.36-3.01-4.08-.11-.11-.19-.17-.36-.17l-3.39-.06c-.14,0-.19.08-.19.22v.66c0,2.65,0,4.83.14,5.98.08.8.25,1.41,1.08,1.52.39.06.99.11,1.24.11.17,0,.22.08.22.17,0,.14-.14.22-.44.22-1.52,0-3.25-.08-3.39-.08-.03,0-1.76.08-2.59.08-.3,0-.44-.06-.44-.22,0-.08.06-.17.22-.17.25,0,.58-.06.83-.11.55-.11.69-.72.8-1.52.14-1.16.14-3.34.14-5.98v-4.85ZM269.34,477.37c0,.14.06.25.19.33.41.25,1.68.44,2.9.44.66,0,1.43-.08,2.07-.52.96-.66,1.68-2.15,1.68-4.25,0-3.45-1.82-5.52-4.77-5.52-.83,0-1.57.08-1.85.17-.14.06-.22.17-.22.33v9.02Z"/>
    <path d="M311.2,484.27c.11.99.3,2.54,1.49,2.92.8.25,1.43.25,1.71.25.14,0,.3.03.3.17,0,.17-.08.22-.41.22-.61,0-3.75-.08-4.77-.17-.63-.06-.77-.14-.77-.28,0-.11.06-.14.19-.19.19-.08.17-.5.11-.99l-1.32-14.39-6.84,14.5c-.58,1.21-.66,1.46-.91,1.46-.19,0-.33-.28-.85-1.27-.72-1.35-3.09-6.12-3.23-6.4-.25-.5-3.42-7.31-3.72-8.05l-1.13,12.99c-.03.44-.06.83-.06,1.3,0,.69.33.91.74.99.47.11.83.11.99.11s.28.06.28.14c0,.19-.14.25-.41.25-1.02,0-2.43-.08-2.65-.08-.25,0-1.57.08-2.32.08-.28,0-.47-.03-.47-.22,0-.11.14-.17.28-.17.22,0,.41,0,.83-.08.91-.17.97-1.16,1.1-2.29l1.99-17.92c.03-.3.14-.55.3-.55s.28.11.41.41l8.44,17.35,8.11-17.32c.11-.25.22-.44.41-.44s.28.22.33.74l1.85,16.93Z"/>
    <path d="M320.64,487.47c-.39-.19-.41-.3-.41-1.05,0-1.38.11-2.48.14-2.92.03-.3.08-.44.22-.44.17,0,.19.08.19.3,0,.25,0,.63.08,1.02.41,2.04,2.23,2.81,4.08,2.81,2.65,0,3.94-1.9,3.94-3.67,0-1.9-.8-3.01-3.17-4.96l-1.24-1.02c-2.92-2.4-3.59-4.11-3.59-5.98,0-2.95,2.21-4.96,5.71-4.96,1.08,0,1.88.11,2.56.28.52.11.74.14.96.14s.28.06.28.19-.11,1.05-.11,2.92c0,.44-.06.63-.19.63-.17,0-.19-.14-.22-.36-.03-.33-.19-1.08-.36-1.38-.17-.3-.91-1.46-3.45-1.46-1.9,0-3.39,1.19-3.39,3.2,0,1.57.72,2.56,3.36,4.63l.77.61c3.25,2.56,4.03,4.27,4.03,6.48,0,1.13-.44,3.23-2.34,4.58-1.19.83-2.67,1.16-4.16,1.16-1.3,0-2.56-.19-3.7-.74Z"/>
    <path d="M346.47,479.83c0,2.65,0,4.83.14,5.98.08.8.25,1.41,1.07,1.52.39.06.99.11,1.24.11.17,0,.22.08.22.17,0,.14-.14.22-.44.22-1.52,0-3.25-.08-3.39-.08s-1.88.08-2.7.08c-.3,0-.44-.06-.44-.22,0-.08.06-.17.22-.17.25,0,.58-.06.83-.11.55-.11.69-.72.8-1.52.14-1.16.14-3.34.14-5.98v-11.66c-1.35.03-2.73.03-4.08.06-1.71.03-2.37.22-2.81.88-.3.47-.39.66-.47.85-.08.22-.17.28-.28.28-.08,0-.14-.08-.14-.25,0-.28.55-2.65.61-2.87.06-.17.17-.52.28-.52.19,0,.47.28,1.21.33.8.08,1.85.14,2.18.14h10.34c.88,0,1.52-.06,1.96-.14.41-.06.66-.14.77-.14.14,0,.14.17.14.33,0,.83-.08,2.73-.08,3.03,0,.25-.08.36-.19.36-.14,0-.19-.08-.22-.47,0-.11-.03-.19-.03-.3-.08-.83-.74-1.46-3.39-1.52-1.16-.03-2.32-.03-3.47-.06v11.66Z"/>
    <path d="M362.41,474.98c0-4.3,0-5.07-.06-5.96-.06-.94-.28-1.38-1.19-1.57-.19-.06-.55-.06-.8-.08-.19-.03-.36-.06-.36-.17,0-.17.14-.22.44-.22.63,0,1.38,0,3.12.08.19,0,5.68,0,6.31-.03.61-.03,1.1-.08,1.27-.17.17-.08.22-.11.3-.11s.11.11.11.25c0,.19-.17.52-.22,1.3-.03.41-.06.94-.11,1.65-.03.28-.11.47-.22.47-.17,0-.22-.14-.22-.36,0-.36-.06-.69-.14-.91-.19-.63-.77-.91-1.99-1.02-.47-.06-3.47-.08-3.78-.08-.11,0-.17.08-.17.28v7.61c0,.19.03.28.17.28.36,0,3.75,0,4.38-.06.74-.06,1.1-.14,1.38-.47.14-.17.22-.28.33-.28.08,0,.14.06.14.22s-.14.63-.22,1.54c-.08.85-.08,1.49-.11,1.88-.03.28-.08.41-.19.41-.17,0-.19-.22-.19-.44,0-.25-.03-.52-.11-.77-.11-.41-.44-.8-1.43-.91-.74-.08-3.47-.14-3.94-.14-.14,0-.19.08-.19.19v2.43c0,.94-.03,4.14,0,4.72.06,1.13.22,1.74.91,2.01.47.19,1.21.25,2.29.25.83,0,1.74-.03,2.48-.25.88-.28,1.19-.85,1.41-2.04.06-.3.11-.41.25-.41.17,0,.17.22.17.41,0,.22-.22,2.1-.36,2.67-.19.72-.41.72-1.49.72-2.04,0-2.95-.06-4.03-.08-1.1-.03-2.37-.08-3.45-.08-.66,0-1.32.11-2.04.08-.3,0-.44-.06-.44-.22,0-.08.14-.14.3-.17.28-.03.44-.03.63-.08.58-.14.94-.52.99-2.59.03-1.08.06-2.48.06-4.94v-4.85Z"/>
    <path d="M381.39,474.98c0-4.3,0-5.07-.06-5.96-.06-.94-.19-1.38-1.1-1.57-.22-.06-.69-.08-.94-.08-.19,0-.3-.06-.3-.17,0-.17.14-.22.44-.22,1.24,0,2.98.08,3.12.08.33,0,2.07-.08,3.72-.08,2.73,0,7.78-.25,11.06,3.14,1.38,1.43,2.68,3.72,2.68,7,0,3.47-1.43,6.15-2.98,7.78-1.19,1.24-3.67,3.17-8.36,3.17-1.19,0-2.65-.08-3.83-.17-1.21-.08-2.15-.17-2.29-.17-.06,0-.52,0-1.1.03-.55,0-1.19.06-1.6.06-.3,0-.44-.06-.44-.22,0-.08.06-.17.28-.17.3-.03.52-.06.77-.11.55-.11.69-.72.8-1.52.14-1.16.14-3.34.14-5.98v-4.85ZM383.7,477.95c0,2.92.03,5.46.06,5.98.03.69.08,1.79.3,2.1.36.52,1.43,1.1,4.69,1.1,2.56,0,4.94-.94,6.56-2.56,1.43-1.41,2.21-4.05,2.21-6.59,0-3.5-1.52-5.76-2.65-6.95-2.59-2.73-5.74-3.12-9.02-3.12-.55,0-1.57.08-1.79.19-.25.11-.33.25-.33.55-.03.94-.03,3.75-.03,5.87v3.42Z"/>
  </g>
</svg>