<?xml version="1.0" encoding="UTF-8"?>
<svg id="Layer_1" xmlns="http://www.w3.org/2000/svg" version="1.1" viewBox="0 0 100 100">
  <!-- Generator: Adobe Illustrator 29.8.2, SVG Export Plug-In . SVG Version: 2.1.1 Build 3)  -->
  <defs>
    <style>
      .st0 {
        fill-opacity: 0;
      }

      .st0, .st1, .st2 {
        fill: #fff;
      }

      .st3 {
        fill: #00c8b3;
      }

      .st1 {
        fill-opacity: .9;
      }

      .st2 {
        fill-opacity: .9;
      }
    </style>
  </defs>
  <g>
    <rect class="st0" x="28.5" y="28.6" width="43" height="43"/>
    <path class="st2" d="M50,71.5c11.9,0,21.5-9.6,21.5-21.5s-9.6-21.5-21.5-21.5-21.5,9.6-21.5,21.5,9.6,21.5,21.5,21.5ZM50,67.5c-9.6,0-17.4-7.8-17.4-17.4s7.8-17.4,17.4-17.4,17.4,7.8,17.4,17.4-7.8,17.4-17.4,17.4Z"/>
    <path class="st2" d="M46.4,61.9h8.5c1,0,1.7-.7,1.7-1.7s-.8-1.7-1.7-1.7h-2.3v-10c0-1.3-.6-2.1-1.8-2.1h-3.9c-1,0-1.7.7-1.7,1.6s.7,1.7,1.7,1.7h1.9v8.8h-2.3c-1,0-1.7.7-1.7,1.7s.8,1.7,1.7,1.7h-.1ZM49.7,43.2c1.7,0,3-1.3,3-3s-1.3-3-3-3-3,1.3-3,3,1.3,3,3,3Z"/>
  </g>
  <g>
    <circle class="st3" cx="50" cy="50" r="50"/>
    <g>
      <rect class="st0" x="27.7" y="30" width="44.7" height="40"/>
      <path class="st1" d="M27.7,39.6c0,15.7,9.4,26,23.9,26s17.3-6.6,17.3-15.8-7.2-15.3-17.3-15.3-6.8,1-10.7,1-5.8-.9-8.1-3.5c-1.3-1.5-3.9-1.7-4.6,1-.5,2-.6,5.6-.6,6.8ZM31.3,39.6c0-1.2,0-2.7.1-3.7,0-.2.2-.2.3-.1,2.3,1.9,5.9,3.2,9.3,3.2s4.3-.3,6.2-.5c1.7-.2,3.1-.4,4.5-.4,8,0,13.7,4.9,13.7,11.8s-5.6,12.3-13.8,12.3c-12.4,0-20.3-8.7-20.3-22.4ZM40,44.5c1.4,4.3,5.6,5.9,10,7,7.5,1.8,10.7,3,13.4,6.3,2.5,3,3,6.7,4.3,10.8.3,1,1,1.4,1.8,1.4,1.6,0,2.9-1.5,2.9-3.2,0-2.8-3.3-7.8-5.5-11.1-2.7-3.8-7.6-6-15.7-7.2-3.6-.6-7.2-1.5-9.6-4.8-.7-1-1.9-.3-1.6.8Z"/>
    </g>
  </g>
</svg>