<?xml version="1.0" encoding="UTF-8"?>
<svg id="Layer_1" xmlns="http://www.w3.org/2000/svg" version="1.1" viewBox="0 0 70 70">
  <!-- Generator: Adobe Illustrator 29.8.2, SVG Export Plug-In . SVG Version: 2.1.1 Build 3)  -->
  <defs>
    <style>
      .st0 {
        fill-opacity: .9;
      }

      .st1 {
        fill-opacity: 0;
      }
    </style>
  </defs>
  <rect class="st1" x="3.3" y="-.4" width="63.1" height="70"/>
  <g>
    <rect class="st1" x="3.5" y="4" width="63.1" height="63.1"/>
    <path class="st0" d="M66.5,35.5c0,17.4-14.1,31.5-31.6,31.5S3.5,52.9,3.5,35.5,17.6,4,35,4s31.6,14.1,31.6,31.5ZM33.2,6.1c-2.2.4-4.3,1.7-6.1,3.7-3.8,1.2-7.3,3.2-10.1,5.8-.3-.2-.6-.4-.8-.6-1-.8-2.3-.9-3.2,0-.9.9-1,2.3,0,3.2.3.3.6.5.9.8-3.1,4-5.2,8.9-5.6,14.3h-.6c-1.2,0-2.3,1-2.3,2.3s1,2.3,2.3,2.3h.6c.5,5.4,2.5,10.3,5.7,14.4-.4.3-.7.6-1,.8-.9.9-.9,2.3,0,3.2.9.9,2.2.7,3.2,0,.3-.2.6-.4.9-.6,2.9,2.6,6.3,4.6,10,5.7,1.7,1.9,3.7,3.1,5.8,3.6.4.7,1.2,1.2,2,1.2s1.7-.5,2-1.3c2.1-.5,4.1-1.7,5.8-3.6,3.8-1.2,7.2-3.1,10.1-5.7.3.2.6.4.9.6,1,.8,2.3.9,3.2,0,.9-.9,1-2.3,0-3.2-.3-.3-.7-.6-1-.9,3.2-4,5.2-8.9,5.7-14.3h1.4c1.2,0,2.3-1,2.3-2.3s-1-2.3-2.3-2.3h-1.4c-.4-5.4-2.5-10.3-5.6-14.2.3-.3.7-.5.9-.8.9-.9.9-2.3,0-3.2-.9-.9-2.2-.7-3.2,0-.3.2-.5.4-.8.6-2.9-2.6-6.3-4.6-10.2-5.8-1.8-2-3.9-3.2-6.1-3.7-.4-.5-1.1-.9-1.8-.9s-1.4.3-1.8.9Z"/>
    <path class="st0" d="M32.7,60.1v3.6c0,.4,0,.7.2,1-4.4-1-8.2-5.4-10.7-11.9,1.4-.5,2.9-.9,4.5-1.1,1.6,4.1,3.7,7.2,6,8.4ZM47.7,52.9c-2.4,6.4-6.3,10.8-10.7,11.9.1-.3.2-.6.2-1v-3.6c2.3-1.2,4.4-4.3,6-8.4,1.6.3,3.1.7,4.5,1.1ZM25.4,47.5c-1.6.3-3.1.7-4.5,1.2-.9-3.3-1.4-7-1.5-10.9h4.6c.1,3.4.6,6.7,1.4,9.7ZM49.1,48.6c-1.4-.5-2.9-.9-4.5-1.2.8-3,1.2-6.3,1.4-9.7h4.6c-.1,3.9-.7,7.6-1.5,10.9ZM25.4,23.6c-.7,2.9-1.2,6.2-1.4,9.6h-4.6c.1-3.9.7-7.5,1.5-10.7,1.4.5,2.9.9,4.5,1.2ZM50.6,33.2h-4.6c-.1-3.4-.6-6.6-1.4-9.6,1.6-.3,3.1-.7,4.5-1.2.8,3.2,1.4,6.9,1.5,10.7ZM32.7,7.5v3.3c-2.3,1.2-4.5,4.3-6,8.5-1.6-.3-3.1-.7-4.5-1.1,2.5-6.7,6.4-11.1,11-12.1-.3.4-.5.9-.5,1.4ZM47.8,18.2c-1.4.5-2.8.9-4.5,1.1-1.6-4.2-3.7-7.3-6.1-8.5v-3.3c0-.5-.2-1-.5-1.4,4.6.9,8.5,5.4,11,12.1Z"/>
    <path class="st0" d="M35,66c1.2,0,2.3-1,2.3-2.3V7.5c0-1.2-1-2.3-2.3-2.3s-2.3,1-2.3,2.3v56.3c0,1.2,1.1,2.3,2.3,2.3ZM16.2,56.1c4-3.2,10.5-5,18.8-5s14.8,1.8,18.8,5c1,.8,2.3.9,3.2,0,.9-.9,1-2.3,0-3.2-4.1-3.8-12.5-6.4-22.1-6.4s-18,2.6-22,6.4c-.9.9-.9,2.3,0,3.2.9.9,2.2.7,3.2,0ZM7.6,37.7h55.5c1.2,0,2.3-1,2.3-2.3s-1-2.3-2.3-2.3H7.6c-1.2,0-2.3,1-2.3,2.3s1,2.3,2.3,2.3ZM35,24.6c9.5,0,18-2.6,22.1-6.4.9-.9.9-2.3,0-3.2-.9-.9-2.2-.7-3.2,0-4,3.2-10.5,5-18.8,5s-14.8-1.8-18.8-5c-1-.8-2.3-.9-3.2,0-.9.9-1,2.3,0,3.2,4.1,3.8,12.5,6.4,22,6.4Z"/>
  </g>
</svg>