<?xml version="1.0" encoding="UTF-8"?>
<svg id="Layer_1" xmlns="http://www.w3.org/2000/svg" version="1.1" viewBox="0 0 100 100">
  <!-- Generator: Adobe Illustrator 29.8.2, SVG Export Plug-In . SVG Version: 2.1.1 Build 3)  -->
  <defs>
    <style>
      .st0 {
        fill-opacity: 0;
      }

      .st0, .st1 {
        fill: #fff;
      }

      .st1 {
        fill-opacity: .9;
      }

      .st2 {
        fill: #08f;
      }
    </style>
  </defs>
  <g>
    <rect class="st0" x="28.5" y="28.6" width="43" height="43"/>
    <path class="st1" d="M50,71.5c11.9,0,21.5-9.6,21.5-21.5s-9.6-21.5-21.5-21.5-21.5,9.6-21.5,21.5,9.6,21.5,21.5,21.5ZM50,67.5c-9.6,0-17.4-7.8-17.4-17.4s7.8-17.4,17.4-17.4,17.4,7.8,17.4,17.4-7.8,17.4-17.4,17.4Z"/>
    <path class="st1" d="M46.4,61.9h8.5c1,0,1.7-.7,1.7-1.7s-.8-1.7-1.7-1.7h-2.3v-10c0-1.3-.6-2.1-1.8-2.1h-3.9c-1,0-1.7.7-1.7,1.6s.7,1.7,1.7,1.7h1.9v8.8h-2.3c-1,0-1.7.7-1.7,1.7s.8,1.7,1.7,1.7ZM49.7,43.2c1.7,0,3-1.3,3-3s-1.3-3-3-3-3,1.3-3,3,1.3,3,3,3Z"/>
  </g>
  <g>
    <circle class="st2" cx="50" cy="50" r="50"/>
    <g>
      <rect class="st0" x="27.5" y="27.5" width="45" height="45"/>
      <path class="st1" d="M50,72.5c12.4,0,22.5-10.1,22.5-22.5s-10.1-22.5-22.5-22.5-22.5,10.1-22.5,22.5,10.1,22.5,22.5,22.5ZM50,68.2c-10.1,0-18.2-8.2-18.2-18.3s8.1-18.3,18.2-18.3,18.3,8.2,18.3,18.3-8.2,18.3-18.3,18.3Z"/>
      <path class="st1" d="M49.5,54.6c1.3,0,2-.8,2-1.8v-.2c0-1.2.7-1.9,2.2-2.9,2.1-1.3,3.7-2.6,3.7-5.4s-3.4-5.8-7.2-5.8-6.4,1.7-7,3.7c-.1.4-.2.8-.2,1.2,0,1.1.9,1.7,1.7,1.7s1.3-.4,1.8-.9l.5-.6c.9-1.2,1.9-1.6,3.1-1.6,1.8,0,3,1.1,3,2.6s-.9,2.1-2.8,3.4c-1.5,1.1-2.8,2.2-2.8,4.5h0c0,1.4.7,2.1,2,2.1ZM49.5,61.2c1.3,0,2.5-1.1,2.5-2.5s-1.2-2.5-2.5-2.5-2.6,1.1-2.6,2.5,1.2,2.5,2.6,2.5Z"/>
    </g>
  </g>
</svg>