<?xml version="1.0" encoding="UTF-8"?>
<svg id="Layer_1" xmlns="http://www.w3.org/2000/svg" version="1.1" viewBox="0 0 70 70">
  <!-- Generator: Adobe Illustrator 29.8.2, SVG Export Plug-In . SVG Version: 2.1.1 Build 3)  -->
  <defs>
    <style>
      .st0 {
        fill-opacity: .9;
      }

      .st0, .st1 {
        fill: #007aff;
      }

      .st2, .st1 {
        fill-opacity: 0;
      }
    </style>
  </defs>
  <rect class="st2" x="3.3" y="-.4" width="63.1" height="70"/>
  <g>
    <rect class="st1" x="3.5" y="3.5" width="63.1" height="63.1"/>
    <path class="st0" d="M35,66.5c17.4,0,31.6-14.1,31.6-31.5S52.4,3.5,35,3.5,3.5,17.6,3.5,35s14.1,31.5,31.5,31.5ZM35,60.6c-14.1,0-25.5-11.4-25.5-25.6s11.4-25.6,25.5-25.6,25.6,11.4,25.6,25.6-11.4,25.6-25.6,25.6Z"/>
    <path class="st0" d="M34.4,41.4c1.8,0,2.8-1.1,2.8-2.5v-.2c0-1.6,1-2.7,3.1-4.1,2.9-1.9,5.2-3.7,5.2-7.5s-4.8-8.1-10.1-8.1-8.9,2.4-9.9,5.1c-.2.5-.3,1.1-.3,1.6,0,1.5,1.2,2.3,2.4,2.3s1.9-.5,2.5-1.3l.7-.8c1.3-1.6,2.7-2.3,4.4-2.3,2.6,0,4.3,1.5,4.3,3.7s-1.3,3-3.9,4.8c-2.1,1.5-3.9,3.1-3.9,6.2v.2c0,1.8,1,2.8,2.8,2.8ZM34.3,50.8c1.9,0,3.6-1.5,3.6-3.4s-1.6-3.4-3.6-3.4-3.6,1.5-3.6,3.4,1.7,3.4,3.6,3.4Z"/>
  </g>
</svg>