<?xml version="1.0" encoding="UTF-8"?>
<svg id="Layer_1" xmlns="http://www.w3.org/2000/svg" version="1.1" viewBox="0 0 70 70">
  <!-- Generator: Adobe Illustrator 29.8.2, SVG Export Plug-In . SVG Version: 2.1.1 Build 3)  -->
  <defs>
    <style>
      .st0 {
        fill-opacity: .9;
      }

      .st0, .st1 {
        fill: #007aff;
      }

      .st2, .st1 {
        fill-opacity: 0;
      }
    </style>
  </defs>
  <rect class="st2" x="3.3" y="-.4" width="63.1" height="70"/>
  <g>
    <rect class="st1" x="3.5" y="3.5" width="63.1" height="63.1"/>
    <path class="st0" d="M35,66.5c17.4,0,31.6-14.1,31.6-31.5S52.4,3.5,35,3.5,3.5,17.6,3.5,35s14.1,31.5,31.5,31.5ZM35,60.6c-14.1,0-25.5-11.4-25.5-25.6s11.4-25.6,25.5-25.6,25.6,11.4,25.6,25.6-11.4,25.6-25.6,25.6Z"/>
    <path class="st0" d="M29.7,52.3h12.4c1.4,0,2.5-1,2.5-2.5s-1.1-2.4-2.5-2.4h-3.4v-14.6c0-1.9-.9-3.1-2.7-3.1h-5.7c-1.4,0-2.5,1.1-2.5,2.4s1.1,2.5,2.5,2.5h2.9v12.9h-3.4c-1.4,0-2.5,1.1-2.5,2.4s1.1,2.5,2.5,2.5ZM34.7,24.9c2.5,0,4.4-2,4.4-4.4s-1.9-4.4-4.4-4.4-4.4,1.9-4.4,4.4,2,4.4,4.4,4.4Z"/>
  </g>
</svg>