<?xml version="1.0" encoding="UTF-8"?>
<svg id="Layer_1" xmlns="http://www.w3.org/2000/svg" version="1.1" viewBox="0 0 70 70">
  <!-- Generator: Adobe Illustrator 29.8.2, SVG Export Plug-In . SVG Version: 2.1.1 Build 3)  -->
  <defs>
    <style>
      .st0 {
        fill-opacity: .9;
      }

      .st1 {
        fill-opacity: 0;
      }
    </style>
  </defs>
  <rect class="st1" x="3.3" y="-.4" width="63.1" height="70"/>
  <g>
    <path class="st0" d="M62.8,45.2c2.8,1.6,3.8,2.8,3.8,4.7s-1,3-3.8,4.6l-23.5,13.7c-1.6.9-3,1.4-4.3,1.4s-2.7-.4-4.3-1.4l-23.5-13.7c-2.8-1.6-3.8-2.8-3.8-4.6s1-3,3.8-4.7l3.9-2.3,5.7,3.3-5.9,3.4c-.1,0-.2,0-.2.2s0,.2.2.2l22.7,12.9c.5.3,1,.5,1.4.5s.9-.2,1.4-.5l22.7-12.9c.1,0,.2-.1.2-.2,0-.1,0-.2-.2-.2l-5.9-3.4,5.7-3.3,3.9,2.3ZM47.3,42.9h0l5.8-3.3h0l-5.8,3.3Z"/>
    <path class="st0" d="M62.8,31.4c2.8,1.6,3.8,2.8,3.8,4.6s-1,3-3.8,4.7l-23.5,13.7c-1.6.9-3,1.4-4.3,1.4s-2.7-.4-4.3-1.4l-23.5-13.7c-2.8-1.6-3.8-2.8-3.8-4.7s1-3,3.8-4.6l4.8-2.8,5.7,3.3-6.8,3.9c-.1,0-.2.1-.2.2,0,.1,0,.2.2.2l22.7,13c.5.3,1,.4,1.4.4s.9-.2,1.4-.4l22.7-13c.1,0,.2,0,.2-.2s0-.1-.2-.2l-6.8-3.9,5.7-3.3,4.8,2.8ZM52.3,25.3l-5.8,3.3h0l5.8-3.3ZM23.6,28.6h0l-5.8-3.3,5.8,3.3Z"/>
    <path class="st0" d="M35,40.8c1.4,0,2.7-.4,4.3-1.4l23.5-13.7c2.8-1.6,3.8-2.8,3.8-4.7s-1-3-3.8-4.6L39.3,2.9c-1.6-1-3-1.4-4.3-1.4s-2.7.4-4.3,1.4L7.2,16.5c-2.8,1.6-3.8,2.8-3.8,4.6s1,3,3.8,4.7l23.5,13.7c1.6.9,3,1.4,4.3,1.4ZM35,34.7c-.5,0-.9-.2-1.4-.4l-22.7-13c-.1,0-.2,0-.2-.2s0-.1.2-.2l22.7-12.9c.5-.3,1-.5,1.4-.5s.9.2,1.4.5l22.7,12.9c.1,0,.2.1.2.2,0,.1,0,.2-.2.2l-22.7,13c-.5.3-1,.4-1.4.4Z"/>
  </g>
</svg>