<?xml version="1.0" encoding="UTF-8"?>
<svg id="Layer_1" xmlns="http://www.w3.org/2000/svg" version="1.1" viewBox="0 0 70 70">
  <!-- Generator: Adobe Illustrator 29.8.2, SVG Export Plug-In . SVG Version: 2.1.1 Build 3)  -->
  <defs>
    <style>
      .st0 {
        fill-opacity: .9;
      }

      .st0, .st1 {
        fill: #007aff;
      }

      .st2, .st1 {
        fill-opacity: 0;
      }
    </style>
  </defs>
  <rect class="st2" x="3.3" y="-.4" width="63.1" height="70"/>
  <g>
    <rect class="st1" x="3.7" y="6" width="62.7" height="58.1"/>
    <path class="st0" d="M6.6,29c-4.7,2.2-3.4,8.6,1.8,8.6h21.4c.4,0,.5.2.5.5v21.3c.1,5.4,6.6,6.4,8.9,1.4L61.3,13c2.3-5-1.6-8.6-6.6-6.3L6.6,29ZM12.8,32.1c0,0-.1,0,0-.1L55,12.8c.1,0,.2,0,0,.1l-19.2,42.1c0,.1,0,.1,0,0l.2-20.5c0-1.5-1.1-2.5-2.5-2.5l-20.5.2Z"/>
  </g>
</svg>