<?xml version="1.0" encoding="UTF-8"?>
<svg id="Layer_1" xmlns="http://www.w3.org/2000/svg" version="1.1" viewBox="0 0 70 70">
  <!-- Generator: Adobe Illustrator 29.8.2, SVG Export Plug-In . SVG Version: 2.1.1 Build 3)  -->
  <defs>
    <style>
      .st0 {
        fill-opacity: .9;
      }

      .st1 {
        fill-opacity: 0;
      }
    </style>
  </defs>
  <rect class="st1" x="3.3" y="-.4" width="63.1" height="70"/>
  <g>
    <rect class="st1" x="2.6" y="4.9" width="64.9" height="61.1"/>
    <path class="st0" d="M6.4,64.8c.9,0,1.7-.3,2.8-.9l15.5-8.3,17.1,9.4c1.2.6,2.4.9,3.6.9s2.3-.3,3.2-.8l16.1-9.1c2-1.1,2.9-2.8,2.9-5V9.9c0-2.5-1.4-3.8-3.8-3.8s-1.7.3-2.8.9l-16.2,9.1L27.9,5.7c-.9-.5-2-.8-3.1-.8s-2.3.3-3.2.8L5.5,14.8c-2,1.1-2.9,2.8-2.9,4.9v41.2c0,2.5,1.4,3.8,3.8,3.8ZM22.4,50l-13.3,7.3c-.2,0-.3.2-.4.2-.3,0-.4-.2-.4-.4V21.2c0-.7.3-1.3,1-1.7l12-6.9c.4-.2.7-.4,1.1-.7v38.2ZM28,50.6V12.7c.3.2.7.4,1,.6l13.1,8v37.1c-.5-.3-.9-.5-1.4-.8l-12.7-7ZM47.7,59V20.9l13.4-7.3c.2,0,.3-.2.4-.2.2,0,.4.2.4.4v35.9c0,.7-.3,1.3-1,1.7l-11.7,6.7c-.5.3-1,.6-1.5.9Z"/>
  </g>
</svg>