<?xml version="1.0" encoding="UTF-8"?>
<svg id="Layer_1" xmlns="http://www.w3.org/2000/svg" version="1.1" viewBox="0 0 100 100">
  <!-- Generator: Adobe Illustrator 29.8.2, SVG Export Plug-In . SVG Version: 2.1.1 Build 3)  -->
  <defs>
    <style>
      .st0 {
        fill: #00c0e8;
      }

      .st1 {
        fill-opacity: 0;
      }

      .st1, .st2, .st3 {
        fill: #fff;
      }

      .st2 {
        fill-opacity: .9;
      }

      .st3 {
        fill-opacity: .9;
      }
    </style>
  </defs>
  <g>
    <rect class="st1" x="28.5" y="28.6" width="43" height="43"/>
    <path class="st3" d="M50,71.5c11.9,0,21.5-9.6,21.5-21.5s-9.6-21.5-21.5-21.5-21.5,9.6-21.5,21.5,9.6,21.5,21.5,21.5ZM50,67.5c-9.6,0-17.4-7.8-17.4-17.4s7.8-17.4,17.4-17.4,17.4,7.8,17.4,17.4-7.8,17.4-17.4,17.4Z"/>
    <path class="st3" d="M46.4,61.9h8.5c1,0,1.7-.7,1.7-1.7s-.8-1.7-1.7-1.7h-2.3v-10c0-1.3-.6-2.1-1.8-2.1h-3.9c-1,0-1.7.7-1.7,1.6s.7,1.7,1.7,1.7h1.9v8.8h-2.3c-1,0-1.7.7-1.7,1.7s.8,1.7,1.7,1.7h-.1ZM49.7,43.2c1.7,0,3-1.3,3-3s-1.3-3-3-3-3,1.3-3,3,1.3,3,3,3Z"/>
  </g>
  <g>
    <circle class="st0" cx="50" cy="50" r="50"/>
    <g>
      <rect class="st1" x="23.7" y="24" width="52.6" height="52"/>
      <path class="st2" d="M29.4,27.3h3.5c-.2-.9-.1-1.8.2-2.7h-3.8c-.7,0-1.3.6-1.3,1.3s.6,1.3,1.3,1.3ZM43.2,27.3h19.7l1.5-2.2c0-.1.2-.3.3-.4h-23.2c.1.1.2.3.3.4l1.5,2.2ZM73.2,27.3h1.8c.7,0,1.3-.6,1.3-1.3s-.6-1.3-1.3-1.3h-2.1c.4.8.4,1.8.2,2.7ZM53.2,38.9c2.6,0,4.8-2.1,4.8-4.8s-2.1-4.8-4.8-4.8-4.8,2.1-4.8,4.8,2.1,4.8,4.8,4.8ZM41.6,58.1c2.7,3.2,6.9,2.7,9.1-.5l20.1-30.1c.7-1,.4-2.5-.6-3.1-1-.7-2.5-.4-3.2.6l-9.1,13.7c-1,1.6-2.8,2.4-4.7,2.4s-4-.9-5.3-2.9l-8.8-13.2c-.7-1.1-2.1-1.3-3.2-.6-1,.7-1.3,2.1-.6,3.1l10.8,16.1c.5.7.5,1.8,0,2.5l-3,4.5-6.5-5.7c-.9-.8-2.3-.9-3.3.1l-8.9,8.9c-.9.9-.9,2.3,0,3.2,1,.9,2.3.8,3.1,0l7.3-7.3,6.8,8.2ZM47,75c.7-1.1.4-2.4-.6-3.1l-8-5.3,4.3-4.8c-1-.5-1.9-1.2-2.8-2.2l-1.6-1.8-5.3,8c-.7,1-.4,2.5.6,3.1l10.2,6.8c1.1.7,2.4.4,3.1-.6Z"/>
    </g>
  </g>
</svg>