<?xml version="1.0" encoding="UTF-8"?>
<svg id="Layer_1" xmlns="http://www.w3.org/2000/svg" version="1.1" viewBox="0 0 100 100">
  <!-- Generator: Adobe Illustrator 29.8.2, SVG Export Plug-In . SVG Version: 2.1.1 Build 3)  -->
  <defs>
    <style>
      .st0 {
        fill-opacity: 0;
      }

      .st0, .st1, .st2 {
        fill: #fff;
      }

      .st1 {
        fill-opacity: .9;
      }

      .st2 {
        fill-opacity: .9;
      }

      .st3 {
        fill: #08f;
      }
    </style>
  </defs>
  <g>
    <rect class="st0" x="28.5" y="28.6" width="43" height="43"/>
    <path class="st2" d="M50,71.5c11.9,0,21.5-9.6,21.5-21.5s-9.6-21.5-21.5-21.5-21.5,9.6-21.5,21.5,9.6,21.5,21.5,21.5ZM50,67.5c-9.6,0-17.4-7.8-17.4-17.4s7.8-17.4,17.4-17.4,17.4,7.8,17.4,17.4-7.8,17.4-17.4,17.4Z"/>
    <path class="st2" d="M46.4,61.9h8.5c1,0,1.7-.7,1.7-1.7s-.8-1.7-1.7-1.7h-2.3v-10c0-1.3-.6-2.1-1.8-2.1h-3.9c-1,0-1.7.7-1.7,1.6s.7,1.7,1.7,1.7h1.9v8.8h-2.3c-1,0-1.7.7-1.7,1.7s.8,1.7,1.7,1.7h-.1ZM49.7,43.2c1.7,0,3-1.3,3-3s-1.3-3-3-3-3,1.3-3,3,1.3,3,3,3Z"/>
  </g>
  <g>
    <circle class="st3" cx="50" cy="50" r="50"/>
    <g>
      <rect class="st0" x="28.5" y="28.5" width="43" height="43"/>
      <path class="st1" d="M50,71.5c11.9,0,21.5-9.6,21.5-21.5s-9.6-21.5-21.5-21.5-21.5,9.6-21.5,21.5,9.6,21.5,21.5,21.5ZM50,67.4c-9.6,0-17.4-7.8-17.4-17.4s7.8-17.4,17.4-17.4,17.4,7.8,17.4,17.4-7.8,17.4-17.4,17.4Z"/>
      <path class="st1" d="M46.4,61.8h8.5c1,0,1.7-.7,1.7-1.7s-.8-1.7-1.7-1.7h-2.3v-10c0-1.3-.6-2.1-1.8-2.1h-3.9c-1,0-1.7.7-1.7,1.6s.7,1.7,1.7,1.7h1.9v8.8h-2.3c-1,0-1.7.7-1.7,1.7s.8,1.7,1.7,1.7ZM49.8,43.1c1.7,0,3-1.3,3-3s-1.3-3-3-3-3,1.3-3,3,1.3,3,3,3Z"/>
    </g>
  </g>
</svg>