<?xml version="1.0" encoding="UTF-8"?>
<svg id="Layer_1" xmlns="http://www.w3.org/2000/svg" version="1.1" viewBox="0 0 100 100">
  <!-- Generator: Adobe Illustrator 29.8.2, SVG Export Plug-In . SVG Version: 2.1.1 Build 3)  -->
  <defs>
    <style>
      .st0 {
        fill: #ff393c;
      }

      .st1 {
        fill-opacity: 0;
      }

      .st1, .st2, .st3 {
        fill: #fff;
      }

      .st2 {
        fill-opacity: .9;
      }

      .st3 {
        fill-opacity: .9;
      }
    </style>
  </defs>
  <g>
    <rect class="st1" x="28.5" y="28.6" width="43" height="43"/>
    <path class="st3" d="M50,71.5c11.9,0,21.5-9.6,21.5-21.5s-9.6-21.5-21.5-21.5-21.5,9.6-21.5,21.5,9.6,21.5,21.5,21.5ZM50,67.5c-9.6,0-17.4-7.8-17.4-17.4s7.8-17.4,17.4-17.4,17.4,7.8,17.4,17.4-7.8,17.4-17.4,17.4Z"/>
    <path class="st3" d="M46.4,61.9h8.5c1,0,1.7-.7,1.7-1.7s-.8-1.7-1.7-1.7h-2.3v-10c0-1.3-.6-2.1-1.8-2.1h-3.9c-1,0-1.7.7-1.7,1.6s.7,1.7,1.7,1.7h1.9v8.8h-2.3c-1,0-1.7.7-1.7,1.7s.8,1.7,1.7,1.7h-.1ZM49.7,43.2c1.7,0,3-1.3,3-3s-1.3-3-3-3-3,1.3-3,3,1.3,3,3,3Z"/>
  </g>
  <g>
    <circle class="st0" cx="50" cy="50" r="50"/>
    <g>
      <rect class="st1" x="34.4" y="23.6" width="31.2" height="52.9"/>
      <path class="st2" d="M36.5,27.5h27c1.1,0,2-.9,2-2s-.9-2-2-2h-27c-1.1,0-2,.9-2,2s.9,2,2,2ZM37.5,45.8l3.8-1.7-.7-10.5h18.6l-.7,10.5,3.8,1.7,1.1-15.7h-27.1l1.1,15.7ZM50,53c9.2,0,15.6-2.3,15.6-5.6s-6.4-5.5-15.6-5.5-15.6,2.2-15.6,5.5,6.4,5.6,15.6,5.6ZM50,49.7c-6.4,0-10.7-.9-10.7-2.3s4.2-2.2,10.7-2.2,10.6.9,10.6,2.2-4.2,2.3-10.6,2.3ZM49,63.4h2c8.6,0,14.6-6.6,14.6-16h-3.6c0,7.2-4.5,12.3-11,12.3h-2c-6.5,0-11-5.1-11-12.3h-3.6c0,9.4,6,16,14.6,16ZM50.5,76.4c3.9,0,8.8-1,11-3.2.5-.6.6-1.3.4-2.1l-3.7-12.1-3.5,2,3.7,12,.2-2.5c-1.4,1.2-4.7,1.9-8,1.9s-6.6-.7-8-1.9l.2,2.5,3.7-12-3.5-2-3.7,12.1c-.2.8-.2,1.5.4,2.1,2.2,2.2,7,3.2,11,3.2Z"/>
    </g>
  </g>
</svg>