<?xml version="1.0" encoding="UTF-8"?>
<svg id="Layer_1" xmlns="http://www.w3.org/2000/svg" version="1.1" viewBox="0 0 100 100">
  <!-- Generator: Adobe Illustrator 29.8.2, SVG Export Plug-In . SVG Version: 2.1.1 Build 3)  -->
  <defs>
    <style>
      .st0 {
        fill: #ff8d28;
      }

      .st1 {
        fill-opacity: 0;
      }

      .st1, .st2, .st3 {
        fill: #fff;
      }

      .st2 {
        fill-opacity: .9;
      }

      .st3 {
        fill-opacity: .9;
      }
    </style>
  </defs>
  <g>
    <rect class="st1" x="28.5" y="28.6" width="43" height="43"/>
    <path class="st3" d="M50,71.5c11.9,0,21.5-9.6,21.5-21.5s-9.6-21.5-21.5-21.5-21.5,9.6-21.5,21.5,9.6,21.5,21.5,21.5ZM50,67.5c-9.6,0-17.4-7.8-17.4-17.4s7.8-17.4,17.4-17.4,17.4,7.8,17.4,17.4-7.8,17.4-17.4,17.4Z"/>
    <path class="st3" d="M46.4,61.9h8.5c1,0,1.7-.7,1.7-1.7s-.8-1.7-1.7-1.7h-2.3v-10c0-1.3-.6-2.1-1.8-2.1h-3.9c-1,0-1.7.7-1.7,1.6s.7,1.7,1.7,1.7h1.9v8.8h-2.3c-1,0-1.7.7-1.7,1.7s.8,1.7,1.7,1.7h-.1ZM49.7,43.2c1.7,0,3-1.3,3-3s-1.3-3-3-3-3,1.3-3,3,1.3,3,3,3Z"/>
  </g>
  <g>
    <circle class="st0" cx="50" cy="50" r="50"/>
    <g>
      <rect class="st1" x="28.4" y="31" width="43.1" height="38"/>
      <path class="st2" d="M34.9,44h4v-7.5c0-.9.6-1.5,1.5-1.5h19.2c.9,0,1.5.6,1.5,1.5v7.5h4v-7.5c0-3.3-2.2-5.5-5.3-5.5h-19.6c-3.2,0-5.3,2.2-5.3,5.5v7.5ZM28.4,59.1c0,3.3,2.1,5.4,5.3,5.4h32.4c3.2,0,5.3-2.2,5.3-5.4v-12.8c0-3.2-2.1-5.4-5.3-5.4h-2.3c-3.2,0-5.3,2.2-5.3,5.4v5.2h-17.1v-5.2c0-3.2-2.1-5.4-5.3-5.4h-2.3c-3.2,0-5.3,2.2-5.3,5.4v12.8ZM32.5,59.1v-12.7c0-.9.6-1.4,1.5-1.4h1.9c.9,0,1.5.6,1.5,1.4v9.2h25.2v-9.2c0-.9.6-1.4,1.5-1.4h1.9c.9,0,1.5.6,1.5,1.4v12.7c0,.9-.6,1.4-1.5,1.4h-32c-.9,0-1.5-.6-1.5-1.4ZM36.5,68.9h1.4c1.2,0,2-.8,2-2v-4.7h-5.4v4.7c0,1.2.8,2,2,2ZM62.1,68.9h1.4c1.2,0,2-.8,2-2v-4.7h-5.4v4.7c0,1.2.8,2,2,2Z"/>
    </g>
  </g>
</svg>