<?xml version="1.0" encoding="UTF-8"?>
<svg id="Layer_1" xmlns="http://www.w3.org/2000/svg" version="1.1" viewBox="0 0 100 100">
  <!-- Generator: Adobe Illustrator 29.8.2, SVG Export Plug-In . SVG Version: 2.1.1 Build 3)  -->
  <defs>
    <style>
      .st0 {
        fill: #6155f5;
      }

      .st1 {
        fill-opacity: 0;
      }

      .st1, .st2, .st3 {
        fill: #fff;
      }

      .st2 {
        fill-opacity: .9;
      }

      .st3 {
        fill-opacity: .9;
      }
    </style>
  </defs>
  <g>
    <rect class="st1" x="28.5" y="28.6" width="43" height="43"/>
    <path class="st3" d="M50,71.5c11.9,0,21.5-9.6,21.5-21.5s-9.6-21.5-21.5-21.5-21.5,9.6-21.5,21.5,9.6,21.5,21.5,21.5ZM50,67.5c-9.6,0-17.4-7.8-17.4-17.4s7.8-17.4,17.4-17.4,17.4,7.8,17.4,17.4-7.8,17.4-17.4,17.4Z"/>
    <path class="st3" d="M46.4,61.9h8.5c1,0,1.7-.7,1.7-1.7s-.8-1.7-1.7-1.7h-2.3v-10c0-1.3-.6-2.1-1.8-2.1h-3.9c-1,0-1.7.7-1.7,1.6s.7,1.7,1.7,1.7h1.9v8.8h-2.3c-1,0-1.7.7-1.7,1.7s.8,1.7,1.7,1.7h-.1ZM49.7,43.2c1.7,0,3-1.3,3-3s-1.3-3-3-3-3,1.3-3,3,1.3,3,3,3Z"/>
  </g>
  <g>
    <circle class="st0" cx="50" cy="50" r="50"/>
    <g>
      <rect class="st1" x="25" y="26" width="50" height="48.1"/>
      <path class="st2" d="M32.6,52.6c2.3,0,4.4-1,5.8-2.7,1.4,1.6,3.5,2.7,5.8,2.7s4.4-1,5.8-2.7c1.4,1.6,3.5,2.7,5.8,2.7s4.4-1,5.8-2.7c1.4,1.6,3.4,2.7,5.8,2.7,4.2,0,7.6-3.4,7.6-7.6v-.4c0-1-.2-1.8-.7-2.7l-5.6-9.4v-1.9c0-2.9-1.8-4.7-4.7-4.7h-27.7c-2.9,0-4.7,1.8-4.7,4.7v1.9l-5.6,9.4c-.5.8-.8,1.7-.8,2.7v.4c0,4.2,3.4,7.6,7.6,7.6ZM35.1,31.9v-.5c0-1,.6-1.7,1.6-1.7h26.6c1,0,1.7.7,1.7,1.7v.5h-29.9ZM29.2,43.1l4.4-7.6h32.6l4.6,7.6H29.2ZM28.7,46.5h7.9c-.5,1.6-1.9,2.6-4,2.6s-3.5-1-4-2.6ZM40.2,46.5h7.9c-.5,1.6-2,2.6-4,2.6s-3.4-1-4-2.6ZM51.8,46.5h8c-.5,1.6-2,2.6-4,2.6s-3.4-1-4-2.6ZM63.4,46.5h8c-.5,1.6-2,2.6-4,2.6s-3.4-1-4-2.6ZM33.8,74h32.5c3.2,0,5-1.8,5-5v-18.4h-3.9v17.4c0,1.3-.7,2-2,2h-30.8c-1.2,0-1.9-.8-1.9-2v-17.4h-4v18.4c0,3.1,1.9,5,5.1,5ZM35.7,72.4h12.5v-14.1c0-1-.7-1.7-1.7-1.7h-9c-1,0-1.7.7-1.7,1.7v14.1ZM52.3,57.2v6.1c0,1,.7,1.7,1.7,1.7h8.5c1,0,1.7-.7,1.7-1.7v-6.1c0-1.1-.7-1.7-1.7-1.7h-8.5c-1.1,0-1.7.7-1.7,1.7Z"/>
    </g>
  </g>
</svg>