<?xml version="1.0" encoding="UTF-8"?>
<svg id="Layer_1" xmlns="http://www.w3.org/2000/svg" version="1.1" viewBox="0 0 100 100">
  <!-- Generator: Adobe Illustrator 29.8.2, SVG Export Plug-In . SVG Version: 2.1.1 Build 3)  -->
  <defs>
    <style>
      .st0 {
        fill: #ac7f5e;
      }

      .st1 {
        fill-opacity: 0;
      }

      .st1, .st2, .st3 {
        fill: #fff;
      }

      .st2 {
        fill-opacity: .9;
      }

      .st3 {
        fill-opacity: .9;
      }
    </style>
  </defs>
  <g>
    <rect class="st1" x="28.5" y="28.6" width="43" height="43"/>
    <path class="st3" d="M50,71.5c11.9,0,21.5-9.6,21.5-21.5s-9.6-21.5-21.5-21.5-21.5,9.6-21.5,21.5,9.6,21.5,21.5,21.5ZM50,67.5c-9.6,0-17.4-7.8-17.4-17.4s7.8-17.4,17.4-17.4,17.4,7.8,17.4,17.4-7.8,17.4-17.4,17.4Z"/>
    <path class="st3" d="M46.4,61.9h8.5c1,0,1.7-.7,1.7-1.7s-.8-1.7-1.7-1.7h-2.3v-10c0-1.3-.6-2.1-1.8-2.1h-3.9c-1,0-1.7.7-1.7,1.6s.7,1.7,1.7,1.7h1.9v8.8h-2.3c-1,0-1.7.7-1.7,1.7s.8,1.7,1.7,1.7h-.1ZM49.7,43.2c1.7,0,3-1.3,3-3s-1.3-3-3-3-3,1.3-3,3,1.3,3,3,3Z"/>
  </g>
  <g>
    <circle class="st0" cx="50" cy="50" r="50"/>
    <g>
      <rect class="st1" x="34.6" y="25" width="30.8" height="50"/>
      <path class="st2" d="M49.9,34.4c2.6,0,4.7-2.1,4.7-4.7s-2.1-4.7-4.7-4.7-4.7,2.1-4.7,4.7,2.1,4.7,4.7,4.7ZM39.8,51.3h3.2c1.7,0,3.1-1.4,3.1-3.1v-11.8c0-1.7-1.4-3.1-3.1-3.1h-2.2c-2.6,0-4.1,1.5-4.1,4.1v10.7c0,1.8,1.3,3.1,3.1,3.1ZM38.5,73.4l5.9-7c.8-.9,1-1.3,1.5-2.4l3.8-8.1c1.3-2.9,1.6-4.4,1.8-7.2l.2-3.4,3.4,3.1c.8.7,1.4,1,2.7,1h5.4c1.4,0,2.3-.8,2.3-2.1s-.9-2.1-2.3-2.1h-5.7l-6.6-7.1c-1-1.1-2.3-1.7-3.8-1.7s-2.5.4-3.7,1.2l-.9,13c-.2,2,.2,3.2,1.2,4.7l-2,7.7-6.2,7.4c-2.2,2.7,1.4,5.1,3.2,3ZM58.5,70.6l-4.3-8.8c-.4-.7-.8-1.5-1.3-2.1l-1.6-2.2-2.3,4.8c.5.6.7.9.9,1.4l4.5,9c1.4,2.9,5.7,1.1,4.1-2ZM63.1,38.6c-.7,0-1.2.5-1.2,1.2v3.3h1.2c.3,0,.7,0,1.2.1v-3.4c0-.7-.5-1.2-1.2-1.2ZM63.1,74.1c.7,0,1.2-.6,1.2-1.2v-21.5c-.4,0-.8.1-1.2.1h-1.2v21.4c0,.7.5,1.2,1.2,1.2Z"/>
    </g>
  </g>
</svg>