<?xml version="1.0" encoding="UTF-8"?>
<svg id="Layer_1" xmlns="http://www.w3.org/2000/svg" version="1.1" viewBox="0 0 100 100">
  <!-- Generator: Adobe Illustrator 29.8.2, SVG Export Plug-In . SVG Version: 2.1.1 Build 3)  -->
  <defs>
    <style>
      .st0 {
        fill: #35c759;
      }

      .st1 {
        fill-opacity: 0;
      }

      .st1, .st2, .st3 {
        fill: #fff;
      }

      .st2 {
        fill-opacity: .9;
      }

      .st3 {
        fill-opacity: .9;
      }
    </style>
  </defs>
  <g>
    <rect class="st1" x="28.5" y="28.6" width="43" height="43"/>
    <path class="st3" d="M50,71.5c11.9,0,21.5-9.6,21.5-21.5s-9.6-21.5-21.5-21.5-21.5,9.6-21.5,21.5,9.6,21.5,21.5,21.5ZM50,67.5c-9.6,0-17.4-7.8-17.4-17.4s7.8-17.4,17.4-17.4,17.4,7.8,17.4,17.4-7.8,17.4-17.4,17.4Z"/>
    <path class="st3" d="M46.4,61.9h8.5c1,0,1.7-.7,1.7-1.7s-.8-1.7-1.7-1.7h-2.3v-10c0-1.3-.6-2.1-1.8-2.1h-3.9c-1,0-1.7.7-1.7,1.6s.7,1.7,1.7,1.7h1.9v8.8h-2.3c-1,0-1.7.7-1.7,1.7s.8,1.7,1.7,1.7h-.1ZM49.7,43.2c1.7,0,3-1.3,3-3s-1.3-3-3-3-3,1.3-3,3,1.3,3,3,3Z"/>
  </g>
  <g>
    <circle class="st0" cx="50" cy="50" r="50"/>
    <g>
      <rect class="st1" x="23" y="22.5" width="54.1" height="55"/>
      <path class="st2" d="M45,65.9c1.5,0,3.2-.2,5-.9,1.8.6,3.5.9,5,.9,4.3,0,7.5-2,8.7-3,1.8.9,3.4,1.3,4.9,1.3,4.9,0,8.3-3.5,8.3-8.6s-1-5.2-3.4-7.6c1.9-2,2.6-4.3,2.6-6.6,0-5-3.8-9.7-8.6-10.3-.3-4.8-5.7-8.2-10.8-8.2s-5,.8-6.8,2.6c-1.8-1.8-4.2-2.6-6.9-2.6-5.1,0-10.5,3.4-10.8,8.2-4.8.6-8.6,5.3-8.6,10.3s.8,4.6,2.6,6.6c-2.4,2.4-3.4,5.1-3.4,7.6,0,5,3.5,8.6,8.3,8.6s3.2-.4,5-1.3c1.2,1,4.4,3,8.7,3ZM45,62.6c-4.8,0-7.2-2.7-8.2-3.7-2.2,1.6-3.4,2-5.5,2s-4.9-2.1-4.9-5.2.7-3.8,3.7-6.5c.7-.6.6-1.7,0-2.2-2.5-2.5-3-4-3-6,0-3.9,3-6.9,7.8-6.5.8,0,1-.5.9-1-.6-3.9,2.6-7.2,7.6-7.2s4.8,1.1,6.6,2.9c1.8-1.8,3.7-2.9,6.6-2.9,5,0,8.2,3.2,7.6,7.2,0,.5.2,1,.9,1,4.8-.4,7.8,2.6,7.8,6.5s-.5,3.5-3,6c-.5.6-.7,1.6,0,2.2,3,2.7,3.7,4.3,3.7,6.5,0,3.1-2,5.2-4.9,5.2s-3.3-.4-5.5-2c-1,1.1-3.4,3.7-8.2,3.7s-3-.3-5-1.1c-2.1.8-3.5,1.1-5,1.1Z"/>
      <path class="st2" d="M50,77.5c2.1,0,3.5-.7,3.5-1.8s-.4-5.5-.4-8.1c0-4.6,5.1-13.8,5.6-14.7l-3-1.9c-1,1.8-2.1,3.7-4,7.8v-7h-3.6v7c-1.8-4.1-3-6-4-7.8l-2.9,1.9c.5.9,5.6,10.1,5.6,14.7s-.4,6.7-.4,8.1,1.4,1.8,3.5,1.8Z"/>
      <path class="st2" d="M38.9,55.6c3.9,0,6.1-1.8,7.1-4.3,1.1.7,2.4,1.1,4,1.1s2.9-.4,3.9-1.1c1,2.5,3.3,4.3,7.1,4.3s1.4-.6,1.4-1.4-.7-1.4-1.4-1.4c-3.4,0-5-1.9-5-5,0-1.1-1.5-1.5-2.1-.6-.9,1.4-2.2,2.1-3.9,2.1s-3-.7-3.9-2.1c-.6-.9-2.1-.5-2.1.6,0,3.1-1.6,4.9-5,5-.8,0-1.4.7-1.4,1.4s.7,1.4,1.4,1.4Z"/>
    </g>
  </g>
</svg>