<?xml version="1.0" encoding="UTF-8"?>
<svg id="Layer_1" xmlns="http://www.w3.org/2000/svg" version="1.1" viewBox="0 0 1024 1024">
  <!-- Generator: Adobe Illustrator 30.5.1, SVG Export Plug-In . SVG Version: 2.1.4 Build 3)  -->
  <defs>
    <style>
      .st0 {
        fill: #c9a84c;
      }
    </style>
  </defs>
  <circle class="st0" cx="512" cy="512" r="512"/>
  <g>
    <g>
      <path d="M591,145.4l-65.7-8.1c21.5-3.9,44.3-1,65.7,8.1Z"/>
      <path d="M513.8,195.3l-8.3,23.1c-2.4-8.2.9-15.7,3.6-23.6-5.2,0-10,.3-14.3-1.5l14.5-1.3c3-.3,3.2-.2,5.8.4,6.5,1.6,13.2,1.5,19.8,3.7,1-.3.9.4.5.8-.9.8-1.1.8-2.3.6l-19.4-2.3Z"/>
      <path d="M530,212.1c2.6,7.2-3.6,24-5.6,24s-1.2-.1-1.8-1.2c.6-7.7.5-16.4,7.4-22.9Z"/>
      <path d="M555.9,168.1c6.4,6.7,6.5,16.5,3.2,23.9-3.4-7.8-4.2-16-3.2-23.9Z"/>
      <g>
        <path d="M483.9,793.1c-6.4,4.9-12,11.3-16.8,18l-30.5,42.5-26.2,43.7c-5.8,9.7-6.2,20.4-8,20.6-3.7.3-5.2-16.3,3.1-30.4l11.9-20.1c5.4-9.1,5.3-25.1,1.7-35.8-5.1-15.5-9.4-30.9-13-46.9-.8-3.5-1.6-6.7-3.6-10.1l-10.8,38c-.6,2.1-1.9,3.8-3,4.7s-5.1,1.1-5.6-.8c-1.3-6.3,1.1-12.9,2.2-19.2l4.5-25.1c.7-4,3.2-3.9,5.6-4.9,3.8-2.8,4.9-9.7,4.6-14.3-.7-9.2,2.4-16.7,3.3-25.4l2.5-24.3c-7.1,16.1-16.7,30.4-31.7,39.7-1.9,1.2-3.7,2.4-6,1.1,1.9-4.6,4.9-6.9,7.7-10.8-.8.3-3.6-1-3.1-2.3,6.1-17.1,14.3-32.4,21.6-49.2-3.1,1.4-3.6,5.1-7.9,4.9,1.1-8.8,6-16.6,12.5-22.7,2.8-2.6,4.3-5.9,3.6-9.9-1.8-9.6-4.8-18.5-8.3-27.9l-11.2,16.8c-8,14.2-13.3,28.9-18.9,44.3-8.3,22.9-17.4,53.1-10.8,76.2.9,3.2,3.8,5.4,3.1,10.2-13.5-7.6-20.8-22-19.2-37.7,1.1-11.3,5.2-21.5,9.9-31.8l13.9-30.4-64.6,50.5c-7,5.5-14.2,9.7-22.5,12.6-19.7,6.9-43.3,33.8-56.4,51.6l-14,21c-1.1,1.6-2.7,2.3-3.8,1.9s-2.9-2.8-2-4.7c12.6-26.6,30.8-49.7,53.5-68.4,9.2-7.6,19.3-10.5,30.8-12.7l23.7-19.1c19.6-15.7,38.7-30.8,60.2-43.7,5.6-16.2,13-30.7,22.2-45-8.7-19.5-26.8-33.1-31.4-52.4l4.7-19c1.6-6.5,1.8-12.5-.3-18.8l-8.7-26.1c-2.4-7.3-6.5-12.9-11.5-18.6-4.5-5.2-7-11.5-10.2-17.8s-7.5-16-5.8-24.2l8.5-16.3c-8-4.3-16.9-7.2-25.8-9.4-13.6-3.3-25.1-9.7-38.1-14.8-22.4-8.9-44-18.8-62.5-34.5-12.9-10.9-25.5-20.8-37.6-32.5-7.9-7.7-14-16.9-17.6-27.3-6.7-19.1,9.4-32.1,27.4-38.9s35.7-12.2,54.6-13.1,13,1,20.2.1c29.9-3.7,59.5-6.5,89.3-8.4,4.2-7.1,6.1-14.2,9.4-21.2l19.8-42.1c7.4-15.7,14.9-30.8,25.4-44.5,5.7-7.5,12.9-12.3,21.7-15.4,16.1-5.8,32-8.7,48.9-12.2,38.4-7.9,77.1-5,114.4,7.4l34.5,11.5c16.3,5.4,31,12.4,45.2,21.8,8.1,5.3,13.3,11.6,19.2,18.9,4.8,5.9,10.5,9.8,12.3,17.9l9,42.8,4.2,20.9c15.5,3.7,30.6,6.4,45.2,12.7l49,21c19.6,8.4,35.5,22.5,49.9,38,2.2-.4,3.8.6,3.9,3,9.9,7.5,13.4,24.4,16.7,37.4,2.9,11.7,1.8,22.2-1.4,33.6-6.1,21.9-18.3,40.7-37,54.2l-34.6,21.2-20.9,9.2c-17.1,7.5-34.4,12.1-53,14.2-18.1,2-35.5,4-53.5,3.9-3.5,12.8-9.5,23.7-18.5,32.9,1.1,3.6,1,6.9-1,10.2.4,5.8,9.3,5.7,14.5,20l7.5,20.7,42,27.8,26.5,18.6c4.3,3,19-.4,42.5,14.4l42.4,26.7,18.4,12.6c1.7,1.2,3.9,4.9,2.2,6-4.9.3-9.9-1.9-14.3-4l-48.4-22.5-39.8-20c3.7,5.4,7.1,11,12.2,14.5l14.9,5.2c12.7,6.8,33.6,20.7,33.8,34.2-5.1-2.4-8.3-5.8-11.9-9.1-11.4-10.2-22.8-19.4-36.4-26.5-19.9-10.5-24.6-26.6-42.3-38.7l-15.5-10.6-23.8-15.9-1.4,9.7c-11.4-7.4-10.5-22.4-17.7-38.9-1.9-4.5-3.7-8.9-8.6-11-.9,7-3.5,12.2-7.4,17.2l-23.8,30.2c-11.5,14.6-21.4,29.5-29.9,46l-7.9,13.3c-.9,12.4-3.1,24.3-7.7,36.2-7.2,18.5-11.9,37.1-12.9,57.2l29.2,4.9,23.5,4.7c-.7,1.6-2.3,2.1-4.1,2l-36.2-1.9c3,1.7,5.9,3.9,5.5,7.7s-1.4,3.1-2.3,3.7c-1.5.9-3.8.9-5.2-.4l-10.9-10.9c-1.2,11-1.3,27.6-8.6,30.1l3.6-37.4c1.9-19.6,4.3-38.1,8.7-57.2,1.5-6.2,1.4-12.5,1.3-19.4l-38.4,50-21.8,27.3c2.1-.6,3.5-2.8,5.8-1.4l-15.9,18.2c-2.8,6.2-3.6,12.1-9.6,16.8ZM570.2,219.2l-29.6-7.1c11.2-1.4,21.4,1.6,32.4,2.8l-.9-17.9c0-1,.7-1.9,1.2-2,2.7-.1,4.3,11.8,3.7,20.7l27.6,5.7-1.3-22.9-12.9-2.8c-2.3-.5-3.7-.8-6-1.3l-22.8-4.9-.3-1.4,23.1,3.1-3.5-18.2c-1.2-6.3,7.8-1.8,8.7,19.1l21.4,4.3-3.3-17.4v-4.7c-.1,0-39.3-9.7-39.3-9.7,8.9-1.5,17.4,1.6,26.2,2.4l-2.4-14.8c-.5-2.8,8.3-.3,6.7,15.5l19.2,4.2c-.7-8.9-7.9-18.5-3.2-18.6s8.5,1.5,13.2,2.7l-4.6-9.8c5.9.7,8.1,5.9,9.6,10.6l11.9,4.5c-.9-3.1-2.3-5.1-1.9-8.2,7,1.5,5.6,9.3,11,11.8l18,8.3c-2.4-5.9-7.4-8.8-12.1-12.3-15.9-11.9-33.3-19.8-52.3-25.7-16.2-5.1-31.1-11.4-47.7-15.3-15-3.6-29.6-7.3-45.2-6.8-24.6.7-70.2,10.7-94.8,18.5-10.9,3.5-18.9,13.8-24.4,24.8,5.8-3.7,13.2-3.6,18.1-7.3s11.4-17.5,15.6-12-4.8,5.6-7.4,11.2c12.7-1.9,24.8-3.2,37.6-4.2,2.9-10.3,14-22.3,16.5-19.2,1.9,2.4-8.2,10-11.5,19,12.8,0,24.6-1.2,36.7,2.8l-20.7,1.1c-3.6,5.6-6.6,11.8-7.9,18,13,1.1,25,1.3,36.5,4.9-5.3.9-10.2.4-15.3,0-4.7,7.4-8.3,22.6-10.4,22.5s-1.3-13.4,4.9-22.4c-10.3-.8-20.5-.9-30.8-.2-4.1,4.7-5.2,10.2-8.3,16-.6-5.2,1.7-10,4.2-15.9-9.2-.1-17.9.8-27.1,1.9-3.2,5.5-5.7,10.6-8,16.8l23.5-1c6.3-.3,12.4,0,18.4,2.4-4.5,2.5-8.8,1.3-12.9,2.3l-5.6,16.4c16,.4,31.3.2,46.5,4.1l-26.5,1.2c-3.2,7-4,14.8-8.8,21.6-3.1-8.1,1.5-14.6,3.8-21.6-14.6,0-27.6.4-41.2,2-4.1,8.3-6.9,16.4-9.6,25.4l60.9-1.7,80.1-4.2c35.5-.5,69.6,2.4,105.1,5.9-23.9-8.6-48-16.1-73.2-20.8-2.9-.5-5.4-1.1-8.6-1.8ZM433.9,166c12.3-.6,23.6-1,35.8-.8.3-6.9,2.8-11.9,6.5-17.3l-13.3,1c-1.3,0-2.2,2.1-2.9,3.8-1.5-1.4-1.4-2.1-2.3-3.9l-15.5,2.4c-4.3,3.6-5.5,9.9-8.4,14.8ZM430.1,166.5c.5-6.1,2.7-10.1,5.9-14.8l-17.8,2.4c-2.9,4.5-5,8.8-7.3,14.1l19.2-1.7ZM385.6,175.4c7.7-2.6,14.2-4.7,21.6-6.1-.3-5.3,1.6-8.8,3.2-13.4l-17.7,4.6-7,14.9ZM649.9,181l-2.7-13.6-27.7-10.2c2.2,5.8,3.1,10.2,3.5,15.6l26.9,8.3ZM681,197.1c-2.1-6.2-2.7-13.7-6.8-18.4l-21.2-9.7.2,13.4c10.1,4,18.7,8.6,27.8,14.6ZM375.5,199.2c12.9-5.1,25.1-7.6,38.3-9.4.8-6.3,3.2-11.4,6.4-16.8l-28.9,5.3c-2.4.8-4.6.6-7.1-.2l-8.6,21.2ZM637.7,203.1c-.3-7.5-1.4-14.2-3.8-21.3-8-3-15.9-5.4-23.9-6.8,4.2,7.4,5.9,14.5,6.4,22.5l21.3,5.6ZM658.8,210.1c-.2-7.2-.7-13.6-2.8-20.2l-17.5-6.8c2.8,7.7,3.2,14,2.8,21.1l17.6,5.8ZM437.3,209.5c.8-6.8,3-11.3,5.9-16.8-14.9.4-28.6,2-42.9,4.6-3.4,5.4-6.1,10.6-8.4,16.9,15.4-2.9,30-4.1,45.4-4.6ZM675,216.8l-2.3-18.2-10.7-5.5c1.9,6.2,2.7,12.1,1.7,18.9l11.3,4.8ZM364.8,221.7c7.6-2.9,14-4.7,21.2-6.5,1.1-6.2,3.7-11,7-16.3l-16.4,3.6c-.8.2-2-1.2-2.4-1.7l-9.5,20.9ZM632.8,206.2l-15.9-4.4-3.7,2.1c-.7-3.3-3-4.4-6.4-4.4,2.5,7.2,2.2,14.4,1.2,22.8l26.7,8.2c-.9-8.8-2.5-16-1.9-24.2ZM686.6,221.9l-3.5-17c-1.4-.9-2.4-1.7-4.7-2l2.6,15.9c.2,1.5,3.3,2.6,5.5,3.1ZM689.6,237.5l-2.2-11-7.6-2.7c0,1.8-.9,4.3-3,3.9-.6-1.3-.2-5-1.9-5.7l-15-6-23-8.4c2.3,8.4,3.4,16,2.3,24.2,5.7,2.3,11.9,4.1,16.5,8.3s3.2,3.2,6.5,3.7l30.5,5.1-1.8-5.9-46.6-18.3c16.6-.1,31,7.3,45.4,12.8ZM401.4,242.3c.2-8.9,3.6-16.3,8.1-24.7-17,1.6-32.1,5.8-47.5,10.2-2.4,6.2-5.1,11.4-8.2,17.1l47.6-2.6ZM576.8,304.9l27-8.7c1.3-.4,2.2.3,2.2,1.1s-.6,1.2-1.2,1.4l-17.8,9.3c6.7,1.3,12.6,4.2,18.7,4l16.7-5.6c-1.2,4.5-5.3,6-8.9,8.3l20.7,7.5c6-1.3,10.9-5.1,17.4-4.9-2.1,4.2-5.7,5.1-9.4,7.8,12.3,5.2,23,11.2,33.6,18.2l31.6-12c.3,3.4-2,5.2-4.4,6.6-13.8,8.6-29.1,13.6-45.3,15.6,18.1,9.3,34.3,18.9,50.5,30.1l16.4,13.9c10.7-.6,10.7,7.7,12.6,9.8s2.4.6,4,0c-1.7-6.2-4.6-12.3-9.1-17.5-4-.3-7.4.3-11.4-1.3l8.7-2.4c-6.1-4.8-11-11.9-17.8-14.3-5.6-2-12.7,1.2-18.4-2.7,2.9-3.1,6.9-2.2,11.1-3.3l-13.2-8.1c-13.7,4.1-21.9-.5-18.5-1.3l28-6.8c6.8-1.6,13.1-4.7,20.7-3.9-5.8,6.3-13.5,6.9-21.4,10.5l14.2,7.7,22.8-1.1c-4.7,4.7-10.8,4.8-16.2,6.7,6.2,5.2,11.5,9.8,15.9,15.6l22.6-4.9c5.8,9.4,9.7,19.6,12,31l10.5-1.8c-2.5-4.7-4.1-8.9-7.5-12.5l-3-1.4.5-3.1c-5-7.8-11.3-14.7-17.8-21.4l-8,.2c.3-2.2,1.9-2.8,4.2-3.2l-5.5-5.5c-.7-.7-.4-1.9,0-2.1s2.2-.3,3,.1l8.3,5,23.1-8.9-11.2-12.8c11-6.1,20.7-12.5,31.3-19.8,1.2,3.4-1.6,5.8-3.7,7.5-7,5.7-14.4,9.9-22.7,13.1,9,6.9,15.8,14.7,22.5,23.8l17.6-7.9c-5.6-8.3-12.4-15.4-19.5-22.8s-.3-2,.5-2.3c3-1.2,18.8,14.4,24.9,22.4l11.8-7.3c1.2-.7,2.4-.5,3,.4,1.5,2.1-5.2,8.1-12,10.9,6.2,9.7,10.7,19,13.7,29.2l7.9-3.9c1.1-.5,1.9-.1,2.5.8,1.2,2.1-3.9,5.9-9.3,8.7.6,8.2-.6,15.6-4,24.1l8.6-2.8c8.9-11.8,10.3-26.6,8.5-41-.4-3.2.6-5.7-1.7-8.7s-2.1-4.7-1.6-7c7.1-.5,10.6,4.3,12.8,10,2.5,6.2,4.8,11.7,4.4,19,1.7-4.5,2.6-9.2,1.7-14.2l-5.3-27c1.7-6.3-.6-12.5-6.4-15.2-12.5-11.6-25.5-21.7-39.5-31.4s-24.6-12.6-37.5-18.6c-21.7-10-43.2-17.4-66.7-22.3-24.9-5.2-49-9.8-74.4-12.2-26.3-2.5-51.6-4.5-78-4.6l-60.1,2.6-97.9,3.5-53.6,3.3-4.1,5.1c-1.2-1.5-.9-2.7-.6-4.6-26.4.7-52.2,4.4-78.7,7.1-11,1.5-21.3,2-32.1.6l-41.7,9.8c-9.3,2.2-29.1,13.3-29.8,21s3.4,11.8,7.1,17.1c3.4-14.6,17.6-24.9,31.6-30.5-1.6-1.5-1.4-4.4,0-4.6,2.2-.3,3.5,2,5.1,2.9,20.8-5.3,41.3-9.7,63.3-9.3-2.6,2.9-6.5,3-10,3.7-16.2,2.9-31.9,5-48.1,9.4l12.1,9.1c11.3-4.6,23.2-8.6,35.4-7.8-3.6,4.1-7.8,2.5-11.5,4.7,6,5,11.5,8.5,17.4,12.1l17.5-6c-6.6-5.5-8.7-11.4-5.6-10.6s6.9,6.4,12.4,9c6.3-1.5,12.1-2.7,18.2-3.6-3.1-3.1-6.7-5.2-7-9.5l14.6,7.9c6.2.9,12.2-1.9,18.5,0l-12.8,4.4c1.8,1.5,3,2.7,2.7,4.9-3.9.4-6.9-2.8-10.2-2.8-5.7,0-10.9,2-16.8,3.2l11.2,6.8c-6.6,2.9-12.5-1.7-18.5-4.2-5.4-.4-11.3,2.5-16.6,4.3,4.2,3,8.4,3.7,11.2,7.3-6.6,2.4-12.8-2.3-18.5-4.1-12.9,3.9-23.5,12.6-32.5,22.4-2.2-3.7.3-7.3,2.7-10.2,5.9-7.4,14.1-12,23.1-16.5-5.7-4-11.3-7.6-15.1-13.8-13.5,4.6-27.1,9.5-36.4,20,2.8,1.7,5.7,2,8.1,4.4-3.6,2.7-7.7-.4-11.4.3-2.2.6-4.9,5.8-3.7,7.6,2.9,4.3,8.8,5.2,14.1,6.6,3.9-8.7,12.7-21.6,22.3-20.5-7.2,5.5-12.3,12.5-16.8,21.2l22,3.7c17.2-15.4,43.8-18.5,67-22.9l48.8-9.1c21.7-4.1,42-11,63.4-16.3s10.7-4.1,17-2.4c-13.6,7.8-27.6,11.8-41.6,16.5l24.8,2.5,57.4-15c1-.3,2.3-.3,2.6.3s-.2,1.8-1.6,2.6c-12,7.6-25.3,10.1-39.5,14.6,12.8.5,26.2,3.3,39,1.4l36.8-13.7c-6.9,8.6-17.7,11.1-27.1,15.2,12.6,1.6,23.8,2.9,35.6,5.3l16.7-7.3-19.3-3.2c-.8-.1-2.1-.7-2.1-1.2,0-1.2,1.1-1.3,2.7-1.3l26.5,1.1c6.1-1.2,10.8-7.5,17.7-7.4-1.4,5.2-6.1,6.3-9.5,10l24.3,3ZM193.5,310.7c-14.3-5.4-17-14-13.7-12.9,6,2,10.2,6.2,16.6,8.8,6.2-5.9,12.7-10.5,20.9-15.2-5.7-.9-10.8-5-15.7-7.3-13.1,2.9-30.5,16.1-33,29.7,6.9,8.7,13.9,16.8,22.4,24.1-3.4-6.2-9.4-10.9-8.6-18.4,1.5-.8,3.9.2,5.9,1.8,1.2-3.9,3.1-6.6,5.2-10.6ZM567.3,309.1c-7-1.1-13.7-4.6-20.3-3.4s-10.3,5.5-16.4,7.4c17.4,5.3,20.9,3.1,36.8-4ZM582.6,320.6l13.3-4.8-17.3-4.6-19.8,8.2,18.6,4.5c1.6-1.8,3.3-2.7,5.2-3.4ZM634.2,328.6c-7.3.5-14.9,5.9-22.1,1.3,3.7-3.2,8.5-2.4,13.4-5.1-5.4-1.8-13-6.5-19.2-5.4-8.3,1.5-15.5,5.3-24.8,5.9,23.2,6.4,45.5,13.5,67.4,24,7.6-1.2,14.2-1.5,21.7-4.7-12.2-5.1-23.3-12.8-36.3-15.9ZM425.9,398c2.4,3.4,3.8,5.5,4.1,8.9l-10.1-3c-8.2-2.5-5,10.3-16.9,26s-3.5,21.7-6.3,31.8c-5,18.4-16.8,36.3-16.3,42.2.6,6.3,5.7,12.6,10.8,15.7s9.6.2,13-2.3c-1.4-.1-2.5.5-3.8-.1,1.9-13.4,12.8-21,25.8-19.6,6.9.7,12.6,5.1,11.5,12.7l-5.9-1.1c-.4,1.6-1.5,2.7-2.3,2.8s-2.2-.9-3-1.6c-1.4-1.2-3-.6-3.9.5s-1.5,2-1.1,4.1l21.6-.3c2.6,0,5.3-1,6.8-2.6s1.5-4.4,2.2-7.8c5,3.8,4.7,10.5,12,14.8,1.2-1.9,2.6-2.4,3.8-1.5s1.6,2,3.4,3.6l-1.1-6.3c2.2.9,3.3,2.9,3.9,5,1,3.4,3,5.6,4.7,8.3,3.4,5.2,7.7,9.1,13.3,11.7s1.6,13.7,3.6,18.5,4,3.7,6.2,4.6c-1.9-5.3-2.9-10.3.2-12.6s9.3.8,14.9-1.5,1.4-7.2,5.9-9.6l-5.7-16.2c3.1-1.1,5.7.2,8.5,2,3-7.2-3.1-14.2,0-16.4s10.4,6.1,14.3,13.6c.5-6.2-2.2-11.1-3.5-16.7-1.4-6.2-2.8-12.2-6.5-17.4s-1.9-4.1-1.2-6.3,2.5-3.4,4.9-3.8l10-1.7c3.6-1.6,6.1-.4,9.6-.9,5.7-.7,11.2-10.6,15.8-7.9,8.3-16.1,24.9-5.5,29.5-12.5s11.1-17.2,14.6-26.2c-2.8-8.8-4.6-17.5-3.3-27.1l1.6-11.8c-6-7.2-11.6-13.9-15.2-22.4-16.4-7-32.9-11.2-50.2-15.7-15.3-4-30.2-6.8-45.1-12s-29.1-8.1-44.8-6.6l-40.4,3.7c-18,.7-35.2,3-52.8,7.3s-13.1,4-15.4,12.2-3.2,8-3,11.8,4,2.8,6.4,3.2c8.8,1.3,16.4,2.8,24.7-.3.6-1,1-1.9,2.7-3.1,5,7.3,16.2,8.8,15.4,19.5,3.6,1.1,12.7,2.1,15.1-2.8,6.4-13.4-1.3-34.7,15-46.5,2.1,9.3-4.8,13.3,1,18.8s3.2,6.6,3.6,10.7c2.7-1.2,5.4-1.2,8.4-1.1,2.1-4.9,4.9-8.8,9.4-11.7.1,4.4-2.6,6.3-3.6,10.3,9.1,3.5,19.5.8,27.3-4.7l2.6-4.6c6-1.4,12.1-4.6,18.7-4.2,4.5.9,8.8,4.8,12.9,7,10.7,5.6,20.5,11.5,30.5,18.8-16.3,6.2-35-6.7-55.5-5.9s-9,3.3-12.4,6c7.5-.9,13.9-3.7,20.7-1.4,5.2,1.8,10.8,3.6,12,9.8-12-3.5-29-6.8-31.4,1.4,7.9-1.1,15.1-2.7,22.8-1.6l8.3,3.9c3.5.2,6.4-.3,8.5,2.1s3.1,5.6,1.2,8.9c-2.8,4.8-10.4,9.4-16.4,7.8-4.2-1.1-5.9-6.7-8.3-10-3.7,2.5-1.3,6.9.8,9.5-4.5,9.2-13.3,1.9-25.7,1.8s-3.6-.4-4.6-2.8c4.9-1,9.8-2,14.6-.5s6.2,3.1,10.1,2.8c-4.5-3.9-4.8-9.7-4.2-15.6-3.3-1-6.4-2.2-9.9-2.2s-5.7,3.5-5.4,5.9c.4,3.5-.1,5.8-3.7,7.7l-2-4.7-7.1,6.5c-1.1,1-4.3-.2-5.4-1.4l7.8-9c3.4-4,7.2-6.6,11.1-10.2l-22.4,9.8-5.5,4.3c-2-1.7-3.5-3.4-6.3-2.9ZM791.8,374.4c-4.4,2-8,3.2-11,1.1l9.1-4.7-8-10.9c-6.6,4.1-13.8,6-21.9,8.8,8,7.2,13.7,14.6,19.4,22.8l18.5-6c-1.6-4-3-7.8-6.1-11.2ZM811.3,400.3l17.6-6.3c-3.1-10.5-7.4-19.8-13.3-29.3l-18,7.8c6.2,9,10,17.6,13.7,27.8ZM763.8,402.8l-6.1-17.8-18.1,4.5c3.7,5.7,5.2,10.8,5.9,17.2l18.4-4ZM352.5,395.9l7.7-6.1c-8.3-.8-14.9,2.7-22.5,5.1l4.8,8.4c3.1-2.8,6.4-4.5,10-7.4ZM805.5,401.7l-4.8-11.6c-2.4.5-4.2,1.3-6.3,2.8,2.1,3.7,2.9,6.8,3.7,11.1,2.6.2,5.3-.3,7.4-2.3ZM793.7,405.6l-1.7-11.9-10.6,2.3,4.4,12c3-.5,5.4-1.2,7.9-2.4ZM360.7,395.2c-6.3.7-10.9,4.5-13.5,8.9,5.2-3.5,9-6.6,13.5-8.9ZM426.7,809.6l4.8,34.1,27.6-35.5,21.2-30.8c9.5-13.8,19-26.3,30.4-38.7,19.1-20.8,36.2-42.4,52.1-65.7,4.9-7.2,10.9-13,14.2-21.7-12.6,10.6-23,21.7-36.5,30.2-4.5,2.8-9.4,6.4-15.2,4.1,13.1-8.6,25.4-17.2,35-29.1l13-16c4.5-5.6,9-10.3,15-14.1s10.3-10,13.5-16.4l12.4-22.6c8.3-8.8,17.1-17.5,22.7-27.9s3.7-14.9,4.1-22.6l.9-19.5c-1.1-5.4-5.4-11.4-9.7-14.8s-6-7.2-2.9-11.8c3.6,2.8,6.5,5.9,10.6,7,7.6,2,14.8-2,19.9-7.7l22.8-25.2c9.8-12.4,11.9-29.5,10.2-44.7s-2.5-4.2-5.2-3.9c3.6,11.7-.6,20.7-2.6,18-4.1-5.5-1.6-14.5-6.5-16.9s-4.5-1.3-6.1.3l-10.9,11.2c4.3.5,8.3,1,10.8,4.4s3.3,9,2.1,14.1c-2.4-2.4-3-5.6-4.8-8.5-2.9-4.8-12.4-2.1-13.9,1.8s9.2,14.2,3.2,21.5-14.8,10.8-17.4,7.4c-4.7-6.2,13-12.2,7.7-18.1l-8.5-9.5c-2.4-2.6,0-7.7.9-10.9l4.6-17.5c.6-2.5,2.5-4.4,4.7-4.1l-.8,16.9c10.7-14.4,25.5-27,39.8-15.5,1.1-3,.1-6.1-2.1-7.9-11.5-9.2-29.6-3.4-40,6.3-6.3,5.9-14.2-1.3-21.1,17.8l-5.4,14.8c-1.2,3.2-.1,8.7,2,11.3,3.2,3.8,3,6.5,1.1,10.8l-1.7,12.2c-.7,4.9-4.2,9.1-4.6,14.2s3.8,6.9,7.3,8.3l-.9,19.5,2.7,6.2c-3.3,8.6-7.5,17.9-15,23.3l-13.1,6-15.7,16.3-23.2,27.7c-3.3,4-6.7,7.2-9.1,12-3.6,7.3-9.2,13.5-17.4,15.6h-6.7c-3,10-6.9,19-12.9,27.2s-2.9,2.5-4.7,2.3l-.8-8.8-10.5,8.4c-3.4,2.7-5.7,1.1-9,.5l-10.6,3c-7.6-1.4-15.2-.8-22.5,2.7-3.4,6.8-1,14.9,5.4,19.2,11.1,7.7,9.2,12,10.1,16.1s7.3,14.4,2.9,15.3-4.7-7.6-10.8-14.6l-27.1-31c3.7-1.4,5.5,1.5,8.2,3.5,1.1-4.9-2.7-4.9-5.7-5.7l-13.6-3.6-.9,25.5c0,2.8-1.8,4.1-2.4,6.2-3,9.6,7.4,18.8,4.2,29.4-.9.8-3.2-1.2-3.6-2.3l-4.1-11.6c-2.2,3-3,6.4-3.9,10.3l-4.9,22.9c-1.9,8.9-.4,18.7,1.6,27.7l7.7,34.6c1-4.3-.7-8.1,1.8-12.2,4,6.1,4.7,12.7,5.7,19.8ZM388.9,399.3c1.1,3.3,1.3,5.9,2.5,7.8,2.4-.3,4.5-1.1,4.4-2.6-.1-2.6-3.4-4.3-6.9-5.2ZM798.6,424l30.8-7.9c-2.1,4.9-6.4,6-10.7,8.4,1.9,1.2,5.2.7,7.4-.6,4.8-2.7,6.2-15.7,4.2-24.8l-17.4,5.9.2,9.8c0,1.7-1.2,2.7-2.5,2.6s-1.6-1.1-1.9-2.4l-1.7-8.1-8,2.7-.4,14.4ZM365.9,415.8c-4.2-4.5-5.5-9-4.3-14-6,2.7-8.9,7-13,10.9,6.3,2.2,11.2,3.1,17.3,3.2ZM376.5,412.9c0-2.2-1.4-5.5-2.9-6.8-1.7,1.8-1.7,3.8-1.1,5.8s2.4,3,4,1.1ZM766.2,417.6c0-6.2-.9-8.3-1.8-12.1-5.1,3-8.8,4.8-13.9,6.1l15.6,6ZM792.9,424.3l1.1-13.4-22.1,4.1c-.6,2,.1,6.2,2.3,6.5l18.8,2.8ZM363.9,497.9c1.9,3,1.2,7.4,3.7,10.5,9.7-11.7,17.8-36.7,18.3-50.4s-2.2-12-1-17.9c1.7-8.9,6.1-15.9,10.1-24.4-14.4,5.4-32.6,5.8-46.9,1.8.6,4.5-1.2,5.9-3.1,8.8-3.6,5.4-7.6,13.5-6.6,20.1s5.5,13,5.4,20.5c5.9,4.4,9.2,10.4,12.1,17s5,9.4,8,14ZM561.1,518c-3.2-8.1-7.8-14.7-12.8-21.5-1.1,3.2,0,5.6.8,8.1l12,13.4ZM462.6,524.8c-5-4.6-8.6-7.4-11.7-4.2,3.9,2.8,8,3.7,11.7,4.2ZM407,552.5c-6.5-3.1-13.5-4-15.2,1.5,5.4-1.2,9.8-1.4,15.2-1.5ZM462.4,559.3c-5.6-4.4-12.2-4.8-18.2-7.7-3-.9-5.3-.3-7.5,3.3,8,1.6,15.9,5.1,25.7,4.5ZM423.8,554.4c-4.1.6-6.1-.7-8.6-2.6-1.4,2-1.7,3.9-1.2,5.9,4.1.2,7.3-.8,9.8-3.3ZM470.3,575c2-2.4,3.3-3.6,4.6-6.1-2.3-1.5-5-4.5-8-4.6l-17.4-.7-27.3-.3c-12.9-.1-14.2,10.4-17.8,10.2s-3.4-1.6-3.6-3.6l-1.2-8.5c-7.8-2.9-10.3,4.3-15.5,1.2,1.8,4.1,3.4,8.8,7.3,12,5.6,4.7,15.2,6.6,21.9,3.8s4.6-3.6,8.2-.8,5.5,4.5,8.5,5.1l21,4.2c2.3.5,7.5.8,8.4-1.5l6.6-15.7c2.3,1,3.3,2.6,4.3,5.1ZM407.3,698l1.9-9.9,5.7-27.3c.3-1.5.2-3.4-.9-4.3s-2-1.8-3.5-1.1c1.2,7.1,0,12.8-2,19l-5.2,16.4c1.6,1.8,4,3.6,4.1,7.2Z"/>
        <path d="M724.2,353.4c4.9-5.3,11.4-6.5,17.5-10.6l-13.9-9.5c-5.6,2.3-9.7,6.6-16.8,6.6,3.2-4.1,8.3-5.3,12.8-9.3l-25.6-13.6c-7.1,4.2-13,9.9-22,11.2,4.5-6.1,11-8.2,16.3-13.7l-17-6.5c-6.4,4.1-11.7,9.3-19.3,10.4,3.8-5.8,9.1-8.5,13.9-12.5l-30.8-11c12.5.3,23.1,4.7,34.6,7.7l10.4-6.7c1.3,3.4-1.4,6-4.8,8.4l17.9,6.7,14.2-12.5-36.1-11.6c14-.2,26.4,4.6,39.4,8.1l5.3-3.9c1-.7,2.3,1.3,2,2.1l-1.5,3.9,12.9,5,24.1-19.5c.8-.6,1.8-.8,2.3-.4,3.3,2.5-13.1,17.5-23.5,21.4,10,5.1,18.8,9.9,27.1,16.4,2,1.6,3.4,3.2,4.6,5.8l19-15.7c-10-7.6-22.1-9.2-31.4-18.3,24.4,6.7,46.2,19.2,66,34.6,2.7-2.1,3.7-4.9,7.2-6,1.6,3.3-.3,6.6-3.4,9,4.6,6.3,10.4,11.5,12.3,20.3l-16.2-15.9c-5.6,5.1-12.9,9.4-14.4,6.2s0-1.6,1.2-2.5l9.4-7.4c-8.6-7.4-17.4-13-27.4-18.6-4.2,5.6-8.6,10.6-14.3,14.6l-24.6,17c1.7,2.6,4.5,4.2,4.5,8.1l-10.2-4.8c-6.8,3.5-13.2,8.1-21.8,6.9ZM729.3,327.6l17.6-13.2c-9.6-4.9-19-10-29.5-13.5l-14.5,12.7,26.4,14ZM747.2,339.9l20.2-13.5-17.7-10.6c-4.6,5.9-10.2,9.7-16.8,14.2l14.4,10Z"/>
        <path d="M695.1,277.7c-10.1-2.8-20.2-5.4-31.2-6.9l-34-4.8c-.7-.1-1.4-.7-1.7-.9-.5-.3-.4-2.2.7-2.1l28,1.9c9.5.6,18.3,2.1,27.4,4.6,3.8,2,8.6,2,10.8,8.3Z"/>
        <path d="M353,271.4c-2.1,0-4.2.4-5.4-1.5,11.1-3.8,21.8-4.8,33-6.5,12.1-.7,23.8-3.7,36.2-.3l-63.9,8.3Z"/>
        <path d="M548.4,261.9c-7,.3-13.5,2.3-20.3-.8,17.5-3.4,35-4.3,52.8-3.6,4.8.2,9.1.1,13.2,2.2l-45.6,2.2Z"/>
        <path d="M310.1,268.4c-9.6,2.3-18.6,2.5-28.3,2.2,9.3-3.2,18.8-3.5,28.3-2.2Z"/>
      </g>
    </g>
    <g>
      <path d="M474.1,897.9l6.3-25.2c1.1-4.2-1.1-9.3-6.2-10.9,4,6.5,4,14.3,2.7,21.7-1.5,8.7-6.7,14.1-14.4,17.1-5.4,2.1-10,2.9-15.2-1.4-7.5-6.1-10.6-16.7-7.3-26.4l-4.2,2.4c-2.1-2.2-.9-4.7,1.3-6.5,14.2-12.2,29.8-21.7,46.5-30.4,21.2-11,41.3-22.4,60.9-36,5.4-3.8,7.1,5.5-11.3,16.7s-42.5,23.4-64.4,34.4c-3.8,1.9-7.1,3-10,6.2,4,.2,6.6,0,10.5,1.2l-.4-6.7c6.6.3,14.7,3.7,16.8,11,3,10.9-.3,22.6-6.6,31.5s-3.6,2.5-4.9,1.1ZM465.2,891.2c2.8-5.4,2.6-10.5.8-16.1-2.4,5.5-2.4,10.5-.8,16.1Z"/>
      <path d="M708.4,697.1l1,23.4c.2,5.1,2.4,10.3.5,15.4l-6.4,9.6c-1.8,2.7-3.2,5.9-6.9,6.7,7.6-25.9,6.3-51.8-.6-77.3l-3.8-14.3-6.1-24.2c3.9.5,5,3.5,6.3,6l20.2,40.8-1.3-27.2c-.1-2.5,1.1-4,2.6-4.9s5-.8,5.3,1.6c2,16.9,2.7,33.6,2.4,50.7s-1,5.4-3.5,6.1c-5.4-2.3-6.4-7.1-9.7-12.4Z"/>
      <path d="M617.2,754.2c-1.5,4.5-7.3-6,4.4-31.7,8.8-19.5,18.3-38.2,29.3-56.6,5.5-9.2,19.9-28.8,22.8-25.2.7.9.5,2.4-.3,3.6-9.2,13.1-17.4,26-24.6,40.4l-24.8,49.2-6.8,20.3Z"/>
      <path d="M670.7,626.5l1.5,2c.4.5-.3,1.5-.7,1.6s-2.4,0-3.2-.7c-14.5-14.3-17.3-40.3-14.5-42s2.3.2,3,1.7l5,11c3.9,8.5,7.7,16.5,8.9,26.3Z"/>
      <path d="M449.4,424.4c1.2,5.3,3.9,9.8,3.2,16-6.6-7.5-6-16.1-18.9-21.8,17-11.1,41.1,3.1,38.9,8.5s-2.8,2-4.3,1.4l-18.8-4.1Z"/>
      <path d="M528.5,397c3.2,1.7,1,5.7-.9,7.1s-5,.6-7.1-1.9c-5.9-7.1-12.1-13.4-18.4-19.6l26.3,14.4Z"/>
      <path d="M452.6,482.7c5.2,3.4,9.6,7.3,11.1,13.9-9.7-5-18.1-11.9-23.4-22l12.3,8.1Z"/>
      <path d="M444,509.9c.1-6.6,2.1-12.5,4.8-18.9,5,6.7,2.4,15.2-4.8,18.9Z"/>
      <path d="M504.9,427.9c-1.3,1.5-3.6,1.2-4.9.6s-2.8-2.4-1.7-4.2c2.2-3.3,6.6-4.7,10.5-4.7-.7,3.5-2,6-3.9,8.3Z"/>
      <path d="M422.2,469.8c-2.7-5,0-10.2,2.9-14.7,2.8,4.8,1.9,10.7-2.9,14.7Z"/>
      <path d="M453.9,752.4c-6.1,6.4-8.8,13.6-12.1,22.1-5.3-9.7,6.1-24.7,14.9-32.8,7.6-6.9,13.3-14.3,19.6-23.8,1.5,7.5-3.1,14.2-8,19.4l-14.4,15.1Z"/>
      <path d="M678.2,461.9c-1.6,13.8-28.3,30.1-33.1,20.9,13.2-3.8,22.6-12.3,33.1-20.9Z"/>
      <path d="M445.4,812l-1-17.6c-.5-8.4-7.9-10.7-6-13.5s2-1.5,3.4-.9c9.1,3.9,7.5,20.6,3.6,32.1Z"/>
    </g>
  </g>
</svg>